G04 #@! TF.GenerationSoftware,KiCad,Pcbnew,(6.0.7)*
G04 #@! TF.CreationDate,2022-09-05T12:55:50-07:00*
G04 #@! TF.ProjectId,ice2040,69636532-3034-4302-9e6b-696361645f70,1*
G04 #@! TF.SameCoordinates,Original*
G04 #@! TF.FileFunction,Paste,Top*
G04 #@! TF.FilePolarity,Positive*
%FSLAX46Y46*%
G04 Gerber Fmt 4.6, Leading zero omitted, Abs format (unit mm)*
G04 Created by KiCad (PCBNEW (6.0.7)) date 2022-09-05 12:55:50*
%MOMM*%
%LPD*%
G01*
G04 APERTURE LIST*
G04 Aperture macros list*
%AMRoundRect*
0 Rectangle with rounded corners*
0 $1 Rounding radius*
0 $2 $3 $4 $5 $6 $7 $8 $9 X,Y pos of 4 corners*
0 Add a 4 corners polygon primitive as box body*
4,1,4,$2,$3,$4,$5,$6,$7,$8,$9,$2,$3,0*
0 Add four circle primitives for the rounded corners*
1,1,$1+$1,$2,$3*
1,1,$1+$1,$4,$5*
1,1,$1+$1,$6,$7*
1,1,$1+$1,$8,$9*
0 Add four rect primitives between the rounded corners*
20,1,$1+$1,$2,$3,$4,$5,0*
20,1,$1+$1,$4,$5,$6,$7,0*
20,1,$1+$1,$6,$7,$8,$9,0*
20,1,$1+$1,$8,$9,$2,$3,0*%
G04 Aperture macros list end*
%ADD10C,0.120000*%
%ADD11RoundRect,0.200000X-0.200000X-0.275000X0.200000X-0.275000X0.200000X0.275000X-0.200000X0.275000X0*%
%ADD12RoundRect,0.135000X0.135000X0.185000X-0.135000X0.185000X-0.135000X-0.185000X0.135000X-0.185000X0*%
%ADD13RoundRect,0.135000X-0.185000X0.135000X-0.185000X-0.135000X0.185000X-0.135000X0.185000X0.135000X0*%
%ADD14RoundRect,0.140000X0.140000X0.170000X-0.140000X0.170000X-0.140000X-0.170000X0.140000X-0.170000X0*%
%ADD15RoundRect,0.135000X0.185000X-0.135000X0.185000X0.135000X-0.185000X0.135000X-0.185000X-0.135000X0*%
%ADD16RoundRect,0.135000X-0.135000X-0.185000X0.135000X-0.185000X0.135000X0.185000X-0.135000X0.185000X0*%
%ADD17RoundRect,0.250000X0.450000X0.425000X-0.450000X0.425000X-0.450000X-0.425000X0.450000X-0.425000X0*%
%ADD18R,1.400000X1.200000*%
%ADD19R,1.500000X2.000000*%
%ADD20R,3.800000X2.000000*%
%ADD21RoundRect,0.140000X-0.140000X-0.170000X0.140000X-0.170000X0.140000X0.170000X-0.140000X0.170000X0*%
%ADD22R,0.400000X1.350000*%
%ADD23R,1.500000X1.900000*%
%ADD24RoundRect,0.140000X-0.170000X0.140000X-0.170000X-0.140000X0.170000X-0.140000X0.170000X0.140000X0*%
%ADD25RoundRect,0.140000X0.170000X-0.140000X0.170000X0.140000X-0.170000X0.140000X-0.170000X-0.140000X0*%
%ADD26R,0.900000X1.200000*%
%ADD27RoundRect,0.150000X0.150000X-0.512500X0.150000X0.512500X-0.150000X0.512500X-0.150000X-0.512500X0*%
%ADD28R,1.800000X1.100000*%
%ADD29RoundRect,0.218750X-0.218750X-0.256250X0.218750X-0.256250X0.218750X0.256250X-0.218750X0.256250X0*%
%ADD30RoundRect,0.150000X0.650000X0.150000X-0.650000X0.150000X-0.650000X-0.150000X0.650000X-0.150000X0*%
%ADD31C,0.127000*%
%ADD32C,0.154000*%
%ADD33RoundRect,0.050000X0.387500X0.050000X-0.387500X0.050000X-0.387500X-0.050000X0.387500X-0.050000X0*%
%ADD34RoundRect,0.050000X0.050000X0.387500X-0.050000X0.387500X-0.050000X-0.387500X0.050000X-0.387500X0*%
%ADD35R,1.350000X0.400000*%
%ADD36R,1.900000X1.500000*%
G04 APERTURE END LIST*
D10*
X139645000Y-99480000D02*
X138745000Y-99480000D01*
X138745000Y-99480000D02*
X138745000Y-98530000D01*
X138745000Y-98530000D02*
X139645000Y-98530000D01*
X139645000Y-98530000D02*
X139645000Y-99480000D01*
G36*
X139645000Y-99480000D02*
G01*
X138745000Y-99480000D01*
X138745000Y-98530000D01*
X139645000Y-98530000D01*
X139645000Y-99480000D01*
G37*
X138295000Y-100830000D02*
X137395000Y-100830000D01*
X137395000Y-100830000D02*
X137395000Y-99880000D01*
X137395000Y-99880000D02*
X138295000Y-99880000D01*
X138295000Y-99880000D02*
X138295000Y-100830000D01*
G36*
X138295000Y-100830000D02*
G01*
X137395000Y-100830000D01*
X137395000Y-99880000D01*
X138295000Y-99880000D01*
X138295000Y-100830000D01*
G37*
X139645000Y-100830000D02*
X138745000Y-100830000D01*
X138745000Y-100830000D02*
X138745000Y-99880000D01*
X138745000Y-99880000D02*
X139645000Y-99880000D01*
X139645000Y-99880000D02*
X139645000Y-100830000D01*
G36*
X139645000Y-100830000D02*
G01*
X138745000Y-100830000D01*
X138745000Y-99880000D01*
X139645000Y-99880000D01*
X139645000Y-100830000D01*
G37*
X138295000Y-99480000D02*
X137395000Y-99480000D01*
X137395000Y-99480000D02*
X137395000Y-98530000D01*
X137395000Y-98530000D02*
X138295000Y-98530000D01*
X138295000Y-98530000D02*
X138295000Y-99480000D01*
G36*
X138295000Y-99480000D02*
G01*
X137395000Y-99480000D01*
X137395000Y-98530000D01*
X138295000Y-98530000D01*
X138295000Y-99480000D01*
G37*
D11*
X132875000Y-106500000D03*
X134525000Y-106500000D03*
X132875000Y-108000000D03*
X134525000Y-108000000D03*
D12*
X148630000Y-110280000D03*
X147610000Y-110280000D03*
X144130000Y-101180000D03*
X143110000Y-101180000D03*
D13*
X156813850Y-110345298D03*
X156813850Y-111365298D03*
X159763850Y-110345298D03*
X159763850Y-111365298D03*
D14*
X133800000Y-103220000D03*
X132840000Y-103220000D03*
D12*
X148630000Y-108280000D03*
X147610000Y-108280000D03*
D13*
X143020000Y-104470000D03*
X143020000Y-105490000D03*
D15*
X121120000Y-114390000D03*
X121120000Y-113370000D03*
D16*
X132810000Y-96280000D03*
X133830000Y-96280000D03*
D13*
X142110000Y-94080000D03*
X142110000Y-95100000D03*
D17*
X117570000Y-115880000D03*
X114870000Y-115880000D03*
D14*
X133800000Y-98280000D03*
X132840000Y-98280000D03*
D13*
X140110000Y-94080000D03*
X140110000Y-95100000D03*
D18*
X139810000Y-90990000D03*
X137610000Y-90990000D03*
X137610000Y-92590000D03*
X139810000Y-92590000D03*
D19*
X120420000Y-104930000D03*
X118120000Y-104930000D03*
D20*
X118120000Y-111230000D03*
D19*
X115820000Y-104930000D03*
D21*
X157078500Y-105920000D03*
X158038500Y-105920000D03*
D22*
X121920000Y-117717500D03*
X122570000Y-117717500D03*
X123220000Y-117717500D03*
X123870000Y-117717500D03*
X124520000Y-117717500D03*
D23*
X122220000Y-120417500D03*
X124220000Y-120417500D03*
D24*
X155451500Y-108202000D03*
X155451500Y-109162000D03*
D16*
X136410000Y-107280000D03*
X137430000Y-107280000D03*
D12*
X146030000Y-97680000D03*
X145010000Y-97680000D03*
D25*
X132820000Y-105100000D03*
X132820000Y-104140000D03*
D26*
X110670000Y-95980000D03*
X113970000Y-95980000D03*
D12*
X155930000Y-103910000D03*
X154910000Y-103910000D03*
D16*
X130910000Y-95780000D03*
X131930000Y-95780000D03*
D13*
X155863850Y-110345298D03*
X155863850Y-111365298D03*
D15*
X139120000Y-95090000D03*
X139120000Y-94070000D03*
D16*
X132810000Y-100280000D03*
X133830000Y-100280000D03*
X130910000Y-100780000D03*
X131930000Y-100780000D03*
D13*
X158763850Y-110345298D03*
X158763850Y-111365298D03*
D16*
X130910000Y-98780000D03*
X131930000Y-98780000D03*
D27*
X115307500Y-102480000D03*
X116257500Y-102480000D03*
X117207500Y-102480000D03*
X117207500Y-100205000D03*
X116257500Y-100205000D03*
X115307500Y-100205000D03*
D16*
X130910000Y-99780000D03*
X131930000Y-99780000D03*
D12*
X144130000Y-96180000D03*
X143110000Y-96180000D03*
D25*
X138120000Y-95060000D03*
X138120000Y-94100000D03*
D12*
X148630000Y-109280000D03*
X147610000Y-109280000D03*
D16*
X145010000Y-101680000D03*
X146030000Y-101680000D03*
D25*
X137120000Y-95060000D03*
X137120000Y-94100000D03*
D12*
X146030000Y-96680000D03*
X145010000Y-96680000D03*
D14*
X155900000Y-104880000D03*
X154940000Y-104880000D03*
D17*
X117570000Y-113680000D03*
X114870000Y-113680000D03*
D24*
X139020000Y-104300000D03*
X139020000Y-105260000D03*
D17*
X117570000Y-118080000D03*
X114870000Y-118080000D03*
D16*
X158953850Y-105185298D03*
X159973850Y-105185298D03*
X130910000Y-96780000D03*
X131930000Y-96780000D03*
D13*
X143110000Y-94080000D03*
X143110000Y-95100000D03*
D16*
X160853850Y-107185298D03*
X161873850Y-107185298D03*
D13*
X141110000Y-94080000D03*
X141110000Y-95100000D03*
D12*
X146030000Y-99680000D03*
X145010000Y-99680000D03*
D16*
X147610000Y-111280000D03*
X148630000Y-111280000D03*
X132810000Y-95280000D03*
X133830000Y-95280000D03*
X152210000Y-108480000D03*
X153230000Y-108480000D03*
D28*
X123020000Y-108130000D03*
X129220000Y-108130000D03*
X123020000Y-104430000D03*
X129220000Y-104430000D03*
D24*
X138020000Y-104300000D03*
X138020000Y-105260000D03*
D16*
X146900000Y-103180000D03*
X147920000Y-103180000D03*
X136410000Y-108280000D03*
X137430000Y-108280000D03*
X160853850Y-105185298D03*
X161873850Y-105185298D03*
X160853850Y-109185298D03*
X161873850Y-109185298D03*
D17*
X113370000Y-107280000D03*
X110670000Y-107280000D03*
D14*
X137400000Y-110780000D03*
X136440000Y-110780000D03*
D16*
X152210000Y-109480000D03*
X153230000Y-109480000D03*
D12*
X146030000Y-100680000D03*
X145010000Y-100680000D03*
D16*
X136410000Y-109580000D03*
X137430000Y-109580000D03*
D28*
X129220000Y-110230000D03*
X123020000Y-110230000D03*
X129220000Y-113930000D03*
X123020000Y-113930000D03*
D29*
X132925000Y-109800000D03*
X134500000Y-109800000D03*
D16*
X130910000Y-101780000D03*
X131930000Y-101780000D03*
D15*
X152763850Y-104295298D03*
X152763850Y-103275298D03*
D12*
X144130000Y-102180000D03*
X143110000Y-102180000D03*
D13*
X144020000Y-104470000D03*
X144020000Y-105490000D03*
D16*
X132810000Y-101280000D03*
X133830000Y-101280000D03*
X160853850Y-106185298D03*
X161873850Y-106185298D03*
D24*
X141310000Y-91310000D03*
X141310000Y-92270000D03*
D16*
X152210000Y-110480000D03*
X153230000Y-110480000D03*
D30*
X146120000Y-110785000D03*
X146120000Y-109515000D03*
X146120000Y-108245000D03*
X146120000Y-106975000D03*
X138920000Y-106975000D03*
X138920000Y-108245000D03*
X138920000Y-109515000D03*
X138920000Y-110785000D03*
D31*
X156410000Y-106880000D03*
X156810000Y-106880000D03*
X157210000Y-106880000D03*
X157610000Y-106880000D03*
X158010000Y-106880000D03*
X156410000Y-107280000D03*
X156810000Y-107280000D03*
D32*
X157210000Y-107280000D03*
X157610000Y-107280000D03*
D31*
X158010000Y-107280000D03*
X156410000Y-107680000D03*
X156810000Y-107680000D03*
D32*
X157210000Y-107680000D03*
X157610000Y-107680000D03*
D31*
X158010000Y-107680000D03*
X156410000Y-108080000D03*
D32*
X156810000Y-108080000D03*
X157210000Y-108080000D03*
D31*
X157610000Y-108080000D03*
X158010000Y-108080000D03*
X156410000Y-108480000D03*
D32*
X156810000Y-108480000D03*
X157210000Y-108480000D03*
D31*
X157610000Y-108480000D03*
X158010000Y-108480000D03*
X156410000Y-108880000D03*
X156810000Y-108880000D03*
X157210000Y-108880000D03*
X157610000Y-108880000D03*
X158010000Y-108880000D03*
D24*
X135620000Y-104300000D03*
X135620000Y-105260000D03*
D16*
X132810000Y-102280000D03*
X133830000Y-102280000D03*
D12*
X144130000Y-100180000D03*
X143110000Y-100180000D03*
X146020000Y-103180000D03*
X145000000Y-103180000D03*
D15*
X153263850Y-106195298D03*
X153263850Y-105175298D03*
D16*
X132810000Y-97280000D03*
X133830000Y-97280000D03*
X132810000Y-99280000D03*
X133830000Y-99280000D03*
D33*
X141957500Y-102280000D03*
X141957500Y-101880000D03*
X141957500Y-101480000D03*
X141957500Y-101080000D03*
X141957500Y-100680000D03*
X141957500Y-100280000D03*
X141957500Y-99880000D03*
X141957500Y-99480000D03*
X141957500Y-99080000D03*
X141957500Y-98680000D03*
X141957500Y-98280000D03*
X141957500Y-97880000D03*
X141957500Y-97480000D03*
X141957500Y-97080000D03*
D34*
X141120000Y-96242500D03*
X140720000Y-96242500D03*
X140320000Y-96242500D03*
X139920000Y-96242500D03*
X139520000Y-96242500D03*
X139120000Y-96242500D03*
X138720000Y-96242500D03*
X138320000Y-96242500D03*
X137920000Y-96242500D03*
X137520000Y-96242500D03*
X137120000Y-96242500D03*
X136720000Y-96242500D03*
X136320000Y-96242500D03*
X135920000Y-96242500D03*
D33*
X135082500Y-97080000D03*
X135082500Y-97480000D03*
X135082500Y-97880000D03*
X135082500Y-98280000D03*
X135082500Y-98680000D03*
X135082500Y-99080000D03*
X135082500Y-99480000D03*
X135082500Y-99880000D03*
X135082500Y-100280000D03*
X135082500Y-100680000D03*
X135082500Y-101080000D03*
X135082500Y-101480000D03*
X135082500Y-101880000D03*
X135082500Y-102280000D03*
D34*
X135920000Y-103117500D03*
X136320000Y-103117500D03*
X136720000Y-103117500D03*
X137120000Y-103117500D03*
X137520000Y-103117500D03*
X137920000Y-103117500D03*
X138320000Y-103117500D03*
X138720000Y-103117500D03*
X139120000Y-103117500D03*
X139520000Y-103117500D03*
X139920000Y-103117500D03*
X140320000Y-103117500D03*
X140720000Y-103117500D03*
X141120000Y-103117500D03*
D15*
X136120000Y-94600000D03*
X136120000Y-93580000D03*
D13*
X154863850Y-110345298D03*
X154863850Y-111365298D03*
D16*
X160853850Y-108185298D03*
X161873850Y-108185298D03*
D13*
X157763850Y-110345298D03*
X157763850Y-111365298D03*
D12*
X144130000Y-97180000D03*
X143110000Y-97180000D03*
D13*
X140020000Y-104470000D03*
X140020000Y-105490000D03*
X145020000Y-104470000D03*
X145020000Y-105490000D03*
D24*
X136110000Y-91310000D03*
X136110000Y-92270000D03*
D21*
X143140000Y-98180000D03*
X144100000Y-98180000D03*
D12*
X134222500Y-111100000D03*
X133202500Y-111100000D03*
D16*
X130910000Y-97780000D03*
X131930000Y-97780000D03*
D21*
X143140000Y-103180000D03*
X144100000Y-103180000D03*
D15*
X152263850Y-106195298D03*
X152263850Y-105175298D03*
D16*
X158953850Y-104185298D03*
X159973850Y-104185298D03*
D12*
X144130000Y-99180000D03*
X143110000Y-99180000D03*
X159953850Y-109185298D03*
X158933850Y-109185298D03*
D25*
X158970000Y-108180000D03*
X158970000Y-107220000D03*
D14*
X155350500Y-107304000D03*
X154390500Y-107304000D03*
D13*
X142020000Y-104470000D03*
X142020000Y-105490000D03*
D12*
X146030000Y-98680000D03*
X145010000Y-98680000D03*
D15*
X133820000Y-105130000D03*
X133820000Y-104110000D03*
D14*
X155920000Y-105830000D03*
X154960000Y-105830000D03*
D35*
X113320000Y-100372500D03*
X113320000Y-101022500D03*
X113320000Y-101672500D03*
X113320000Y-102322500D03*
X113320000Y-102972500D03*
D36*
X110620000Y-102672500D03*
X110620000Y-100672500D03*
D24*
X136620000Y-104300000D03*
X136620000Y-105260000D03*
D13*
X141020000Y-104470000D03*
X141020000Y-105490000D03*
D16*
X152210000Y-107480000D03*
X153230000Y-107480000D03*
M02*
