%TF.GenerationSoftware,KiCad,Pcbnew,(6.0.7)*%
%TF.CreationDate,2022-09-05T12:57:27-07:00*%
%TF.ProjectId,ice2040,69636532-3034-4302-9e6b-696361645f70,1*%
%TF.SameCoordinates,Original*%
%TF.FileFunction,Drillmap*%
%TF.FilePolarity,Positive*%
%FSLAX45Y45*%
G04 Gerber Fmt 4.5, Leading zero omitted, Abs format (unit mm)*
G04 Created by KiCad (PCBNEW (6.0.7)) date 2022-09-05 12:57:27*
%MOMM*%
%LPD*%
G01*
G04 APERTURE LIST*
%ADD10C,0.100000*%
%ADD11C,0.200000*%
%ADD12C,0.020000*%
%ADD13C,0.030000*%
%ADD14C,0.060000*%
%ADD15C,0.085000*%
G04 APERTURE END LIST*
D10*
X10922000Y-8128000D02*
X17272000Y-8128000D01*
X17272000Y-8128000D02*
X17272000Y-12192000D01*
X17272000Y-12192000D02*
X10922000Y-12192000D01*
X10922000Y-12192000D02*
X10922000Y-8128000D01*
D11*
D12*
X11571600Y-10339200D02*
X11591600Y-10359200D01*
X11591600Y-10339200D02*
X11571600Y-10359200D01*
X11602000Y-9688000D02*
X11622000Y-9708000D01*
X11622000Y-9688000D02*
X11602000Y-9708000D01*
X11652500Y-10338700D02*
X11672500Y-10358700D01*
X11672500Y-10338700D02*
X11652500Y-10358700D01*
X11742000Y-9208000D02*
X11762000Y-9228000D01*
X11762000Y-9208000D02*
X11742000Y-9228000D01*
X11862000Y-9988000D02*
X11882000Y-10008000D01*
X11882000Y-9988000D02*
X11862000Y-10008000D01*
X12142000Y-9068000D02*
X12162000Y-9088000D01*
X12162000Y-9068000D02*
X12142000Y-9088000D01*
X12382000Y-9588000D02*
X12402000Y-9608000D01*
X12402000Y-9588000D02*
X12382000Y-9608000D01*
X12782000Y-9818000D02*
X12802000Y-9838000D01*
X12802000Y-9818000D02*
X12782000Y-9838000D01*
X13228414Y-9818002D02*
X13248414Y-9838002D01*
X13248414Y-9818002D02*
X13228414Y-9838002D01*
X13426000Y-10398000D02*
X13446000Y-10418000D01*
X13446000Y-10398000D02*
X13426000Y-10418000D01*
X13511000Y-10476000D02*
X13531000Y-10496000D01*
X13531000Y-10476000D02*
X13511000Y-10496000D01*
X13582000Y-9748000D02*
X13602000Y-9768000D01*
X13602000Y-9748000D02*
X13582000Y-9768000D01*
X13600000Y-9066000D02*
X13620000Y-9086000D01*
X13620000Y-9066000D02*
X13600000Y-9086000D01*
X13611523Y-10472788D02*
X13631523Y-10492788D01*
X13631523Y-10472788D02*
X13611523Y-10492788D01*
X13662000Y-9682770D02*
X13682000Y-9702770D01*
X13682000Y-9682770D02*
X13662000Y-9702770D01*
X13668000Y-9357000D02*
X13688000Y-9377000D01*
X13688000Y-9357000D02*
X13668000Y-9377000D01*
X13735000Y-9357000D02*
X13755000Y-9377000D01*
X13755000Y-9357000D02*
X13735000Y-9377000D01*
X13762000Y-9440000D02*
X13782000Y-9460000D01*
X13782000Y-9440000D02*
X13762000Y-9460000D01*
X13801000Y-9347000D02*
X13821000Y-9367000D01*
X13821000Y-9347000D02*
X13801000Y-9367000D01*
X13831000Y-10474000D02*
X13851000Y-10494000D01*
X13851000Y-10474000D02*
X13831000Y-10494000D01*
X13841000Y-9454000D02*
X13861000Y-9474000D01*
X13861000Y-9454000D02*
X13841000Y-9474000D01*
X13930000Y-10477000D02*
X13950000Y-10497000D01*
X13950000Y-10477000D02*
X13930000Y-10497000D01*
X14178000Y-9214000D02*
X14198000Y-9234000D01*
X14198000Y-9214000D02*
X14178000Y-9234000D01*
X14382000Y-10354770D02*
X14402000Y-10374770D01*
X14402000Y-10354770D02*
X14382000Y-10374770D01*
X14445000Y-9808000D02*
X14465000Y-9828000D01*
X14465000Y-9808000D02*
X14445000Y-9828000D01*
X14492000Y-10218000D02*
X14512000Y-10238000D01*
X14512000Y-10218000D02*
X14492000Y-10238000D01*
X14639000Y-10157000D02*
X14659000Y-10177000D01*
X14659000Y-10157000D02*
X14639000Y-10177000D01*
X14807000Y-10864000D02*
X14827000Y-10884000D01*
X14827000Y-10864000D02*
X14807000Y-10884000D01*
X14903000Y-11118000D02*
X14923000Y-11138000D01*
X14923000Y-11118000D02*
X14903000Y-11138000D01*
X14912000Y-10118000D02*
X14932000Y-10138000D01*
X14932000Y-10118000D02*
X14912000Y-10138000D01*
X14992000Y-9488000D02*
X15012000Y-9508000D01*
X15012000Y-9488000D02*
X14992000Y-9508000D01*
X15032000Y-9998000D02*
X15052000Y-10018000D01*
X15052000Y-9998000D02*
X15032000Y-10018000D01*
X15032000Y-11098000D02*
X15052000Y-11118000D01*
X15052000Y-11098000D02*
X15032000Y-11118000D01*
X15372000Y-9558000D02*
X15392000Y-9578000D01*
X15392000Y-9558000D02*
X15372000Y-9578000D01*
X15382000Y-10718000D02*
X15402000Y-10738000D01*
X15402000Y-10718000D02*
X15382000Y-10738000D01*
X15402000Y-11048000D02*
X15422000Y-11068000D01*
X15422000Y-11048000D02*
X15402000Y-11068000D01*
X15438385Y-10573530D02*
X15458385Y-10593530D01*
X15458385Y-10573530D02*
X15438385Y-10593530D01*
X15441385Y-10477530D02*
X15461385Y-10497530D01*
X15461385Y-10477530D02*
X15441385Y-10497530D01*
X15482000Y-10822215D02*
X15502000Y-10842215D01*
X15502000Y-10822215D02*
X15482000Y-10842215D01*
X15482000Y-10908000D02*
X15502000Y-10928000D01*
X15502000Y-10908000D02*
X15482000Y-10928000D01*
X15590451Y-10875165D02*
X15610451Y-10895165D01*
X15610451Y-10875165D02*
X15590451Y-10895165D01*
X15674679Y-10924560D02*
X15694679Y-10944560D01*
X15694679Y-10924560D02*
X15674679Y-10944560D01*
X15702000Y-10528000D02*
X15722000Y-10548000D01*
X15722000Y-10528000D02*
X15702000Y-10548000D01*
X15722000Y-9158000D02*
X15742000Y-9178000D01*
X15742000Y-9158000D02*
X15722000Y-9178000D01*
X15745150Y-10633400D02*
X15765150Y-10653400D01*
X15765150Y-10633400D02*
X15745150Y-10653400D01*
X15792000Y-10528000D02*
X15812000Y-10548000D01*
X15812000Y-10528000D02*
X15792000Y-10548000D01*
X15837023Y-10724793D02*
X15857023Y-10744793D01*
X15857023Y-10724793D02*
X15837023Y-10744793D01*
X15942000Y-10718000D02*
X15962000Y-10738000D01*
X15962000Y-10718000D02*
X15942000Y-10738000D01*
X15942000Y-10808000D02*
X15962000Y-10828000D01*
X15962000Y-10808000D02*
X15942000Y-10828000D01*
X16342000Y-9278000D02*
X16362000Y-9298000D01*
X16362000Y-9278000D02*
X16342000Y-9298000D01*
X16702000Y-10848000D02*
X16722000Y-10868000D01*
X16722000Y-10848000D02*
X16702000Y-10868000D01*
X17152000Y-10838000D02*
X17172000Y-10858000D01*
X17172000Y-10838000D02*
X17152000Y-10858000D01*
X13727000Y-9833000D02*
G75*
G03*
X13727000Y-9833000I-10000J0D01*
G01*
X13727000Y-9968000D02*
G75*
G03*
X13727000Y-9968000I-10000J0D01*
G01*
X13727000Y-10103000D02*
G75*
G03*
X13727000Y-10103000I-10000J0D01*
G01*
X13862000Y-9833000D02*
G75*
G03*
X13862000Y-9833000I-10000J0D01*
G01*
X13862000Y-9968000D02*
G75*
G03*
X13862000Y-9968000I-10000J0D01*
G01*
X13862000Y-10103000D02*
G75*
G03*
X13862000Y-10103000I-10000J0D01*
G01*
X13997000Y-9833000D02*
G75*
G03*
X13997000Y-9833000I-10000J0D01*
G01*
X13997000Y-9968000D02*
G75*
G03*
X13997000Y-9968000I-10000J0D01*
G01*
X13997000Y-10103000D02*
G75*
G03*
X13997000Y-10103000I-10000J0D01*
G01*
D13*
X11049000Y-11605500D02*
X11049000Y-11635500D01*
X11034000Y-11620500D02*
X11064000Y-11620500D01*
X11049000Y-12050000D02*
X11049000Y-12080000D01*
X11034000Y-12065000D02*
X11064000Y-12065000D01*
X11067000Y-10809000D02*
X11067000Y-10839000D01*
X11052000Y-10824000D02*
X11082000Y-10824000D01*
X11165000Y-10711000D02*
X11165000Y-10741000D01*
X11150000Y-10726000D02*
X11180000Y-10726000D01*
X11182000Y-9373000D02*
X11182000Y-9403000D01*
X11167000Y-9388000D02*
X11197000Y-9388000D01*
X11239500Y-11605500D02*
X11239500Y-11635500D01*
X11224500Y-11620500D02*
X11254500Y-11620500D01*
X11239500Y-12050000D02*
X11239500Y-12080000D01*
X11224500Y-12065000D02*
X11254500Y-12065000D01*
X11389000Y-11573000D02*
X11389000Y-11603000D01*
X11374000Y-11588000D02*
X11404000Y-11588000D01*
X11389000Y-11793000D02*
X11389000Y-11823000D01*
X11374000Y-11808000D02*
X11404000Y-11808000D01*
X11390000Y-11354000D02*
X11390000Y-11384000D01*
X11375000Y-11369000D02*
X11405000Y-11369000D01*
X11432000Y-10973000D02*
X11432000Y-11003000D01*
X11417000Y-10988000D02*
X11447000Y-10988000D01*
X11433000Y-10280000D02*
X11433000Y-10310000D01*
X11418000Y-10295000D02*
X11448000Y-10295000D01*
X11484000Y-11477000D02*
X11484000Y-11507000D01*
X11469000Y-11492000D02*
X11499000Y-11492000D01*
X11484000Y-11697000D02*
X11484000Y-11727000D01*
X11469000Y-11712000D02*
X11499000Y-11712000D01*
X11486000Y-11256000D02*
X11486000Y-11286000D01*
X11471000Y-11271000D02*
X11501000Y-11271000D01*
X11486000Y-11889000D02*
X11486000Y-11919000D01*
X11471000Y-11904000D02*
X11501000Y-11904000D01*
X11593000Y-11108000D02*
X11593000Y-11138000D01*
X11578000Y-11123000D02*
X11608000Y-11123000D01*
X11622000Y-10793000D02*
X11622000Y-10823000D01*
X11607000Y-10808000D02*
X11637000Y-10808000D01*
X11632000Y-9883000D02*
X11632000Y-9913000D01*
X11617000Y-9898000D02*
X11647000Y-9898000D01*
X11659000Y-11354000D02*
X11659000Y-11384000D01*
X11644000Y-11369000D02*
X11674000Y-11369000D01*
X11659000Y-11573000D02*
X11659000Y-11603000D01*
X11644000Y-11588000D02*
X11674000Y-11588000D01*
X11659000Y-11791000D02*
X11659000Y-11821000D01*
X11644000Y-11806000D02*
X11674000Y-11806000D01*
X11709000Y-10479000D02*
X11709000Y-10509000D01*
X11694000Y-10494000D02*
X11724000Y-10494000D01*
X11758000Y-11891000D02*
X11758000Y-11921000D01*
X11743000Y-11906000D02*
X11773000Y-11906000D01*
X11811000Y-10349000D02*
X11811000Y-10379000D01*
X11796000Y-10364000D02*
X11826000Y-10364000D01*
X11811000Y-10610000D02*
X11811000Y-10640000D01*
X11796000Y-10625000D02*
X11826000Y-10625000D01*
X11811000Y-11237000D02*
X11811000Y-11267000D01*
X11796000Y-11252000D02*
X11826000Y-11252000D01*
X11812000Y-10981000D02*
X11812000Y-11011000D01*
X11797000Y-10996000D02*
X11827000Y-10996000D01*
X11854000Y-11573000D02*
X11854000Y-11603000D01*
X11839000Y-11588000D02*
X11869000Y-11588000D01*
X11855000Y-11352000D02*
X11855000Y-11382000D01*
X11840000Y-11367000D02*
X11870000Y-11367000D01*
X11855000Y-11789000D02*
X11855000Y-11819000D01*
X11840000Y-11804000D02*
X11870000Y-11804000D01*
X11932400Y-10474900D02*
X11932400Y-10504900D01*
X11917400Y-10489900D02*
X11947400Y-10489900D01*
X11952000Y-10793000D02*
X11952000Y-10823000D01*
X11937000Y-10808000D02*
X11967000Y-10808000D01*
X12030000Y-11108000D02*
X12030000Y-11138000D01*
X12015000Y-11123000D02*
X12045000Y-11123000D01*
X12039700Y-10337900D02*
X12039700Y-10367900D01*
X12024700Y-10352900D02*
X12054700Y-10352900D01*
X12043000Y-10621600D02*
X12043000Y-10651600D01*
X12028000Y-10636600D02*
X12058000Y-10636600D01*
X12043000Y-11321000D02*
X12043000Y-11351000D01*
X12028000Y-11336000D02*
X12058000Y-11336000D01*
X12156900Y-10477700D02*
X12156900Y-10507700D01*
X12141900Y-10492700D02*
X12171900Y-10492700D01*
X12182000Y-11563000D02*
X12182000Y-11593000D01*
X12167000Y-11578000D02*
X12197000Y-11578000D01*
X12300000Y-10907000D02*
X12300000Y-10937000D01*
X12285000Y-10922000D02*
X12315000Y-10922000D01*
X12322000Y-9033000D02*
X12322000Y-9063000D01*
X12307000Y-9048000D02*
X12337000Y-9048000D01*
X12452000Y-8833000D02*
X12452000Y-8863000D01*
X12437000Y-8848000D02*
X12467000Y-8848000D01*
X12452000Y-11652000D02*
X12452000Y-11682000D01*
X12437000Y-11667000D02*
X12467000Y-11667000D01*
X12454000Y-11861000D02*
X12454000Y-11891000D01*
X12439000Y-11876000D02*
X12469000Y-11876000D01*
X12612000Y-10633000D02*
X12612000Y-10663000D01*
X12597000Y-10648000D02*
X12627000Y-10648000D01*
X12612000Y-10903000D02*
X12612000Y-10933000D01*
X12597000Y-10918000D02*
X12627000Y-10918000D01*
X12612000Y-11173000D02*
X12612000Y-11203000D01*
X12597000Y-11188000D02*
X12627000Y-11188000D01*
X12702000Y-8273000D02*
X12702000Y-8303000D01*
X12687000Y-8288000D02*
X12717000Y-8288000D01*
X12702000Y-8613000D02*
X12702000Y-8643000D01*
X12687000Y-8628000D02*
X12717000Y-8628000D01*
X12921000Y-10907000D02*
X12921000Y-10937000D01*
X12906000Y-10922000D02*
X12936000Y-10922000D01*
X13052000Y-11373000D02*
X13052000Y-11403000D01*
X13037000Y-11388000D02*
X13067000Y-11388000D01*
X13172000Y-11193000D02*
X13172000Y-11223000D01*
X13157000Y-11208000D02*
X13187000Y-11208000D01*
X13202000Y-8603000D02*
X13202000Y-8633000D01*
X13187000Y-8618000D02*
X13217000Y-8618000D01*
X13211250Y-10965000D02*
X13211250Y-10995000D01*
X13196250Y-10980000D02*
X13226250Y-10980000D01*
X13212000Y-11823000D02*
X13212000Y-11853000D01*
X13197000Y-11838000D02*
X13227000Y-11838000D01*
X13219000Y-10402000D02*
X13219000Y-10432000D01*
X13204000Y-10417000D02*
X13234000Y-10417000D01*
X13222000Y-8243000D02*
X13222000Y-8273000D01*
X13207000Y-8258000D02*
X13237000Y-8258000D01*
X13224000Y-10312000D02*
X13224000Y-10342000D01*
X13209000Y-10327000D02*
X13239000Y-10327000D01*
X13261250Y-11095000D02*
X13261250Y-11125000D01*
X13246250Y-11110000D02*
X13276250Y-11110000D01*
X13272000Y-11343000D02*
X13272000Y-11373000D01*
X13257000Y-11358000D02*
X13287000Y-11358000D01*
X13292000Y-11533000D02*
X13292000Y-11563000D01*
X13277000Y-11548000D02*
X13307000Y-11548000D01*
X13370000Y-10707000D02*
X13370000Y-10737000D01*
X13355000Y-10722000D02*
X13385000Y-10722000D01*
X13442000Y-10281000D02*
X13442000Y-10311000D01*
X13427000Y-10296000D02*
X13457000Y-10296000D01*
X13541000Y-10346000D02*
X13541000Y-10376000D01*
X13526000Y-10361000D02*
X13556000Y-10361000D01*
X13543174Y-10250410D02*
X13543174Y-10280410D01*
X13528174Y-10265410D02*
X13558174Y-10265410D01*
X13560000Y-10568000D02*
X13560000Y-10598000D01*
X13545000Y-10583000D02*
X13575000Y-10583000D01*
X13581000Y-9853000D02*
X13581000Y-9883000D01*
X13566000Y-9868000D02*
X13596000Y-9868000D01*
X13581000Y-10829000D02*
X13581000Y-10859000D01*
X13566000Y-10844000D02*
X13596000Y-10844000D01*
X13590000Y-10755000D02*
X13590000Y-10785000D01*
X13575000Y-10770000D02*
X13605000Y-10770000D01*
X13596000Y-11019000D02*
X13596000Y-11049000D01*
X13581000Y-11034000D02*
X13611000Y-11034000D01*
X13630214Y-10210049D02*
X13630214Y-10240049D01*
X13615214Y-10225049D02*
X13645214Y-10225049D01*
X13653565Y-10565110D02*
X13653565Y-10595110D01*
X13638565Y-10580110D02*
X13668565Y-10580110D01*
X13697000Y-11006000D02*
X13697000Y-11036000D01*
X13682000Y-11021000D02*
X13712000Y-11021000D01*
X13714000Y-10184000D02*
X13714000Y-10214000D01*
X13699000Y-10199000D02*
X13729000Y-10199000D01*
X13802000Y-10568000D02*
X13802000Y-10598000D01*
X13787000Y-10583000D02*
X13817000Y-10583000D01*
X13809429Y-10233571D02*
X13809429Y-10263571D01*
X13794429Y-10248571D02*
X13824429Y-10248571D01*
X13846000Y-9689000D02*
X13846000Y-9719000D01*
X13831000Y-9704000D02*
X13861000Y-9704000D01*
X13903000Y-10569000D02*
X13903000Y-10599000D01*
X13888000Y-10584000D02*
X13918000Y-10584000D01*
X13952000Y-9682000D02*
X13952000Y-9712000D01*
X13937000Y-9697000D02*
X13967000Y-9697000D01*
X14004000Y-11062000D02*
X14004000Y-11092000D01*
X13989000Y-11077000D02*
X14019000Y-11077000D01*
X14111000Y-10182000D02*
X14111000Y-10212000D01*
X14096000Y-10197000D02*
X14126000Y-10197000D01*
X14112000Y-10743000D02*
X14112000Y-10773000D01*
X14097000Y-10758000D02*
X14127000Y-10758000D01*
X14112000Y-10963000D02*
X14112000Y-10993000D01*
X14097000Y-10978000D02*
X14127000Y-10978000D01*
X14121000Y-9854000D02*
X14121000Y-9884000D01*
X14106000Y-9869000D02*
X14136000Y-9869000D01*
X14252016Y-10265695D02*
X14252016Y-10295695D01*
X14237016Y-10280695D02*
X14267016Y-10280695D01*
X14322000Y-10743000D02*
X14322000Y-10773000D01*
X14307000Y-10758000D02*
X14337000Y-10758000D01*
X14322000Y-10963000D02*
X14322000Y-10993000D01*
X14307000Y-10978000D02*
X14337000Y-10978000D01*
X14596000Y-10615000D02*
X14596000Y-10645000D01*
X14581000Y-10630000D02*
X14611000Y-10630000D01*
X14707000Y-10731000D02*
X14707000Y-10761000D01*
X14692000Y-10746000D02*
X14722000Y-10746000D01*
X14821000Y-10232000D02*
X14821000Y-10262000D01*
X14806000Y-10247000D02*
X14836000Y-10247000D01*
X14902000Y-11943000D02*
X14902000Y-11973000D01*
X14887000Y-11958000D02*
X14917000Y-11958000D01*
X14983000Y-11571000D02*
X14983000Y-11601000D01*
X14968000Y-11586000D02*
X14998000Y-11586000D01*
X15072000Y-11863000D02*
X15072000Y-11893000D01*
X15057000Y-11878000D02*
X15087000Y-11878000D01*
X15172000Y-9283000D02*
X15172000Y-9313000D01*
X15157000Y-9298000D02*
X15187000Y-9298000D01*
X15413501Y-10783963D02*
X15413501Y-10813963D01*
X15398501Y-10798963D02*
X15428501Y-10798963D01*
X15432000Y-10383000D02*
X15432000Y-10413000D01*
X15417000Y-10398000D02*
X15447000Y-10398000D01*
X15512000Y-8583000D02*
X15512000Y-8613000D01*
X15497000Y-8598000D02*
X15527000Y-8598000D01*
X15532000Y-11953000D02*
X15532000Y-11983000D01*
X15517000Y-11968000D02*
X15547000Y-11968000D01*
X15582000Y-11613000D02*
X15582000Y-11643000D01*
X15567000Y-11628000D02*
X15597000Y-11628000D01*
X16022000Y-9143000D02*
X16022000Y-9173000D01*
X16007000Y-9158000D02*
X16037000Y-9158000D01*
X16112000Y-11003000D02*
X16112000Y-11033000D01*
X16097000Y-11018000D02*
X16127000Y-11018000D01*
X16122000Y-11783000D02*
X16122000Y-11813000D01*
X16107000Y-11798000D02*
X16137000Y-11798000D01*
X16372000Y-9933000D02*
X16372000Y-9963000D01*
X16357000Y-9948000D02*
X16387000Y-9948000D01*
X16502000Y-10173000D02*
X16502000Y-10203000D01*
X16487000Y-10188000D02*
X16517000Y-10188000D01*
X16522000Y-9223000D02*
X16522000Y-9253000D01*
X16507000Y-9238000D02*
X16537000Y-9238000D01*
X16612000Y-9033000D02*
X16612000Y-9063000D01*
X16597000Y-9048000D02*
X16627000Y-9048000D01*
X16632000Y-9933000D02*
X16632000Y-9963000D01*
X16617000Y-9948000D02*
X16647000Y-9948000D01*
X16802000Y-11093000D02*
X16802000Y-11123000D01*
X16787000Y-11108000D02*
X16817000Y-11108000D01*
X16802000Y-11453000D02*
X16802000Y-11483000D01*
X16787000Y-11468000D02*
X16817000Y-11468000D01*
X16872000Y-9933000D02*
X16872000Y-9963000D01*
X16857000Y-9948000D02*
X16887000Y-9948000D01*
X16922000Y-9593000D02*
X16922000Y-9623000D01*
X16907000Y-9608000D02*
X16937000Y-9608000D01*
D14*
X11083213Y-9838463D02*
X11083213Y-9796037D01*
X11040787Y-9796037D01*
X11040787Y-9838463D01*
X11083213Y-9838463D01*
D11*
X11027000Y-9847250D02*
X11097000Y-9847250D01*
X11027000Y-9787250D02*
X11097000Y-9787250D01*
X11097000Y-9847250D02*
G75*
G03*
X11097000Y-9787250I0J30000D01*
G01*
X11027000Y-9787250D02*
G75*
G03*
X11027000Y-9847250I0J-30000D01*
G01*
D14*
X11083213Y-10538463D02*
X11083213Y-10496037D01*
X11040787Y-10496037D01*
X11040787Y-10538463D01*
X11083213Y-10538463D01*
D11*
X11097000Y-10487250D02*
X11027000Y-10487250D01*
X11097000Y-10547250D02*
X11027000Y-10547250D01*
X11027000Y-10487250D02*
G75*
G03*
X11027000Y-10547250I0J-30000D01*
G01*
X11097000Y-10547250D02*
G75*
G03*
X11097000Y-10487250I0J30000D01*
G01*
D14*
X11993213Y-12062963D02*
X11993213Y-12020537D01*
X11950787Y-12020537D01*
X11950787Y-12062963D01*
X11993213Y-12062963D01*
D11*
X12002000Y-12076750D02*
X12002000Y-12006750D01*
X11942000Y-12076750D02*
X11942000Y-12006750D01*
X12002000Y-12006750D02*
G75*
G03*
X11942000Y-12006750I-30000J0D01*
G01*
X11942000Y-12076750D02*
G75*
G03*
X12002000Y-12076750I30000J0D01*
G01*
D14*
X12693213Y-12062963D02*
X12693213Y-12020537D01*
X12650787Y-12020537D01*
X12650787Y-12062963D01*
X12693213Y-12062963D01*
D11*
X12642000Y-12006750D02*
X12642000Y-12076750D01*
X12702000Y-12006750D02*
X12702000Y-12076750D01*
X12642000Y-12076750D02*
G75*
G03*
X12702000Y-12076750I30000J0D01*
G01*
X12702000Y-12006750D02*
G75*
G03*
X12642000Y-12006750I-30000J0D01*
G01*
D15*
X11332000Y-9959750D02*
X11374500Y-9917250D01*
X11332000Y-9874750D01*
X11289500Y-9917250D01*
X11332000Y-9959750D01*
X11332000Y-10459750D02*
X11374500Y-10417250D01*
X11332000Y-10374750D01*
X11289500Y-10417250D01*
X11332000Y-10459750D01*
X12072000Y-11814250D02*
X12114500Y-11771750D01*
X12072000Y-11729250D01*
X12029500Y-11771750D01*
X12072000Y-11814250D01*
X12572000Y-11814250D02*
X12614500Y-11771750D01*
X12572000Y-11729250D01*
X12529500Y-11771750D01*
X12572000Y-11814250D01*
D10*
X11126000Y-8332500D02*
X11226000Y-8432500D01*
X11226000Y-8332500D02*
X11126000Y-8432500D01*
X11226000Y-8382500D02*
G75*
G03*
X11226000Y-8382500I-50000J0D01*
G01*
X11126000Y-8586500D02*
X11226000Y-8686500D01*
X11226000Y-8586500D02*
X11126000Y-8686500D01*
X11226000Y-8636500D02*
G75*
G03*
X11226000Y-8636500I-50000J0D01*
G01*
X11380000Y-8332500D02*
X11480000Y-8432500D01*
X11480000Y-8332500D02*
X11380000Y-8432500D01*
X11480000Y-8382500D02*
G75*
G03*
X11480000Y-8382500I-50000J0D01*
G01*
X11380000Y-8586500D02*
X11480000Y-8686500D01*
X11480000Y-8586500D02*
X11380000Y-8686500D01*
X11480000Y-8636500D02*
G75*
G03*
X11480000Y-8636500I-50000J0D01*
G01*
X11634000Y-8332500D02*
X11734000Y-8432500D01*
X11734000Y-8332500D02*
X11634000Y-8432500D01*
X11734000Y-8382500D02*
G75*
G03*
X11734000Y-8382500I-50000J0D01*
G01*
X11634000Y-8586500D02*
X11734000Y-8686500D01*
X11734000Y-8586500D02*
X11634000Y-8686500D01*
X11734000Y-8636500D02*
G75*
G03*
X11734000Y-8636500I-50000J0D01*
G01*
X11888000Y-8332500D02*
X11988000Y-8432500D01*
X11988000Y-8332500D02*
X11888000Y-8432500D01*
X11988000Y-8382500D02*
G75*
G03*
X11988000Y-8382500I-50000J0D01*
G01*
X11888000Y-8586500D02*
X11988000Y-8686500D01*
X11988000Y-8586500D02*
X11888000Y-8686500D01*
X11988000Y-8636500D02*
G75*
G03*
X11988000Y-8636500I-50000J0D01*
G01*
X12142000Y-8332500D02*
X12242000Y-8432500D01*
X12242000Y-8332500D02*
X12142000Y-8432500D01*
X12242000Y-8382500D02*
G75*
G03*
X12242000Y-8382500I-50000J0D01*
G01*
X12142000Y-8586500D02*
X12242000Y-8686500D01*
X12242000Y-8586500D02*
X12142000Y-8686500D01*
X12242000Y-8636500D02*
G75*
G03*
X12242000Y-8636500I-50000J0D01*
G01*
X12396000Y-8332500D02*
X12496000Y-8432500D01*
X12496000Y-8332500D02*
X12396000Y-8432500D01*
X12496000Y-8382500D02*
G75*
G03*
X12496000Y-8382500I-50000J0D01*
G01*
X12396000Y-8586500D02*
X12496000Y-8686500D01*
X12496000Y-8586500D02*
X12396000Y-8686500D01*
X12496000Y-8636500D02*
G75*
G03*
X12496000Y-8636500I-50000J0D01*
G01*
X12822000Y-9238000D02*
X12922000Y-9338000D01*
X12922000Y-9238000D02*
X12822000Y-9338000D01*
X12922000Y-9288000D02*
G75*
G03*
X12922000Y-9288000I-50000J0D01*
G01*
X12904000Y-8332000D02*
X13004000Y-8432000D01*
X13004000Y-8332000D02*
X12904000Y-8432000D01*
X13004000Y-8382000D02*
G75*
G03*
X13004000Y-8382000I-50000J0D01*
G01*
X12904000Y-8586000D02*
X13004000Y-8686000D01*
X13004000Y-8586000D02*
X12904000Y-8686000D01*
X13004000Y-8636000D02*
G75*
G03*
X13004000Y-8636000I-50000J0D01*
G01*
X12904000Y-11633500D02*
X13004000Y-11733500D01*
X13004000Y-11633500D02*
X12904000Y-11733500D01*
X13004000Y-11683500D02*
G75*
G03*
X13004000Y-11683500I-50000J0D01*
G01*
X12904000Y-11887500D02*
X13004000Y-11987500D01*
X13004000Y-11887500D02*
X12904000Y-11987500D01*
X13004000Y-11937500D02*
G75*
G03*
X13004000Y-11937500I-50000J0D01*
G01*
X13076000Y-9238000D02*
X13176000Y-9338000D01*
X13176000Y-9238000D02*
X13076000Y-9338000D01*
X13176000Y-9288000D02*
G75*
G03*
X13176000Y-9288000I-50000J0D01*
G01*
X13330000Y-9238000D02*
X13430000Y-9338000D01*
X13430000Y-9238000D02*
X13330000Y-9338000D01*
X13430000Y-9288000D02*
G75*
G03*
X13430000Y-9288000I-50000J0D01*
G01*
X13412000Y-8332500D02*
X13512000Y-8432500D01*
X13512000Y-8332500D02*
X13412000Y-8432500D01*
X13512000Y-8382500D02*
G75*
G03*
X13512000Y-8382500I-50000J0D01*
G01*
X13412000Y-8586500D02*
X13512000Y-8686500D01*
X13512000Y-8586500D02*
X13412000Y-8686500D01*
X13512000Y-8636500D02*
G75*
G03*
X13512000Y-8636500I-50000J0D01*
G01*
X13412000Y-11634000D02*
X13512000Y-11734000D01*
X13512000Y-11634000D02*
X13412000Y-11734000D01*
X13512000Y-11684000D02*
G75*
G03*
X13512000Y-11684000I-50000J0D01*
G01*
X13412000Y-11888000D02*
X13512000Y-11988000D01*
X13512000Y-11888000D02*
X13412000Y-11988000D01*
X13512000Y-11938000D02*
G75*
G03*
X13512000Y-11938000I-50000J0D01*
G01*
X13666000Y-8332500D02*
X13766000Y-8432500D01*
X13766000Y-8332500D02*
X13666000Y-8432500D01*
X13766000Y-8382500D02*
G75*
G03*
X13766000Y-8382500I-50000J0D01*
G01*
X13666000Y-8586500D02*
X13766000Y-8686500D01*
X13766000Y-8586500D02*
X13666000Y-8686500D01*
X13766000Y-8636500D02*
G75*
G03*
X13766000Y-8636500I-50000J0D01*
G01*
X13666000Y-11634000D02*
X13766000Y-11734000D01*
X13766000Y-11634000D02*
X13666000Y-11734000D01*
X13766000Y-11684000D02*
G75*
G03*
X13766000Y-11684000I-50000J0D01*
G01*
X13666000Y-11888000D02*
X13766000Y-11988000D01*
X13766000Y-11888000D02*
X13666000Y-11988000D01*
X13766000Y-11938000D02*
G75*
G03*
X13766000Y-11938000I-50000J0D01*
G01*
X13920000Y-8332500D02*
X14020000Y-8432500D01*
X14020000Y-8332500D02*
X13920000Y-8432500D01*
X14020000Y-8382500D02*
G75*
G03*
X14020000Y-8382500I-50000J0D01*
G01*
X13920000Y-8586500D02*
X14020000Y-8686500D01*
X14020000Y-8586500D02*
X13920000Y-8686500D01*
X14020000Y-8636500D02*
G75*
G03*
X14020000Y-8636500I-50000J0D01*
G01*
X13920000Y-11634000D02*
X14020000Y-11734000D01*
X14020000Y-11634000D02*
X13920000Y-11734000D01*
X14020000Y-11684000D02*
G75*
G03*
X14020000Y-11684000I-50000J0D01*
G01*
X13920000Y-11888000D02*
X14020000Y-11988000D01*
X14020000Y-11888000D02*
X13920000Y-11988000D01*
X14020000Y-11938000D02*
G75*
G03*
X14020000Y-11938000I-50000J0D01*
G01*
X14174000Y-8332500D02*
X14274000Y-8432500D01*
X14274000Y-8332500D02*
X14174000Y-8432500D01*
X14274000Y-8382500D02*
G75*
G03*
X14274000Y-8382500I-50000J0D01*
G01*
X14174000Y-8586500D02*
X14274000Y-8686500D01*
X14274000Y-8586500D02*
X14174000Y-8686500D01*
X14274000Y-8636500D02*
G75*
G03*
X14274000Y-8636500I-50000J0D01*
G01*
X14174000Y-11634000D02*
X14274000Y-11734000D01*
X14274000Y-11634000D02*
X14174000Y-11734000D01*
X14274000Y-11684000D02*
G75*
G03*
X14274000Y-11684000I-50000J0D01*
G01*
X14174000Y-11888000D02*
X14274000Y-11988000D01*
X14274000Y-11888000D02*
X14174000Y-11988000D01*
X14274000Y-11938000D02*
G75*
G03*
X14274000Y-11938000I-50000J0D01*
G01*
X14428000Y-8332500D02*
X14528000Y-8432500D01*
X14528000Y-8332500D02*
X14428000Y-8432500D01*
X14528000Y-8382500D02*
G75*
G03*
X14528000Y-8382500I-50000J0D01*
G01*
X14428000Y-8586500D02*
X14528000Y-8686500D01*
X14528000Y-8586500D02*
X14428000Y-8686500D01*
X14528000Y-8636500D02*
G75*
G03*
X14528000Y-8636500I-50000J0D01*
G01*
X14428000Y-11634000D02*
X14528000Y-11734000D01*
X14528000Y-11634000D02*
X14428000Y-11734000D01*
X14528000Y-11684000D02*
G75*
G03*
X14528000Y-11684000I-50000J0D01*
G01*
X14428000Y-11888000D02*
X14528000Y-11988000D01*
X14528000Y-11888000D02*
X14428000Y-11988000D01*
X14528000Y-11938000D02*
G75*
G03*
X14528000Y-11938000I-50000J0D01*
G01*
X14682000Y-8332500D02*
X14782000Y-8432500D01*
X14782000Y-8332500D02*
X14682000Y-8432500D01*
X14782000Y-8382500D02*
G75*
G03*
X14782000Y-8382500I-50000J0D01*
G01*
X14682000Y-8586500D02*
X14782000Y-8686500D01*
X14782000Y-8586500D02*
X14682000Y-8686500D01*
X14782000Y-8636500D02*
G75*
G03*
X14782000Y-8636500I-50000J0D01*
G01*
X14682000Y-11634000D02*
X14782000Y-11734000D01*
X14782000Y-11634000D02*
X14682000Y-11734000D01*
X14782000Y-11684000D02*
G75*
G03*
X14782000Y-11684000I-50000J0D01*
G01*
X14682000Y-11888000D02*
X14782000Y-11988000D01*
X14782000Y-11888000D02*
X14682000Y-11988000D01*
X14782000Y-11938000D02*
G75*
G03*
X14782000Y-11938000I-50000J0D01*
G01*
X15190000Y-8334000D02*
X15290000Y-8434000D01*
X15290000Y-8334000D02*
X15190000Y-8434000D01*
X15290000Y-8384000D02*
G75*
G03*
X15290000Y-8384000I-50000J0D01*
G01*
X15190000Y-8588000D02*
X15290000Y-8688000D01*
X15290000Y-8588000D02*
X15190000Y-8688000D01*
X15290000Y-8638000D02*
G75*
G03*
X15290000Y-8638000I-50000J0D01*
G01*
X15190000Y-11633500D02*
X15290000Y-11733500D01*
X15290000Y-11633500D02*
X15190000Y-11733500D01*
X15290000Y-11683500D02*
G75*
G03*
X15290000Y-11683500I-50000J0D01*
G01*
X15190000Y-11887500D02*
X15290000Y-11987500D01*
X15290000Y-11887500D02*
X15190000Y-11987500D01*
X15290000Y-11937500D02*
G75*
G03*
X15290000Y-11937500I-50000J0D01*
G01*
X15698000Y-8332500D02*
X15798000Y-8432500D01*
X15798000Y-8332500D02*
X15698000Y-8432500D01*
X15798000Y-8382500D02*
G75*
G03*
X15798000Y-8382500I-50000J0D01*
G01*
X15698000Y-8586500D02*
X15798000Y-8686500D01*
X15798000Y-8586500D02*
X15698000Y-8686500D01*
X15798000Y-8636500D02*
G75*
G03*
X15798000Y-8636500I-50000J0D01*
G01*
X15698000Y-11634000D02*
X15798000Y-11734000D01*
X15798000Y-11634000D02*
X15698000Y-11734000D01*
X15798000Y-11684000D02*
G75*
G03*
X15798000Y-11684000I-50000J0D01*
G01*
X15698000Y-11888000D02*
X15798000Y-11988000D01*
X15798000Y-11888000D02*
X15698000Y-11988000D01*
X15798000Y-11938000D02*
G75*
G03*
X15798000Y-11938000I-50000J0D01*
G01*
X15952000Y-8332500D02*
X16052000Y-8432500D01*
X16052000Y-8332500D02*
X15952000Y-8432500D01*
X16052000Y-8382500D02*
G75*
G03*
X16052000Y-8382500I-50000J0D01*
G01*
X15952000Y-8586500D02*
X16052000Y-8686500D01*
X16052000Y-8586500D02*
X15952000Y-8686500D01*
X16052000Y-8636500D02*
G75*
G03*
X16052000Y-8636500I-50000J0D01*
G01*
X15952000Y-11634000D02*
X16052000Y-11734000D01*
X16052000Y-11634000D02*
X15952000Y-11734000D01*
X16052000Y-11684000D02*
G75*
G03*
X16052000Y-11684000I-50000J0D01*
G01*
X15952000Y-11888000D02*
X16052000Y-11988000D01*
X16052000Y-11888000D02*
X15952000Y-11988000D01*
X16052000Y-11938000D02*
G75*
G03*
X16052000Y-11938000I-50000J0D01*
G01*
X16206000Y-8332500D02*
X16306000Y-8432500D01*
X16306000Y-8332500D02*
X16206000Y-8432500D01*
X16306000Y-8382500D02*
G75*
G03*
X16306000Y-8382500I-50000J0D01*
G01*
X16206000Y-8586500D02*
X16306000Y-8686500D01*
X16306000Y-8586500D02*
X16206000Y-8686500D01*
X16306000Y-8636500D02*
G75*
G03*
X16306000Y-8636500I-50000J0D01*
G01*
X16206000Y-11634000D02*
X16306000Y-11734000D01*
X16306000Y-11634000D02*
X16206000Y-11734000D01*
X16306000Y-11684000D02*
G75*
G03*
X16306000Y-11684000I-50000J0D01*
G01*
X16206000Y-11888000D02*
X16306000Y-11988000D01*
X16306000Y-11888000D02*
X16206000Y-11988000D01*
X16306000Y-11938000D02*
G75*
G03*
X16306000Y-11938000I-50000J0D01*
G01*
X16460000Y-8332500D02*
X16560000Y-8432500D01*
X16560000Y-8332500D02*
X16460000Y-8432500D01*
X16560000Y-8382500D02*
G75*
G03*
X16560000Y-8382500I-50000J0D01*
G01*
X16460000Y-8586500D02*
X16560000Y-8686500D01*
X16560000Y-8586500D02*
X16460000Y-8686500D01*
X16560000Y-8636500D02*
G75*
G03*
X16560000Y-8636500I-50000J0D01*
G01*
X16460000Y-11634000D02*
X16560000Y-11734000D01*
X16560000Y-11634000D02*
X16460000Y-11734000D01*
X16560000Y-11684000D02*
G75*
G03*
X16560000Y-11684000I-50000J0D01*
G01*
X16460000Y-11888000D02*
X16560000Y-11988000D01*
X16560000Y-11888000D02*
X16460000Y-11988000D01*
X16560000Y-11938000D02*
G75*
G03*
X16560000Y-11938000I-50000J0D01*
G01*
X16714000Y-8332500D02*
X16814000Y-8432500D01*
X16814000Y-8332500D02*
X16714000Y-8432500D01*
X16814000Y-8382500D02*
G75*
G03*
X16814000Y-8382500I-50000J0D01*
G01*
X16714000Y-8586500D02*
X16814000Y-8686500D01*
X16814000Y-8586500D02*
X16714000Y-8686500D01*
X16814000Y-8636500D02*
G75*
G03*
X16814000Y-8636500I-50000J0D01*
G01*
X16714000Y-11634000D02*
X16814000Y-11734000D01*
X16814000Y-11634000D02*
X16714000Y-11734000D01*
X16814000Y-11684000D02*
G75*
G03*
X16814000Y-11684000I-50000J0D01*
G01*
X16714000Y-11888000D02*
X16814000Y-11988000D01*
X16814000Y-11888000D02*
X16714000Y-11988000D01*
X16814000Y-11938000D02*
G75*
G03*
X16814000Y-11938000I-50000J0D01*
G01*
X16968000Y-8332500D02*
X17068000Y-8432500D01*
X17068000Y-8332500D02*
X16968000Y-8432500D01*
X17068000Y-8382500D02*
G75*
G03*
X17068000Y-8382500I-50000J0D01*
G01*
X16968000Y-8586500D02*
X17068000Y-8686500D01*
X17068000Y-8586500D02*
X16968000Y-8686500D01*
X17068000Y-8636500D02*
G75*
G03*
X17068000Y-8636500I-50000J0D01*
G01*
X16968000Y-11634000D02*
X17068000Y-11734000D01*
X17068000Y-11634000D02*
X16968000Y-11734000D01*
X17068000Y-11684000D02*
G75*
G03*
X17068000Y-11684000I-50000J0D01*
G01*
X16968000Y-11888000D02*
X17068000Y-11988000D01*
X17068000Y-11888000D02*
X16968000Y-11988000D01*
X17068000Y-11938000D02*
G75*
G03*
X17068000Y-11938000I-50000J0D01*
G01*
D11*
X11174619Y-12507476D02*
X11174619Y-12307476D01*
X11222238Y-12307476D01*
X11250809Y-12317000D01*
X11269857Y-12336048D01*
X11279381Y-12355095D01*
X11288905Y-12393190D01*
X11288905Y-12421762D01*
X11279381Y-12459857D01*
X11269857Y-12478905D01*
X11250809Y-12497952D01*
X11222238Y-12507476D01*
X11174619Y-12507476D01*
X11374619Y-12507476D02*
X11374619Y-12374143D01*
X11374619Y-12412238D02*
X11384143Y-12393190D01*
X11393667Y-12383667D01*
X11412714Y-12374143D01*
X11431762Y-12374143D01*
X11498428Y-12507476D02*
X11498428Y-12374143D01*
X11498428Y-12307476D02*
X11488905Y-12317000D01*
X11498428Y-12326524D01*
X11507952Y-12317000D01*
X11498428Y-12307476D01*
X11498428Y-12326524D01*
X11622238Y-12507476D02*
X11603190Y-12497952D01*
X11593667Y-12478905D01*
X11593667Y-12307476D01*
X11727000Y-12507476D02*
X11707952Y-12497952D01*
X11698428Y-12478905D01*
X11698428Y-12307476D01*
X11955571Y-12507476D02*
X11955571Y-12307476D01*
X12022238Y-12450333D01*
X12088905Y-12307476D01*
X12088905Y-12507476D01*
X12269857Y-12507476D02*
X12269857Y-12402714D01*
X12260333Y-12383667D01*
X12241286Y-12374143D01*
X12203190Y-12374143D01*
X12184143Y-12383667D01*
X12269857Y-12497952D02*
X12250809Y-12507476D01*
X12203190Y-12507476D01*
X12184143Y-12497952D01*
X12174619Y-12478905D01*
X12174619Y-12459857D01*
X12184143Y-12440809D01*
X12203190Y-12431286D01*
X12250809Y-12431286D01*
X12269857Y-12421762D01*
X12365095Y-12374143D02*
X12365095Y-12574143D01*
X12365095Y-12383667D02*
X12384143Y-12374143D01*
X12422238Y-12374143D01*
X12441286Y-12383667D01*
X12450809Y-12393190D01*
X12460333Y-12412238D01*
X12460333Y-12469381D01*
X12450809Y-12488428D01*
X12441286Y-12497952D01*
X12422238Y-12507476D01*
X12384143Y-12507476D01*
X12365095Y-12497952D01*
X12546048Y-12488428D02*
X12555571Y-12497952D01*
X12546048Y-12507476D01*
X12536524Y-12497952D01*
X12546048Y-12488428D01*
X12546048Y-12507476D01*
X12546048Y-12383667D02*
X12555571Y-12393190D01*
X12546048Y-12402714D01*
X12536524Y-12393190D01*
X12546048Y-12383667D01*
X12546048Y-12402714D01*
D12*
X10897000Y-12827000D02*
X10917000Y-12847000D01*
X10917000Y-12827000D02*
X10897000Y-12847000D01*
D11*
X11212714Y-12727476D02*
X11231762Y-12727476D01*
X11250809Y-12737000D01*
X11260333Y-12746524D01*
X11269857Y-12765571D01*
X11279381Y-12803667D01*
X11279381Y-12851286D01*
X11269857Y-12889381D01*
X11260333Y-12908428D01*
X11250809Y-12917952D01*
X11231762Y-12927476D01*
X11212714Y-12927476D01*
X11193667Y-12917952D01*
X11184143Y-12908428D01*
X11174619Y-12889381D01*
X11165095Y-12851286D01*
X11165095Y-12803667D01*
X11174619Y-12765571D01*
X11184143Y-12746524D01*
X11193667Y-12737000D01*
X11212714Y-12727476D01*
X11365095Y-12908428D02*
X11374619Y-12917952D01*
X11365095Y-12927476D01*
X11355571Y-12917952D01*
X11365095Y-12908428D01*
X11365095Y-12927476D01*
X11450809Y-12746524D02*
X11460333Y-12737000D01*
X11479381Y-12727476D01*
X11527000Y-12727476D01*
X11546048Y-12737000D01*
X11555571Y-12746524D01*
X11565095Y-12765571D01*
X11565095Y-12784619D01*
X11555571Y-12813190D01*
X11441286Y-12927476D01*
X11565095Y-12927476D01*
X11688905Y-12727476D02*
X11707952Y-12727476D01*
X11727000Y-12737000D01*
X11736524Y-12746524D01*
X11746048Y-12765571D01*
X11755571Y-12803667D01*
X11755571Y-12851286D01*
X11746048Y-12889381D01*
X11736524Y-12908428D01*
X11727000Y-12917952D01*
X11707952Y-12927476D01*
X11688905Y-12927476D01*
X11669857Y-12917952D01*
X11660333Y-12908428D01*
X11650809Y-12889381D01*
X11641286Y-12851286D01*
X11641286Y-12803667D01*
X11650809Y-12765571D01*
X11660333Y-12746524D01*
X11669857Y-12737000D01*
X11688905Y-12727476D01*
X11879381Y-12727476D02*
X11898428Y-12727476D01*
X11917476Y-12737000D01*
X11927000Y-12746524D01*
X11936524Y-12765571D01*
X11946048Y-12803667D01*
X11946048Y-12851286D01*
X11936524Y-12889381D01*
X11927000Y-12908428D01*
X11917476Y-12917952D01*
X11898428Y-12927476D01*
X11879381Y-12927476D01*
X11860333Y-12917952D01*
X11850809Y-12908428D01*
X11841286Y-12889381D01*
X11831762Y-12851286D01*
X11831762Y-12803667D01*
X11841286Y-12765571D01*
X11850809Y-12746524D01*
X11860333Y-12737000D01*
X11879381Y-12727476D01*
X12031762Y-12927476D02*
X12031762Y-12794143D01*
X12031762Y-12813190D02*
X12041286Y-12803667D01*
X12060333Y-12794143D01*
X12088905Y-12794143D01*
X12107952Y-12803667D01*
X12117476Y-12822714D01*
X12117476Y-12927476D01*
X12117476Y-12822714D02*
X12127000Y-12803667D01*
X12146048Y-12794143D01*
X12174619Y-12794143D01*
X12193667Y-12803667D01*
X12203190Y-12822714D01*
X12203190Y-12927476D01*
X12298428Y-12927476D02*
X12298428Y-12794143D01*
X12298428Y-12813190D02*
X12307952Y-12803667D01*
X12327000Y-12794143D01*
X12355571Y-12794143D01*
X12374619Y-12803667D01*
X12384143Y-12822714D01*
X12384143Y-12927476D01*
X12384143Y-12822714D02*
X12393667Y-12803667D01*
X12412714Y-12794143D01*
X12441286Y-12794143D01*
X12460333Y-12803667D01*
X12469857Y-12822714D01*
X12469857Y-12927476D01*
X12860333Y-12717952D02*
X12688905Y-12975095D01*
X13117476Y-12727476D02*
X13136524Y-12727476D01*
X13155571Y-12737000D01*
X13165095Y-12746524D01*
X13174619Y-12765571D01*
X13184143Y-12803667D01*
X13184143Y-12851286D01*
X13174619Y-12889381D01*
X13165095Y-12908428D01*
X13155571Y-12917952D01*
X13136524Y-12927476D01*
X13117476Y-12927476D01*
X13098428Y-12917952D01*
X13088905Y-12908428D01*
X13079381Y-12889381D01*
X13069857Y-12851286D01*
X13069857Y-12803667D01*
X13079381Y-12765571D01*
X13088905Y-12746524D01*
X13098428Y-12737000D01*
X13117476Y-12727476D01*
X13269857Y-12908428D02*
X13279381Y-12917952D01*
X13269857Y-12927476D01*
X13260333Y-12917952D01*
X13269857Y-12908428D01*
X13269857Y-12927476D01*
X13403190Y-12727476D02*
X13422238Y-12727476D01*
X13441286Y-12737000D01*
X13450809Y-12746524D01*
X13460333Y-12765571D01*
X13469857Y-12803667D01*
X13469857Y-12851286D01*
X13460333Y-12889381D01*
X13450809Y-12908428D01*
X13441286Y-12917952D01*
X13422238Y-12927476D01*
X13403190Y-12927476D01*
X13384143Y-12917952D01*
X13374619Y-12908428D01*
X13365095Y-12889381D01*
X13355571Y-12851286D01*
X13355571Y-12803667D01*
X13365095Y-12765571D01*
X13374619Y-12746524D01*
X13384143Y-12737000D01*
X13403190Y-12727476D01*
X13593667Y-12727476D02*
X13612714Y-12727476D01*
X13631762Y-12737000D01*
X13641286Y-12746524D01*
X13650809Y-12765571D01*
X13660333Y-12803667D01*
X13660333Y-12851286D01*
X13650809Y-12889381D01*
X13641286Y-12908428D01*
X13631762Y-12917952D01*
X13612714Y-12927476D01*
X13593667Y-12927476D01*
X13574619Y-12917952D01*
X13565095Y-12908428D01*
X13555571Y-12889381D01*
X13546048Y-12851286D01*
X13546048Y-12803667D01*
X13555571Y-12765571D01*
X13565095Y-12746524D01*
X13574619Y-12737000D01*
X13593667Y-12727476D01*
X13727000Y-12727476D02*
X13860333Y-12727476D01*
X13774619Y-12927476D01*
X13946048Y-12927476D02*
X13984143Y-12927476D01*
X14003190Y-12917952D01*
X14012714Y-12908428D01*
X14031762Y-12879857D01*
X14041286Y-12841762D01*
X14041286Y-12765571D01*
X14031762Y-12746524D01*
X14022238Y-12737000D01*
X14003190Y-12727476D01*
X13965095Y-12727476D01*
X13946048Y-12737000D01*
X13936524Y-12746524D01*
X13927000Y-12765571D01*
X13927000Y-12813190D01*
X13936524Y-12832238D01*
X13946048Y-12841762D01*
X13965095Y-12851286D01*
X14003190Y-12851286D01*
X14022238Y-12841762D01*
X14031762Y-12832238D01*
X14041286Y-12813190D01*
X14117476Y-12727476D02*
X14117476Y-12765571D01*
X14193667Y-12727476D02*
X14193667Y-12765571D01*
X14488905Y-13003667D02*
X14479381Y-12994143D01*
X14460333Y-12965571D01*
X14450809Y-12946524D01*
X14441286Y-12917952D01*
X14431762Y-12870333D01*
X14431762Y-12832238D01*
X14441286Y-12784619D01*
X14450809Y-12756048D01*
X14460333Y-12737000D01*
X14479381Y-12708428D01*
X14488905Y-12698905D01*
X14660333Y-12727476D02*
X14565095Y-12727476D01*
X14555571Y-12822714D01*
X14565095Y-12813190D01*
X14584143Y-12803667D01*
X14631762Y-12803667D01*
X14650809Y-12813190D01*
X14660333Y-12822714D01*
X14669857Y-12841762D01*
X14669857Y-12889381D01*
X14660333Y-12908428D01*
X14650809Y-12917952D01*
X14631762Y-12927476D01*
X14584143Y-12927476D01*
X14565095Y-12917952D01*
X14555571Y-12908428D01*
X14746048Y-12746524D02*
X14755571Y-12737000D01*
X14774619Y-12727476D01*
X14822238Y-12727476D01*
X14841286Y-12737000D01*
X14850809Y-12746524D01*
X14860333Y-12765571D01*
X14860333Y-12784619D01*
X14850809Y-12813190D01*
X14736524Y-12927476D01*
X14860333Y-12927476D01*
X15098428Y-12927476D02*
X15098428Y-12727476D01*
X15184143Y-12927476D02*
X15184143Y-12822714D01*
X15174619Y-12803667D01*
X15155571Y-12794143D01*
X15127000Y-12794143D01*
X15107952Y-12803667D01*
X15098428Y-12813190D01*
X15307952Y-12927476D02*
X15288905Y-12917952D01*
X15279381Y-12908428D01*
X15269857Y-12889381D01*
X15269857Y-12832238D01*
X15279381Y-12813190D01*
X15288905Y-12803667D01*
X15307952Y-12794143D01*
X15336524Y-12794143D01*
X15355571Y-12803667D01*
X15365095Y-12813190D01*
X15374619Y-12832238D01*
X15374619Y-12889381D01*
X15365095Y-12908428D01*
X15355571Y-12917952D01*
X15336524Y-12927476D01*
X15307952Y-12927476D01*
X15488905Y-12927476D02*
X15469857Y-12917952D01*
X15460333Y-12898905D01*
X15460333Y-12727476D01*
X15641286Y-12917952D02*
X15622238Y-12927476D01*
X15584143Y-12927476D01*
X15565095Y-12917952D01*
X15555571Y-12898905D01*
X15555571Y-12822714D01*
X15565095Y-12803667D01*
X15584143Y-12794143D01*
X15622238Y-12794143D01*
X15641286Y-12803667D01*
X15650809Y-12822714D01*
X15650809Y-12841762D01*
X15555571Y-12860809D01*
X15727000Y-12917952D02*
X15746048Y-12927476D01*
X15784143Y-12927476D01*
X15803190Y-12917952D01*
X15812714Y-12898905D01*
X15812714Y-12889381D01*
X15803190Y-12870333D01*
X15784143Y-12860809D01*
X15755571Y-12860809D01*
X15736524Y-12851286D01*
X15727000Y-12832238D01*
X15727000Y-12822714D01*
X15736524Y-12803667D01*
X15755571Y-12794143D01*
X15784143Y-12794143D01*
X15803190Y-12803667D01*
X15879381Y-13003667D02*
X15888905Y-12994143D01*
X15907952Y-12965571D01*
X15917476Y-12946524D01*
X15927000Y-12917952D01*
X15936524Y-12870333D01*
X15936524Y-12832238D01*
X15927000Y-12784619D01*
X15917476Y-12756048D01*
X15907952Y-12737000D01*
X15888905Y-12708428D01*
X15879381Y-12698905D01*
D12*
X10917000Y-13101000D02*
G75*
G03*
X10917000Y-13101000I-10000J0D01*
G01*
D11*
X11212714Y-12991476D02*
X11231762Y-12991476D01*
X11250809Y-13001000D01*
X11260333Y-13010524D01*
X11269857Y-13029571D01*
X11279381Y-13067667D01*
X11279381Y-13115286D01*
X11269857Y-13153381D01*
X11260333Y-13172428D01*
X11250809Y-13181952D01*
X11231762Y-13191476D01*
X11212714Y-13191476D01*
X11193667Y-13181952D01*
X11184143Y-13172428D01*
X11174619Y-13153381D01*
X11165095Y-13115286D01*
X11165095Y-13067667D01*
X11174619Y-13029571D01*
X11184143Y-13010524D01*
X11193667Y-13001000D01*
X11212714Y-12991476D01*
X11365095Y-13172428D02*
X11374619Y-13181952D01*
X11365095Y-13191476D01*
X11355571Y-13181952D01*
X11365095Y-13172428D01*
X11365095Y-13191476D01*
X11450809Y-13010524D02*
X11460333Y-13001000D01*
X11479381Y-12991476D01*
X11527000Y-12991476D01*
X11546048Y-13001000D01*
X11555571Y-13010524D01*
X11565095Y-13029571D01*
X11565095Y-13048619D01*
X11555571Y-13077190D01*
X11441286Y-13191476D01*
X11565095Y-13191476D01*
X11688905Y-12991476D02*
X11707952Y-12991476D01*
X11727000Y-13001000D01*
X11736524Y-13010524D01*
X11746048Y-13029571D01*
X11755571Y-13067667D01*
X11755571Y-13115286D01*
X11746048Y-13153381D01*
X11736524Y-13172428D01*
X11727000Y-13181952D01*
X11707952Y-13191476D01*
X11688905Y-13191476D01*
X11669857Y-13181952D01*
X11660333Y-13172428D01*
X11650809Y-13153381D01*
X11641286Y-13115286D01*
X11641286Y-13067667D01*
X11650809Y-13029571D01*
X11660333Y-13010524D01*
X11669857Y-13001000D01*
X11688905Y-12991476D01*
X11879381Y-12991476D02*
X11898428Y-12991476D01*
X11917476Y-13001000D01*
X11927000Y-13010524D01*
X11936524Y-13029571D01*
X11946048Y-13067667D01*
X11946048Y-13115286D01*
X11936524Y-13153381D01*
X11927000Y-13172428D01*
X11917476Y-13181952D01*
X11898428Y-13191476D01*
X11879381Y-13191476D01*
X11860333Y-13181952D01*
X11850809Y-13172428D01*
X11841286Y-13153381D01*
X11831762Y-13115286D01*
X11831762Y-13067667D01*
X11841286Y-13029571D01*
X11850809Y-13010524D01*
X11860333Y-13001000D01*
X11879381Y-12991476D01*
X12031762Y-13191476D02*
X12031762Y-13058143D01*
X12031762Y-13077190D02*
X12041286Y-13067667D01*
X12060333Y-13058143D01*
X12088905Y-13058143D01*
X12107952Y-13067667D01*
X12117476Y-13086714D01*
X12117476Y-13191476D01*
X12117476Y-13086714D02*
X12127000Y-13067667D01*
X12146048Y-13058143D01*
X12174619Y-13058143D01*
X12193667Y-13067667D01*
X12203190Y-13086714D01*
X12203190Y-13191476D01*
X12298428Y-13191476D02*
X12298428Y-13058143D01*
X12298428Y-13077190D02*
X12307952Y-13067667D01*
X12327000Y-13058143D01*
X12355571Y-13058143D01*
X12374619Y-13067667D01*
X12384143Y-13086714D01*
X12384143Y-13191476D01*
X12384143Y-13086714D02*
X12393667Y-13067667D01*
X12412714Y-13058143D01*
X12441286Y-13058143D01*
X12460333Y-13067667D01*
X12469857Y-13086714D01*
X12469857Y-13191476D01*
X12860333Y-12981952D02*
X12688905Y-13239095D01*
X13117476Y-12991476D02*
X13136524Y-12991476D01*
X13155571Y-13001000D01*
X13165095Y-13010524D01*
X13174619Y-13029571D01*
X13184143Y-13067667D01*
X13184143Y-13115286D01*
X13174619Y-13153381D01*
X13165095Y-13172428D01*
X13155571Y-13181952D01*
X13136524Y-13191476D01*
X13117476Y-13191476D01*
X13098428Y-13181952D01*
X13088905Y-13172428D01*
X13079381Y-13153381D01*
X13069857Y-13115286D01*
X13069857Y-13067667D01*
X13079381Y-13029571D01*
X13088905Y-13010524D01*
X13098428Y-13001000D01*
X13117476Y-12991476D01*
X13269857Y-13172428D02*
X13279381Y-13181952D01*
X13269857Y-13191476D01*
X13260333Y-13181952D01*
X13269857Y-13172428D01*
X13269857Y-13191476D01*
X13403190Y-12991476D02*
X13422238Y-12991476D01*
X13441286Y-13001000D01*
X13450809Y-13010524D01*
X13460333Y-13029571D01*
X13469857Y-13067667D01*
X13469857Y-13115286D01*
X13460333Y-13153381D01*
X13450809Y-13172428D01*
X13441286Y-13181952D01*
X13422238Y-13191476D01*
X13403190Y-13191476D01*
X13384143Y-13181952D01*
X13374619Y-13172428D01*
X13365095Y-13153381D01*
X13355571Y-13115286D01*
X13355571Y-13067667D01*
X13365095Y-13029571D01*
X13374619Y-13010524D01*
X13384143Y-13001000D01*
X13403190Y-12991476D01*
X13593667Y-12991476D02*
X13612714Y-12991476D01*
X13631762Y-13001000D01*
X13641286Y-13010524D01*
X13650809Y-13029571D01*
X13660333Y-13067667D01*
X13660333Y-13115286D01*
X13650809Y-13153381D01*
X13641286Y-13172428D01*
X13631762Y-13181952D01*
X13612714Y-13191476D01*
X13593667Y-13191476D01*
X13574619Y-13181952D01*
X13565095Y-13172428D01*
X13555571Y-13153381D01*
X13546048Y-13115286D01*
X13546048Y-13067667D01*
X13555571Y-13029571D01*
X13565095Y-13010524D01*
X13574619Y-13001000D01*
X13593667Y-12991476D01*
X13727000Y-12991476D02*
X13860333Y-12991476D01*
X13774619Y-13191476D01*
X13946048Y-13191476D02*
X13984143Y-13191476D01*
X14003190Y-13181952D01*
X14012714Y-13172428D01*
X14031762Y-13143857D01*
X14041286Y-13105762D01*
X14041286Y-13029571D01*
X14031762Y-13010524D01*
X14022238Y-13001000D01*
X14003190Y-12991476D01*
X13965095Y-12991476D01*
X13946048Y-13001000D01*
X13936524Y-13010524D01*
X13927000Y-13029571D01*
X13927000Y-13077190D01*
X13936524Y-13096238D01*
X13946048Y-13105762D01*
X13965095Y-13115286D01*
X14003190Y-13115286D01*
X14022238Y-13105762D01*
X14031762Y-13096238D01*
X14041286Y-13077190D01*
X14117476Y-12991476D02*
X14117476Y-13029571D01*
X14193667Y-12991476D02*
X14193667Y-13029571D01*
X14488905Y-13267667D02*
X14479381Y-13258143D01*
X14460333Y-13229571D01*
X14450809Y-13210524D01*
X14441286Y-13181952D01*
X14431762Y-13134333D01*
X14431762Y-13096238D01*
X14441286Y-13048619D01*
X14450809Y-13020048D01*
X14460333Y-13001000D01*
X14479381Y-12972428D01*
X14488905Y-12962905D01*
X14574619Y-13191476D02*
X14612714Y-13191476D01*
X14631762Y-13181952D01*
X14641286Y-13172428D01*
X14660333Y-13143857D01*
X14669857Y-13105762D01*
X14669857Y-13029571D01*
X14660333Y-13010524D01*
X14650809Y-13001000D01*
X14631762Y-12991476D01*
X14593667Y-12991476D01*
X14574619Y-13001000D01*
X14565095Y-13010524D01*
X14555571Y-13029571D01*
X14555571Y-13077190D01*
X14565095Y-13096238D01*
X14574619Y-13105762D01*
X14593667Y-13115286D01*
X14631762Y-13115286D01*
X14650809Y-13105762D01*
X14660333Y-13096238D01*
X14669857Y-13077190D01*
X14907952Y-13191476D02*
X14907952Y-12991476D01*
X14993667Y-13191476D02*
X14993667Y-13086714D01*
X14984143Y-13067667D01*
X14965095Y-13058143D01*
X14936524Y-13058143D01*
X14917476Y-13067667D01*
X14907952Y-13077190D01*
X15117476Y-13191476D02*
X15098428Y-13181952D01*
X15088905Y-13172428D01*
X15079381Y-13153381D01*
X15079381Y-13096238D01*
X15088905Y-13077190D01*
X15098428Y-13067667D01*
X15117476Y-13058143D01*
X15146048Y-13058143D01*
X15165095Y-13067667D01*
X15174619Y-13077190D01*
X15184143Y-13096238D01*
X15184143Y-13153381D01*
X15174619Y-13172428D01*
X15165095Y-13181952D01*
X15146048Y-13191476D01*
X15117476Y-13191476D01*
X15298428Y-13191476D02*
X15279381Y-13181952D01*
X15269857Y-13162905D01*
X15269857Y-12991476D01*
X15450809Y-13181952D02*
X15431762Y-13191476D01*
X15393667Y-13191476D01*
X15374619Y-13181952D01*
X15365095Y-13162905D01*
X15365095Y-13086714D01*
X15374619Y-13067667D01*
X15393667Y-13058143D01*
X15431762Y-13058143D01*
X15450809Y-13067667D01*
X15460333Y-13086714D01*
X15460333Y-13105762D01*
X15365095Y-13124809D01*
X15536524Y-13181952D02*
X15555571Y-13191476D01*
X15593667Y-13191476D01*
X15612714Y-13181952D01*
X15622238Y-13162905D01*
X15622238Y-13153381D01*
X15612714Y-13134333D01*
X15593667Y-13124809D01*
X15565095Y-13124809D01*
X15546048Y-13115286D01*
X15536524Y-13096238D01*
X15536524Y-13086714D01*
X15546048Y-13067667D01*
X15565095Y-13058143D01*
X15593667Y-13058143D01*
X15612714Y-13067667D01*
X15688905Y-13267667D02*
X15698428Y-13258143D01*
X15717476Y-13229571D01*
X15727000Y-13210524D01*
X15736524Y-13181952D01*
X15746048Y-13134333D01*
X15746048Y-13096238D01*
X15736524Y-13048619D01*
X15727000Y-13020048D01*
X15717476Y-13001000D01*
X15698428Y-12972428D01*
X15688905Y-12962905D01*
D13*
X10902000Y-13350000D02*
X10902000Y-13380000D01*
X10887000Y-13365000D02*
X10917000Y-13365000D01*
D11*
X11212714Y-13255476D02*
X11231762Y-13255476D01*
X11250809Y-13265000D01*
X11260333Y-13274524D01*
X11269857Y-13293571D01*
X11279381Y-13331667D01*
X11279381Y-13379286D01*
X11269857Y-13417381D01*
X11260333Y-13436428D01*
X11250809Y-13445952D01*
X11231762Y-13455476D01*
X11212714Y-13455476D01*
X11193667Y-13445952D01*
X11184143Y-13436428D01*
X11174619Y-13417381D01*
X11165095Y-13379286D01*
X11165095Y-13331667D01*
X11174619Y-13293571D01*
X11184143Y-13274524D01*
X11193667Y-13265000D01*
X11212714Y-13255476D01*
X11365095Y-13436428D02*
X11374619Y-13445952D01*
X11365095Y-13455476D01*
X11355571Y-13445952D01*
X11365095Y-13436428D01*
X11365095Y-13455476D01*
X11441286Y-13255476D02*
X11565095Y-13255476D01*
X11498428Y-13331667D01*
X11527000Y-13331667D01*
X11546048Y-13341190D01*
X11555571Y-13350714D01*
X11565095Y-13369762D01*
X11565095Y-13417381D01*
X11555571Y-13436428D01*
X11546048Y-13445952D01*
X11527000Y-13455476D01*
X11469857Y-13455476D01*
X11450809Y-13445952D01*
X11441286Y-13436428D01*
X11688905Y-13255476D02*
X11707952Y-13255476D01*
X11727000Y-13265000D01*
X11736524Y-13274524D01*
X11746048Y-13293571D01*
X11755571Y-13331667D01*
X11755571Y-13379286D01*
X11746048Y-13417381D01*
X11736524Y-13436428D01*
X11727000Y-13445952D01*
X11707952Y-13455476D01*
X11688905Y-13455476D01*
X11669857Y-13445952D01*
X11660333Y-13436428D01*
X11650809Y-13417381D01*
X11641286Y-13379286D01*
X11641286Y-13331667D01*
X11650809Y-13293571D01*
X11660333Y-13274524D01*
X11669857Y-13265000D01*
X11688905Y-13255476D01*
X11879381Y-13255476D02*
X11898428Y-13255476D01*
X11917476Y-13265000D01*
X11927000Y-13274524D01*
X11936524Y-13293571D01*
X11946048Y-13331667D01*
X11946048Y-13379286D01*
X11936524Y-13417381D01*
X11927000Y-13436428D01*
X11917476Y-13445952D01*
X11898428Y-13455476D01*
X11879381Y-13455476D01*
X11860333Y-13445952D01*
X11850809Y-13436428D01*
X11841286Y-13417381D01*
X11831762Y-13379286D01*
X11831762Y-13331667D01*
X11841286Y-13293571D01*
X11850809Y-13274524D01*
X11860333Y-13265000D01*
X11879381Y-13255476D01*
X12031762Y-13455476D02*
X12031762Y-13322143D01*
X12031762Y-13341190D02*
X12041286Y-13331667D01*
X12060333Y-13322143D01*
X12088905Y-13322143D01*
X12107952Y-13331667D01*
X12117476Y-13350714D01*
X12117476Y-13455476D01*
X12117476Y-13350714D02*
X12127000Y-13331667D01*
X12146048Y-13322143D01*
X12174619Y-13322143D01*
X12193667Y-13331667D01*
X12203190Y-13350714D01*
X12203190Y-13455476D01*
X12298428Y-13455476D02*
X12298428Y-13322143D01*
X12298428Y-13341190D02*
X12307952Y-13331667D01*
X12327000Y-13322143D01*
X12355571Y-13322143D01*
X12374619Y-13331667D01*
X12384143Y-13350714D01*
X12384143Y-13455476D01*
X12384143Y-13350714D02*
X12393667Y-13331667D01*
X12412714Y-13322143D01*
X12441286Y-13322143D01*
X12460333Y-13331667D01*
X12469857Y-13350714D01*
X12469857Y-13455476D01*
X12860333Y-13245952D02*
X12688905Y-13503095D01*
X13117476Y-13255476D02*
X13136524Y-13255476D01*
X13155571Y-13265000D01*
X13165095Y-13274524D01*
X13174619Y-13293571D01*
X13184143Y-13331667D01*
X13184143Y-13379286D01*
X13174619Y-13417381D01*
X13165095Y-13436428D01*
X13155571Y-13445952D01*
X13136524Y-13455476D01*
X13117476Y-13455476D01*
X13098428Y-13445952D01*
X13088905Y-13436428D01*
X13079381Y-13417381D01*
X13069857Y-13379286D01*
X13069857Y-13331667D01*
X13079381Y-13293571D01*
X13088905Y-13274524D01*
X13098428Y-13265000D01*
X13117476Y-13255476D01*
X13269857Y-13436428D02*
X13279381Y-13445952D01*
X13269857Y-13455476D01*
X13260333Y-13445952D01*
X13269857Y-13436428D01*
X13269857Y-13455476D01*
X13403190Y-13255476D02*
X13422238Y-13255476D01*
X13441286Y-13265000D01*
X13450809Y-13274524D01*
X13460333Y-13293571D01*
X13469857Y-13331667D01*
X13469857Y-13379286D01*
X13460333Y-13417381D01*
X13450809Y-13436428D01*
X13441286Y-13445952D01*
X13422238Y-13455476D01*
X13403190Y-13455476D01*
X13384143Y-13445952D01*
X13374619Y-13436428D01*
X13365095Y-13417381D01*
X13355571Y-13379286D01*
X13355571Y-13331667D01*
X13365095Y-13293571D01*
X13374619Y-13274524D01*
X13384143Y-13265000D01*
X13403190Y-13255476D01*
X13660333Y-13455476D02*
X13546048Y-13455476D01*
X13603190Y-13455476D02*
X13603190Y-13255476D01*
X13584143Y-13284048D01*
X13565095Y-13303095D01*
X13546048Y-13312619D01*
X13850809Y-13455476D02*
X13736524Y-13455476D01*
X13793667Y-13455476D02*
X13793667Y-13255476D01*
X13774619Y-13284048D01*
X13755571Y-13303095D01*
X13736524Y-13312619D01*
X13965095Y-13341190D02*
X13946048Y-13331667D01*
X13936524Y-13322143D01*
X13927000Y-13303095D01*
X13927000Y-13293571D01*
X13936524Y-13274524D01*
X13946048Y-13265000D01*
X13965095Y-13255476D01*
X14003190Y-13255476D01*
X14022238Y-13265000D01*
X14031762Y-13274524D01*
X14041286Y-13293571D01*
X14041286Y-13303095D01*
X14031762Y-13322143D01*
X14022238Y-13331667D01*
X14003190Y-13341190D01*
X13965095Y-13341190D01*
X13946048Y-13350714D01*
X13936524Y-13360238D01*
X13927000Y-13379286D01*
X13927000Y-13417381D01*
X13936524Y-13436428D01*
X13946048Y-13445952D01*
X13965095Y-13455476D01*
X14003190Y-13455476D01*
X14022238Y-13445952D01*
X14031762Y-13436428D01*
X14041286Y-13417381D01*
X14041286Y-13379286D01*
X14031762Y-13360238D01*
X14022238Y-13350714D01*
X14003190Y-13341190D01*
X14117476Y-13255476D02*
X14117476Y-13293571D01*
X14193667Y-13255476D02*
X14193667Y-13293571D01*
X14488905Y-13531667D02*
X14479381Y-13522143D01*
X14460333Y-13493571D01*
X14450809Y-13474524D01*
X14441286Y-13445952D01*
X14431762Y-13398333D01*
X14431762Y-13360238D01*
X14441286Y-13312619D01*
X14450809Y-13284048D01*
X14460333Y-13265000D01*
X14479381Y-13236428D01*
X14488905Y-13226905D01*
X14669857Y-13455476D02*
X14555571Y-13455476D01*
X14612714Y-13455476D02*
X14612714Y-13255476D01*
X14593667Y-13284048D01*
X14574619Y-13303095D01*
X14555571Y-13312619D01*
X14860333Y-13455476D02*
X14746048Y-13455476D01*
X14803190Y-13455476D02*
X14803190Y-13255476D01*
X14784143Y-13284048D01*
X14765095Y-13303095D01*
X14746048Y-13312619D01*
X15050809Y-13455476D02*
X14936524Y-13455476D01*
X14993667Y-13455476D02*
X14993667Y-13255476D01*
X14974619Y-13284048D01*
X14955571Y-13303095D01*
X14936524Y-13312619D01*
X15288905Y-13455476D02*
X15288905Y-13255476D01*
X15374619Y-13455476D02*
X15374619Y-13350714D01*
X15365095Y-13331667D01*
X15346048Y-13322143D01*
X15317476Y-13322143D01*
X15298428Y-13331667D01*
X15288905Y-13341190D01*
X15498428Y-13455476D02*
X15479381Y-13445952D01*
X15469857Y-13436428D01*
X15460333Y-13417381D01*
X15460333Y-13360238D01*
X15469857Y-13341190D01*
X15479381Y-13331667D01*
X15498428Y-13322143D01*
X15527000Y-13322143D01*
X15546048Y-13331667D01*
X15555571Y-13341190D01*
X15565095Y-13360238D01*
X15565095Y-13417381D01*
X15555571Y-13436428D01*
X15546048Y-13445952D01*
X15527000Y-13455476D01*
X15498428Y-13455476D01*
X15679381Y-13455476D02*
X15660333Y-13445952D01*
X15650809Y-13426905D01*
X15650809Y-13255476D01*
X15831762Y-13445952D02*
X15812714Y-13455476D01*
X15774619Y-13455476D01*
X15755571Y-13445952D01*
X15746048Y-13426905D01*
X15746048Y-13350714D01*
X15755571Y-13331667D01*
X15774619Y-13322143D01*
X15812714Y-13322143D01*
X15831762Y-13331667D01*
X15841286Y-13350714D01*
X15841286Y-13369762D01*
X15746048Y-13388809D01*
X15917476Y-13445952D02*
X15936524Y-13455476D01*
X15974619Y-13455476D01*
X15993667Y-13445952D01*
X16003190Y-13426905D01*
X16003190Y-13417381D01*
X15993667Y-13398333D01*
X15974619Y-13388809D01*
X15946048Y-13388809D01*
X15927000Y-13379286D01*
X15917476Y-13360238D01*
X15917476Y-13350714D01*
X15927000Y-13331667D01*
X15946048Y-13322143D01*
X15974619Y-13322143D01*
X15993667Y-13331667D01*
X16069857Y-13531667D02*
X16079381Y-13522143D01*
X16098428Y-13493571D01*
X16107952Y-13474524D01*
X16117476Y-13445952D01*
X16127000Y-13398333D01*
X16127000Y-13360238D01*
X16117476Y-13312619D01*
X16107952Y-13284048D01*
X16098428Y-13265000D01*
X16079381Y-13236428D01*
X16069857Y-13226905D01*
D14*
X10908213Y-13650213D02*
X10908213Y-13607787D01*
X10865787Y-13607787D01*
X10865787Y-13650213D01*
X10908213Y-13650213D01*
D11*
X11212714Y-13519476D02*
X11231762Y-13519476D01*
X11250809Y-13529000D01*
X11260333Y-13538524D01*
X11269857Y-13557571D01*
X11279381Y-13595667D01*
X11279381Y-13643286D01*
X11269857Y-13681381D01*
X11260333Y-13700428D01*
X11250809Y-13709952D01*
X11231762Y-13719476D01*
X11212714Y-13719476D01*
X11193667Y-13709952D01*
X11184143Y-13700428D01*
X11174619Y-13681381D01*
X11165095Y-13643286D01*
X11165095Y-13595667D01*
X11174619Y-13557571D01*
X11184143Y-13538524D01*
X11193667Y-13529000D01*
X11212714Y-13519476D01*
X11365095Y-13700428D02*
X11374619Y-13709952D01*
X11365095Y-13719476D01*
X11355571Y-13709952D01*
X11365095Y-13700428D01*
X11365095Y-13719476D01*
X11546048Y-13519476D02*
X11507952Y-13519476D01*
X11488905Y-13529000D01*
X11479381Y-13538524D01*
X11460333Y-13567095D01*
X11450809Y-13605190D01*
X11450809Y-13681381D01*
X11460333Y-13700428D01*
X11469857Y-13709952D01*
X11488905Y-13719476D01*
X11527000Y-13719476D01*
X11546048Y-13709952D01*
X11555571Y-13700428D01*
X11565095Y-13681381D01*
X11565095Y-13633762D01*
X11555571Y-13614714D01*
X11546048Y-13605190D01*
X11527000Y-13595667D01*
X11488905Y-13595667D01*
X11469857Y-13605190D01*
X11460333Y-13614714D01*
X11450809Y-13633762D01*
X11688905Y-13519476D02*
X11707952Y-13519476D01*
X11727000Y-13529000D01*
X11736524Y-13538524D01*
X11746048Y-13557571D01*
X11755571Y-13595667D01*
X11755571Y-13643286D01*
X11746048Y-13681381D01*
X11736524Y-13700428D01*
X11727000Y-13709952D01*
X11707952Y-13719476D01*
X11688905Y-13719476D01*
X11669857Y-13709952D01*
X11660333Y-13700428D01*
X11650809Y-13681381D01*
X11641286Y-13643286D01*
X11641286Y-13595667D01*
X11650809Y-13557571D01*
X11660333Y-13538524D01*
X11669857Y-13529000D01*
X11688905Y-13519476D01*
X11879381Y-13519476D02*
X11898428Y-13519476D01*
X11917476Y-13529000D01*
X11927000Y-13538524D01*
X11936524Y-13557571D01*
X11946048Y-13595667D01*
X11946048Y-13643286D01*
X11936524Y-13681381D01*
X11927000Y-13700428D01*
X11917476Y-13709952D01*
X11898428Y-13719476D01*
X11879381Y-13719476D01*
X11860333Y-13709952D01*
X11850809Y-13700428D01*
X11841286Y-13681381D01*
X11831762Y-13643286D01*
X11831762Y-13595667D01*
X11841286Y-13557571D01*
X11850809Y-13538524D01*
X11860333Y-13529000D01*
X11879381Y-13519476D01*
X12031762Y-13719476D02*
X12031762Y-13586143D01*
X12031762Y-13605190D02*
X12041286Y-13595667D01*
X12060333Y-13586143D01*
X12088905Y-13586143D01*
X12107952Y-13595667D01*
X12117476Y-13614714D01*
X12117476Y-13719476D01*
X12117476Y-13614714D02*
X12127000Y-13595667D01*
X12146048Y-13586143D01*
X12174619Y-13586143D01*
X12193667Y-13595667D01*
X12203190Y-13614714D01*
X12203190Y-13719476D01*
X12298428Y-13719476D02*
X12298428Y-13586143D01*
X12298428Y-13605190D02*
X12307952Y-13595667D01*
X12327000Y-13586143D01*
X12355571Y-13586143D01*
X12374619Y-13595667D01*
X12384143Y-13614714D01*
X12384143Y-13719476D01*
X12384143Y-13614714D02*
X12393667Y-13595667D01*
X12412714Y-13586143D01*
X12441286Y-13586143D01*
X12460333Y-13595667D01*
X12469857Y-13614714D01*
X12469857Y-13719476D01*
X12860333Y-13509952D02*
X12688905Y-13767095D01*
X13117476Y-13519476D02*
X13136524Y-13519476D01*
X13155571Y-13529000D01*
X13165095Y-13538524D01*
X13174619Y-13557571D01*
X13184143Y-13595667D01*
X13184143Y-13643286D01*
X13174619Y-13681381D01*
X13165095Y-13700428D01*
X13155571Y-13709952D01*
X13136524Y-13719476D01*
X13117476Y-13719476D01*
X13098428Y-13709952D01*
X13088905Y-13700428D01*
X13079381Y-13681381D01*
X13069857Y-13643286D01*
X13069857Y-13595667D01*
X13079381Y-13557571D01*
X13088905Y-13538524D01*
X13098428Y-13529000D01*
X13117476Y-13519476D01*
X13269857Y-13700428D02*
X13279381Y-13709952D01*
X13269857Y-13719476D01*
X13260333Y-13709952D01*
X13269857Y-13700428D01*
X13269857Y-13719476D01*
X13403190Y-13519476D02*
X13422238Y-13519476D01*
X13441286Y-13529000D01*
X13450809Y-13538524D01*
X13460333Y-13557571D01*
X13469857Y-13595667D01*
X13469857Y-13643286D01*
X13460333Y-13681381D01*
X13450809Y-13700428D01*
X13441286Y-13709952D01*
X13422238Y-13719476D01*
X13403190Y-13719476D01*
X13384143Y-13709952D01*
X13374619Y-13700428D01*
X13365095Y-13681381D01*
X13355571Y-13643286D01*
X13355571Y-13595667D01*
X13365095Y-13557571D01*
X13374619Y-13538524D01*
X13384143Y-13529000D01*
X13403190Y-13519476D01*
X13546048Y-13538524D02*
X13555571Y-13529000D01*
X13574619Y-13519476D01*
X13622238Y-13519476D01*
X13641286Y-13529000D01*
X13650809Y-13538524D01*
X13660333Y-13557571D01*
X13660333Y-13576619D01*
X13650809Y-13605190D01*
X13536524Y-13719476D01*
X13660333Y-13719476D01*
X13727000Y-13519476D02*
X13850809Y-13519476D01*
X13784143Y-13595667D01*
X13812714Y-13595667D01*
X13831762Y-13605190D01*
X13841286Y-13614714D01*
X13850809Y-13633762D01*
X13850809Y-13681381D01*
X13841286Y-13700428D01*
X13831762Y-13709952D01*
X13812714Y-13719476D01*
X13755571Y-13719476D01*
X13736524Y-13709952D01*
X13727000Y-13700428D01*
X14022238Y-13519476D02*
X13984143Y-13519476D01*
X13965095Y-13529000D01*
X13955571Y-13538524D01*
X13936524Y-13567095D01*
X13927000Y-13605190D01*
X13927000Y-13681381D01*
X13936524Y-13700428D01*
X13946048Y-13709952D01*
X13965095Y-13719476D01*
X14003190Y-13719476D01*
X14022238Y-13709952D01*
X14031762Y-13700428D01*
X14041286Y-13681381D01*
X14041286Y-13633762D01*
X14031762Y-13614714D01*
X14022238Y-13605190D01*
X14003190Y-13595667D01*
X13965095Y-13595667D01*
X13946048Y-13605190D01*
X13936524Y-13614714D01*
X13927000Y-13633762D01*
X14117476Y-13519476D02*
X14117476Y-13557571D01*
X14193667Y-13519476D02*
X14193667Y-13557571D01*
X14488905Y-13795667D02*
X14479381Y-13786143D01*
X14460333Y-13757571D01*
X14450809Y-13738524D01*
X14441286Y-13709952D01*
X14431762Y-13662333D01*
X14431762Y-13624238D01*
X14441286Y-13576619D01*
X14450809Y-13548048D01*
X14460333Y-13529000D01*
X14479381Y-13500428D01*
X14488905Y-13490905D01*
X14603190Y-13519476D02*
X14622238Y-13519476D01*
X14641286Y-13529000D01*
X14650809Y-13538524D01*
X14660333Y-13557571D01*
X14669857Y-13595667D01*
X14669857Y-13643286D01*
X14660333Y-13681381D01*
X14650809Y-13700428D01*
X14641286Y-13709952D01*
X14622238Y-13719476D01*
X14603190Y-13719476D01*
X14584143Y-13709952D01*
X14574619Y-13700428D01*
X14565095Y-13681381D01*
X14555571Y-13643286D01*
X14555571Y-13595667D01*
X14565095Y-13557571D01*
X14574619Y-13538524D01*
X14584143Y-13529000D01*
X14603190Y-13519476D01*
X14907952Y-13719476D02*
X14907952Y-13519476D01*
X14993667Y-13719476D02*
X14993667Y-13614714D01*
X14984143Y-13595667D01*
X14965095Y-13586143D01*
X14936524Y-13586143D01*
X14917476Y-13595667D01*
X14907952Y-13605190D01*
X15117476Y-13719476D02*
X15098428Y-13709952D01*
X15088905Y-13700428D01*
X15079381Y-13681381D01*
X15079381Y-13624238D01*
X15088905Y-13605190D01*
X15098428Y-13595667D01*
X15117476Y-13586143D01*
X15146048Y-13586143D01*
X15165095Y-13595667D01*
X15174619Y-13605190D01*
X15184143Y-13624238D01*
X15184143Y-13681381D01*
X15174619Y-13700428D01*
X15165095Y-13709952D01*
X15146048Y-13719476D01*
X15117476Y-13719476D01*
X15298428Y-13719476D02*
X15279381Y-13709952D01*
X15269857Y-13690905D01*
X15269857Y-13519476D01*
X15450809Y-13709952D02*
X15431762Y-13719476D01*
X15393667Y-13719476D01*
X15374619Y-13709952D01*
X15365095Y-13690905D01*
X15365095Y-13614714D01*
X15374619Y-13595667D01*
X15393667Y-13586143D01*
X15431762Y-13586143D01*
X15450809Y-13595667D01*
X15460333Y-13614714D01*
X15460333Y-13633762D01*
X15365095Y-13652809D01*
X15536524Y-13709952D02*
X15555571Y-13719476D01*
X15593667Y-13719476D01*
X15612714Y-13709952D01*
X15622238Y-13690905D01*
X15622238Y-13681381D01*
X15612714Y-13662333D01*
X15593667Y-13652809D01*
X15565095Y-13652809D01*
X15546048Y-13643286D01*
X15536524Y-13624238D01*
X15536524Y-13614714D01*
X15546048Y-13595667D01*
X15565095Y-13586143D01*
X15593667Y-13586143D01*
X15612714Y-13595667D01*
X15860333Y-13643286D02*
X16012714Y-13643286D01*
X15936524Y-13719476D02*
X15936524Y-13567095D01*
X16346048Y-13586143D02*
X16346048Y-13719476D01*
X16298428Y-13509952D02*
X16250809Y-13652809D01*
X16374619Y-13652809D01*
X16593667Y-13709952D02*
X16612714Y-13719476D01*
X16650809Y-13719476D01*
X16669857Y-13709952D01*
X16679381Y-13690905D01*
X16679381Y-13681381D01*
X16669857Y-13662333D01*
X16650809Y-13652809D01*
X16622238Y-13652809D01*
X16603190Y-13643286D01*
X16593667Y-13624238D01*
X16593667Y-13614714D01*
X16603190Y-13595667D01*
X16622238Y-13586143D01*
X16650809Y-13586143D01*
X16669857Y-13595667D01*
X16793667Y-13719476D02*
X16774619Y-13709952D01*
X16765095Y-13690905D01*
X16765095Y-13519476D01*
X16898429Y-13719476D02*
X16879381Y-13709952D01*
X16869857Y-13700428D01*
X16860333Y-13681381D01*
X16860333Y-13624238D01*
X16869857Y-13605190D01*
X16879381Y-13595667D01*
X16898429Y-13586143D01*
X16927000Y-13586143D01*
X16946048Y-13595667D01*
X16955571Y-13605190D01*
X16965095Y-13624238D01*
X16965095Y-13681381D01*
X16955571Y-13700428D01*
X16946048Y-13709952D01*
X16927000Y-13719476D01*
X16898429Y-13719476D01*
X17022238Y-13586143D02*
X17098429Y-13586143D01*
X17050810Y-13519476D02*
X17050810Y-13690905D01*
X17060333Y-13709952D01*
X17079381Y-13719476D01*
X17098429Y-13719476D01*
X17155571Y-13709952D02*
X17174619Y-13719476D01*
X17212714Y-13719476D01*
X17231762Y-13709952D01*
X17241286Y-13690905D01*
X17241286Y-13681381D01*
X17231762Y-13662333D01*
X17212714Y-13652809D01*
X17184143Y-13652809D01*
X17165095Y-13643286D01*
X17155571Y-13624238D01*
X17155571Y-13614714D01*
X17165095Y-13595667D01*
X17184143Y-13586143D01*
X17212714Y-13586143D01*
X17231762Y-13595667D01*
X17307952Y-13795667D02*
X17317476Y-13786143D01*
X17336524Y-13757571D01*
X17346048Y-13738524D01*
X17355571Y-13709952D01*
X17365095Y-13662333D01*
X17365095Y-13624238D01*
X17355571Y-13576619D01*
X17346048Y-13548048D01*
X17336524Y-13529000D01*
X17317476Y-13500428D01*
X17307952Y-13490905D01*
D15*
X10874500Y-13935500D02*
X10917000Y-13893000D01*
X10874500Y-13850500D01*
X10832000Y-13893000D01*
X10874500Y-13935500D01*
D11*
X11212714Y-13783476D02*
X11231762Y-13783476D01*
X11250809Y-13793000D01*
X11260333Y-13802524D01*
X11269857Y-13821571D01*
X11279381Y-13859667D01*
X11279381Y-13907286D01*
X11269857Y-13945381D01*
X11260333Y-13964428D01*
X11250809Y-13973952D01*
X11231762Y-13983476D01*
X11212714Y-13983476D01*
X11193667Y-13973952D01*
X11184143Y-13964428D01*
X11174619Y-13945381D01*
X11165095Y-13907286D01*
X11165095Y-13859667D01*
X11174619Y-13821571D01*
X11184143Y-13802524D01*
X11193667Y-13793000D01*
X11212714Y-13783476D01*
X11365095Y-13964428D02*
X11374619Y-13973952D01*
X11365095Y-13983476D01*
X11355571Y-13973952D01*
X11365095Y-13964428D01*
X11365095Y-13983476D01*
X11488905Y-13869190D02*
X11469857Y-13859667D01*
X11460333Y-13850143D01*
X11450809Y-13831095D01*
X11450809Y-13821571D01*
X11460333Y-13802524D01*
X11469857Y-13793000D01*
X11488905Y-13783476D01*
X11527000Y-13783476D01*
X11546048Y-13793000D01*
X11555571Y-13802524D01*
X11565095Y-13821571D01*
X11565095Y-13831095D01*
X11555571Y-13850143D01*
X11546048Y-13859667D01*
X11527000Y-13869190D01*
X11488905Y-13869190D01*
X11469857Y-13878714D01*
X11460333Y-13888238D01*
X11450809Y-13907286D01*
X11450809Y-13945381D01*
X11460333Y-13964428D01*
X11469857Y-13973952D01*
X11488905Y-13983476D01*
X11527000Y-13983476D01*
X11546048Y-13973952D01*
X11555571Y-13964428D01*
X11565095Y-13945381D01*
X11565095Y-13907286D01*
X11555571Y-13888238D01*
X11546048Y-13878714D01*
X11527000Y-13869190D01*
X11746048Y-13783476D02*
X11650809Y-13783476D01*
X11641286Y-13878714D01*
X11650809Y-13869190D01*
X11669857Y-13859667D01*
X11717476Y-13859667D01*
X11736524Y-13869190D01*
X11746048Y-13878714D01*
X11755571Y-13897762D01*
X11755571Y-13945381D01*
X11746048Y-13964428D01*
X11736524Y-13973952D01*
X11717476Y-13983476D01*
X11669857Y-13983476D01*
X11650809Y-13973952D01*
X11641286Y-13964428D01*
X11879381Y-13783476D02*
X11898428Y-13783476D01*
X11917476Y-13793000D01*
X11927000Y-13802524D01*
X11936524Y-13821571D01*
X11946048Y-13859667D01*
X11946048Y-13907286D01*
X11936524Y-13945381D01*
X11927000Y-13964428D01*
X11917476Y-13973952D01*
X11898428Y-13983476D01*
X11879381Y-13983476D01*
X11860333Y-13973952D01*
X11850809Y-13964428D01*
X11841286Y-13945381D01*
X11831762Y-13907286D01*
X11831762Y-13859667D01*
X11841286Y-13821571D01*
X11850809Y-13802524D01*
X11860333Y-13793000D01*
X11879381Y-13783476D01*
X12031762Y-13983476D02*
X12031762Y-13850143D01*
X12031762Y-13869190D02*
X12041286Y-13859667D01*
X12060333Y-13850143D01*
X12088905Y-13850143D01*
X12107952Y-13859667D01*
X12117476Y-13878714D01*
X12117476Y-13983476D01*
X12117476Y-13878714D02*
X12127000Y-13859667D01*
X12146048Y-13850143D01*
X12174619Y-13850143D01*
X12193667Y-13859667D01*
X12203190Y-13878714D01*
X12203190Y-13983476D01*
X12298428Y-13983476D02*
X12298428Y-13850143D01*
X12298428Y-13869190D02*
X12307952Y-13859667D01*
X12327000Y-13850143D01*
X12355571Y-13850143D01*
X12374619Y-13859667D01*
X12384143Y-13878714D01*
X12384143Y-13983476D01*
X12384143Y-13878714D02*
X12393667Y-13859667D01*
X12412714Y-13850143D01*
X12441286Y-13850143D01*
X12460333Y-13859667D01*
X12469857Y-13878714D01*
X12469857Y-13983476D01*
X12860333Y-13773952D02*
X12688905Y-14031095D01*
X13117476Y-13783476D02*
X13136524Y-13783476D01*
X13155571Y-13793000D01*
X13165095Y-13802524D01*
X13174619Y-13821571D01*
X13184143Y-13859667D01*
X13184143Y-13907286D01*
X13174619Y-13945381D01*
X13165095Y-13964428D01*
X13155571Y-13973952D01*
X13136524Y-13983476D01*
X13117476Y-13983476D01*
X13098428Y-13973952D01*
X13088905Y-13964428D01*
X13079381Y-13945381D01*
X13069857Y-13907286D01*
X13069857Y-13859667D01*
X13079381Y-13821571D01*
X13088905Y-13802524D01*
X13098428Y-13793000D01*
X13117476Y-13783476D01*
X13269857Y-13964428D02*
X13279381Y-13973952D01*
X13269857Y-13983476D01*
X13260333Y-13973952D01*
X13269857Y-13964428D01*
X13269857Y-13983476D01*
X13403190Y-13783476D02*
X13422238Y-13783476D01*
X13441286Y-13793000D01*
X13450809Y-13802524D01*
X13460333Y-13821571D01*
X13469857Y-13859667D01*
X13469857Y-13907286D01*
X13460333Y-13945381D01*
X13450809Y-13964428D01*
X13441286Y-13973952D01*
X13422238Y-13983476D01*
X13403190Y-13983476D01*
X13384143Y-13973952D01*
X13374619Y-13964428D01*
X13365095Y-13945381D01*
X13355571Y-13907286D01*
X13355571Y-13859667D01*
X13365095Y-13821571D01*
X13374619Y-13802524D01*
X13384143Y-13793000D01*
X13403190Y-13783476D01*
X13536524Y-13783476D02*
X13660333Y-13783476D01*
X13593667Y-13859667D01*
X13622238Y-13859667D01*
X13641286Y-13869190D01*
X13650809Y-13878714D01*
X13660333Y-13897762D01*
X13660333Y-13945381D01*
X13650809Y-13964428D01*
X13641286Y-13973952D01*
X13622238Y-13983476D01*
X13565095Y-13983476D01*
X13546048Y-13973952D01*
X13536524Y-13964428D01*
X13727000Y-13783476D02*
X13850809Y-13783476D01*
X13784143Y-13859667D01*
X13812714Y-13859667D01*
X13831762Y-13869190D01*
X13841286Y-13878714D01*
X13850809Y-13897762D01*
X13850809Y-13945381D01*
X13841286Y-13964428D01*
X13831762Y-13973952D01*
X13812714Y-13983476D01*
X13755571Y-13983476D01*
X13736524Y-13973952D01*
X13727000Y-13964428D01*
X14031762Y-13783476D02*
X13936524Y-13783476D01*
X13927000Y-13878714D01*
X13936524Y-13869190D01*
X13955571Y-13859667D01*
X14003190Y-13859667D01*
X14022238Y-13869190D01*
X14031762Y-13878714D01*
X14041286Y-13897762D01*
X14041286Y-13945381D01*
X14031762Y-13964428D01*
X14022238Y-13973952D01*
X14003190Y-13983476D01*
X13955571Y-13983476D01*
X13936524Y-13973952D01*
X13927000Y-13964428D01*
X14117476Y-13783476D02*
X14117476Y-13821571D01*
X14193667Y-13783476D02*
X14193667Y-13821571D01*
X14488905Y-14059667D02*
X14479381Y-14050143D01*
X14460333Y-14021571D01*
X14450809Y-14002524D01*
X14441286Y-13973952D01*
X14431762Y-13926333D01*
X14431762Y-13888238D01*
X14441286Y-13840619D01*
X14450809Y-13812048D01*
X14460333Y-13793000D01*
X14479381Y-13764428D01*
X14488905Y-13754905D01*
X14650809Y-13850143D02*
X14650809Y-13983476D01*
X14603190Y-13773952D02*
X14555571Y-13916809D01*
X14679381Y-13916809D01*
X14907952Y-13983476D02*
X14907952Y-13783476D01*
X14993667Y-13983476D02*
X14993667Y-13878714D01*
X14984143Y-13859667D01*
X14965095Y-13850143D01*
X14936524Y-13850143D01*
X14917476Y-13859667D01*
X14907952Y-13869190D01*
X15117476Y-13983476D02*
X15098428Y-13973952D01*
X15088905Y-13964428D01*
X15079381Y-13945381D01*
X15079381Y-13888238D01*
X15088905Y-13869190D01*
X15098428Y-13859667D01*
X15117476Y-13850143D01*
X15146048Y-13850143D01*
X15165095Y-13859667D01*
X15174619Y-13869190D01*
X15184143Y-13888238D01*
X15184143Y-13945381D01*
X15174619Y-13964428D01*
X15165095Y-13973952D01*
X15146048Y-13983476D01*
X15117476Y-13983476D01*
X15298428Y-13983476D02*
X15279381Y-13973952D01*
X15269857Y-13954905D01*
X15269857Y-13783476D01*
X15450809Y-13973952D02*
X15431762Y-13983476D01*
X15393667Y-13983476D01*
X15374619Y-13973952D01*
X15365095Y-13954905D01*
X15365095Y-13878714D01*
X15374619Y-13859667D01*
X15393667Y-13850143D01*
X15431762Y-13850143D01*
X15450809Y-13859667D01*
X15460333Y-13878714D01*
X15460333Y-13897762D01*
X15365095Y-13916809D01*
X15536524Y-13973952D02*
X15555571Y-13983476D01*
X15593667Y-13983476D01*
X15612714Y-13973952D01*
X15622238Y-13954905D01*
X15622238Y-13945381D01*
X15612714Y-13926333D01*
X15593667Y-13916809D01*
X15565095Y-13916809D01*
X15546048Y-13907286D01*
X15536524Y-13888238D01*
X15536524Y-13878714D01*
X15546048Y-13859667D01*
X15565095Y-13850143D01*
X15593667Y-13850143D01*
X15612714Y-13859667D01*
X15688905Y-14059667D02*
X15698428Y-14050143D01*
X15717476Y-14021571D01*
X15727000Y-14002524D01*
X15736524Y-13973952D01*
X15746048Y-13926333D01*
X15746048Y-13888238D01*
X15736524Y-13840619D01*
X15727000Y-13812048D01*
X15717476Y-13793000D01*
X15698428Y-13764428D01*
X15688905Y-13754905D01*
D10*
X10817000Y-14107000D02*
X10917000Y-14207000D01*
X10917000Y-14107000D02*
X10817000Y-14207000D01*
X10917000Y-14157000D02*
G75*
G03*
X10917000Y-14157000I-50000J0D01*
G01*
D11*
X11279381Y-14247476D02*
X11165095Y-14247476D01*
X11222238Y-14247476D02*
X11222238Y-14047476D01*
X11203190Y-14076048D01*
X11184143Y-14095095D01*
X11165095Y-14104619D01*
X11365095Y-14228428D02*
X11374619Y-14237952D01*
X11365095Y-14247476D01*
X11355571Y-14237952D01*
X11365095Y-14228428D01*
X11365095Y-14247476D01*
X11498428Y-14047476D02*
X11517476Y-14047476D01*
X11536524Y-14057000D01*
X11546048Y-14066524D01*
X11555571Y-14085571D01*
X11565095Y-14123667D01*
X11565095Y-14171286D01*
X11555571Y-14209381D01*
X11546048Y-14228428D01*
X11536524Y-14237952D01*
X11517476Y-14247476D01*
X11498428Y-14247476D01*
X11479381Y-14237952D01*
X11469857Y-14228428D01*
X11460333Y-14209381D01*
X11450809Y-14171286D01*
X11450809Y-14123667D01*
X11460333Y-14085571D01*
X11469857Y-14066524D01*
X11479381Y-14057000D01*
X11498428Y-14047476D01*
X11688905Y-14047476D02*
X11707952Y-14047476D01*
X11727000Y-14057000D01*
X11736524Y-14066524D01*
X11746048Y-14085571D01*
X11755571Y-14123667D01*
X11755571Y-14171286D01*
X11746048Y-14209381D01*
X11736524Y-14228428D01*
X11727000Y-14237952D01*
X11707952Y-14247476D01*
X11688905Y-14247476D01*
X11669857Y-14237952D01*
X11660333Y-14228428D01*
X11650809Y-14209381D01*
X11641286Y-14171286D01*
X11641286Y-14123667D01*
X11650809Y-14085571D01*
X11660333Y-14066524D01*
X11669857Y-14057000D01*
X11688905Y-14047476D01*
X11879381Y-14047476D02*
X11898428Y-14047476D01*
X11917476Y-14057000D01*
X11927000Y-14066524D01*
X11936524Y-14085571D01*
X11946048Y-14123667D01*
X11946048Y-14171286D01*
X11936524Y-14209381D01*
X11927000Y-14228428D01*
X11917476Y-14237952D01*
X11898428Y-14247476D01*
X11879381Y-14247476D01*
X11860333Y-14237952D01*
X11850809Y-14228428D01*
X11841286Y-14209381D01*
X11831762Y-14171286D01*
X11831762Y-14123667D01*
X11841286Y-14085571D01*
X11850809Y-14066524D01*
X11860333Y-14057000D01*
X11879381Y-14047476D01*
X12031762Y-14247476D02*
X12031762Y-14114143D01*
X12031762Y-14133190D02*
X12041286Y-14123667D01*
X12060333Y-14114143D01*
X12088905Y-14114143D01*
X12107952Y-14123667D01*
X12117476Y-14142714D01*
X12117476Y-14247476D01*
X12117476Y-14142714D02*
X12127000Y-14123667D01*
X12146048Y-14114143D01*
X12174619Y-14114143D01*
X12193667Y-14123667D01*
X12203190Y-14142714D01*
X12203190Y-14247476D01*
X12298428Y-14247476D02*
X12298428Y-14114143D01*
X12298428Y-14133190D02*
X12307952Y-14123667D01*
X12327000Y-14114143D01*
X12355571Y-14114143D01*
X12374619Y-14123667D01*
X12384143Y-14142714D01*
X12384143Y-14247476D01*
X12384143Y-14142714D02*
X12393667Y-14123667D01*
X12412714Y-14114143D01*
X12441286Y-14114143D01*
X12460333Y-14123667D01*
X12469857Y-14142714D01*
X12469857Y-14247476D01*
X12860333Y-14037952D02*
X12688905Y-14295095D01*
X13117476Y-14047476D02*
X13136524Y-14047476D01*
X13155571Y-14057000D01*
X13165095Y-14066524D01*
X13174619Y-14085571D01*
X13184143Y-14123667D01*
X13184143Y-14171286D01*
X13174619Y-14209381D01*
X13165095Y-14228428D01*
X13155571Y-14237952D01*
X13136524Y-14247476D01*
X13117476Y-14247476D01*
X13098428Y-14237952D01*
X13088905Y-14228428D01*
X13079381Y-14209381D01*
X13069857Y-14171286D01*
X13069857Y-14123667D01*
X13079381Y-14085571D01*
X13088905Y-14066524D01*
X13098428Y-14057000D01*
X13117476Y-14047476D01*
X13269857Y-14228428D02*
X13279381Y-14237952D01*
X13269857Y-14247476D01*
X13260333Y-14237952D01*
X13269857Y-14228428D01*
X13269857Y-14247476D01*
X13403190Y-14047476D02*
X13422238Y-14047476D01*
X13441286Y-14057000D01*
X13450809Y-14066524D01*
X13460333Y-14085571D01*
X13469857Y-14123667D01*
X13469857Y-14171286D01*
X13460333Y-14209381D01*
X13450809Y-14228428D01*
X13441286Y-14237952D01*
X13422238Y-14247476D01*
X13403190Y-14247476D01*
X13384143Y-14237952D01*
X13374619Y-14228428D01*
X13365095Y-14209381D01*
X13355571Y-14171286D01*
X13355571Y-14123667D01*
X13365095Y-14085571D01*
X13374619Y-14066524D01*
X13384143Y-14057000D01*
X13403190Y-14047476D01*
X13536524Y-14047476D02*
X13660333Y-14047476D01*
X13593667Y-14123667D01*
X13622238Y-14123667D01*
X13641286Y-14133190D01*
X13650809Y-14142714D01*
X13660333Y-14161762D01*
X13660333Y-14209381D01*
X13650809Y-14228428D01*
X13641286Y-14237952D01*
X13622238Y-14247476D01*
X13565095Y-14247476D01*
X13546048Y-14237952D01*
X13536524Y-14228428D01*
X13755571Y-14247476D02*
X13793667Y-14247476D01*
X13812714Y-14237952D01*
X13822238Y-14228428D01*
X13841286Y-14199857D01*
X13850809Y-14161762D01*
X13850809Y-14085571D01*
X13841286Y-14066524D01*
X13831762Y-14057000D01*
X13812714Y-14047476D01*
X13774619Y-14047476D01*
X13755571Y-14057000D01*
X13746048Y-14066524D01*
X13736524Y-14085571D01*
X13736524Y-14133190D01*
X13746048Y-14152238D01*
X13755571Y-14161762D01*
X13774619Y-14171286D01*
X13812714Y-14171286D01*
X13831762Y-14161762D01*
X13841286Y-14152238D01*
X13850809Y-14133190D01*
X14022238Y-14114143D02*
X14022238Y-14247476D01*
X13974619Y-14037952D02*
X13927000Y-14180809D01*
X14050809Y-14180809D01*
X14117476Y-14047476D02*
X14117476Y-14085571D01*
X14193667Y-14047476D02*
X14193667Y-14085571D01*
X14488905Y-14323667D02*
X14479381Y-14314143D01*
X14460333Y-14285571D01*
X14450809Y-14266524D01*
X14441286Y-14237952D01*
X14431762Y-14190333D01*
X14431762Y-14152238D01*
X14441286Y-14104619D01*
X14450809Y-14076048D01*
X14460333Y-14057000D01*
X14479381Y-14028428D01*
X14488905Y-14018905D01*
X14546048Y-14047476D02*
X14679381Y-14047476D01*
X14593667Y-14247476D01*
X14860333Y-14247476D02*
X14746048Y-14247476D01*
X14803190Y-14247476D02*
X14803190Y-14047476D01*
X14784143Y-14076048D01*
X14765095Y-14095095D01*
X14746048Y-14104619D01*
X15098428Y-14247476D02*
X15098428Y-14047476D01*
X15184143Y-14247476D02*
X15184143Y-14142714D01*
X15174619Y-14123667D01*
X15155571Y-14114143D01*
X15127000Y-14114143D01*
X15107952Y-14123667D01*
X15098428Y-14133190D01*
X15307952Y-14247476D02*
X15288905Y-14237952D01*
X15279381Y-14228428D01*
X15269857Y-14209381D01*
X15269857Y-14152238D01*
X15279381Y-14133190D01*
X15288905Y-14123667D01*
X15307952Y-14114143D01*
X15336524Y-14114143D01*
X15355571Y-14123667D01*
X15365095Y-14133190D01*
X15374619Y-14152238D01*
X15374619Y-14209381D01*
X15365095Y-14228428D01*
X15355571Y-14237952D01*
X15336524Y-14247476D01*
X15307952Y-14247476D01*
X15488905Y-14247476D02*
X15469857Y-14237952D01*
X15460333Y-14218905D01*
X15460333Y-14047476D01*
X15641286Y-14237952D02*
X15622238Y-14247476D01*
X15584143Y-14247476D01*
X15565095Y-14237952D01*
X15555571Y-14218905D01*
X15555571Y-14142714D01*
X15565095Y-14123667D01*
X15584143Y-14114143D01*
X15622238Y-14114143D01*
X15641286Y-14123667D01*
X15650809Y-14142714D01*
X15650809Y-14161762D01*
X15555571Y-14180809D01*
X15727000Y-14237952D02*
X15746048Y-14247476D01*
X15784143Y-14247476D01*
X15803190Y-14237952D01*
X15812714Y-14218905D01*
X15812714Y-14209381D01*
X15803190Y-14190333D01*
X15784143Y-14180809D01*
X15755571Y-14180809D01*
X15736524Y-14171286D01*
X15727000Y-14152238D01*
X15727000Y-14142714D01*
X15736524Y-14123667D01*
X15755571Y-14114143D01*
X15784143Y-14114143D01*
X15803190Y-14123667D01*
X15879381Y-14323667D02*
X15888905Y-14314143D01*
X15907952Y-14285571D01*
X15917476Y-14266524D01*
X15927000Y-14237952D01*
X15936524Y-14190333D01*
X15936524Y-14152238D01*
X15927000Y-14104619D01*
X15917476Y-14076048D01*
X15907952Y-14057000D01*
X15888905Y-14028428D01*
X15879381Y-14018905D01*
M02*
