G04 #@! TF.GenerationSoftware,KiCad,Pcbnew,(6.0.7)*
G04 #@! TF.CreationDate,2022-09-05T12:55:51-07:00*
G04 #@! TF.ProjectId,ice2040,69636532-3034-4302-9e6b-696361645f70,1*
G04 #@! TF.SameCoordinates,Original*
G04 #@! TF.FileFunction,Soldermask,Top*
G04 #@! TF.FilePolarity,Negative*
%FSLAX46Y46*%
G04 Gerber Fmt 4.6, Leading zero omitted, Abs format (unit mm)*
G04 Created by KiCad (PCBNEW (6.0.7)) date 2022-09-05 12:55:51*
%MOMM*%
%LPD*%
G01*
G04 APERTURE LIST*
G04 Aperture macros list*
%AMRoundRect*
0 Rectangle with rounded corners*
0 $1 Rounding radius*
0 $2 $3 $4 $5 $6 $7 $8 $9 X,Y pos of 4 corners*
0 Add a 4 corners polygon primitive as box body*
4,1,4,$2,$3,$4,$5,$6,$7,$8,$9,$2,$3,0*
0 Add four circle primitives for the rounded corners*
1,1,$1+$1,$2,$3*
1,1,$1+$1,$4,$5*
1,1,$1+$1,$6,$7*
1,1,$1+$1,$8,$9*
0 Add four rect primitives between the rounded corners*
20,1,$1+$1,$2,$3,$4,$5,0*
20,1,$1+$1,$4,$5,$6,$7,0*
20,1,$1+$1,$6,$7,$8,$9,0*
20,1,$1+$1,$8,$9,$2,$3,0*%
G04 Aperture macros list end*
%ADD10C,0.127000*%
%ADD11C,0.135000*%
%ADD12RoundRect,0.200000X-0.200000X-0.275000X0.200000X-0.275000X0.200000X0.275000X-0.200000X0.275000X0*%
%ADD13RoundRect,0.135000X0.135000X0.185000X-0.135000X0.185000X-0.135000X-0.185000X0.135000X-0.185000X0*%
%ADD14RoundRect,0.135000X-0.185000X0.135000X-0.185000X-0.135000X0.185000X-0.135000X0.185000X0.135000X0*%
%ADD15RoundRect,0.140000X0.140000X0.170000X-0.140000X0.170000X-0.140000X-0.170000X0.140000X-0.170000X0*%
%ADD16RoundRect,0.135000X0.185000X-0.135000X0.185000X0.135000X-0.185000X0.135000X-0.185000X-0.135000X0*%
%ADD17RoundRect,0.135000X-0.135000X-0.185000X0.135000X-0.185000X0.135000X0.185000X-0.135000X0.185000X0*%
%ADD18RoundRect,0.250000X0.450000X0.425000X-0.450000X0.425000X-0.450000X-0.425000X0.450000X-0.425000X0*%
%ADD19R,1.400000X1.200000*%
%ADD20R,1.500000X2.000000*%
%ADD21R,3.800000X2.000000*%
%ADD22RoundRect,0.140000X-0.140000X-0.170000X0.140000X-0.170000X0.140000X0.170000X-0.140000X0.170000X0*%
%ADD23R,0.400000X1.350000*%
%ADD24C,1.450000*%
%ADD25R,1.200000X1.900000*%
%ADD26O,1.200000X1.900000*%
%ADD27R,1.500000X1.900000*%
%ADD28RoundRect,0.140000X-0.170000X0.140000X-0.170000X-0.140000X0.170000X-0.140000X0.170000X0.140000X0*%
%ADD29RoundRect,0.140000X0.170000X-0.140000X0.170000X0.140000X-0.170000X0.140000X-0.170000X-0.140000X0*%
%ADD30R,0.900000X1.200000*%
%ADD31RoundRect,0.150000X0.150000X-0.512500X0.150000X0.512500X-0.150000X0.512500X-0.150000X-0.512500X0*%
%ADD32R,1.700000X1.700000*%
%ADD33O,1.700000X1.700000*%
%ADD34R,1.800000X1.100000*%
%ADD35RoundRect,0.218750X-0.218750X-0.256250X0.218750X-0.256250X0.218750X0.256250X-0.218750X0.256250X0*%
%ADD36RoundRect,0.150000X0.650000X0.150000X-0.650000X0.150000X-0.650000X-0.150000X0.650000X-0.150000X0*%
%ADD37C,2.200000*%
%ADD38C,0.127000*%
%ADD39C,0.254000*%
%ADD40RoundRect,0.050000X0.387500X0.050000X-0.387500X0.050000X-0.387500X-0.050000X0.387500X-0.050000X0*%
%ADD41RoundRect,0.050000X0.050000X0.387500X-0.050000X0.387500X-0.050000X-0.387500X0.050000X-0.387500X0*%
%ADD42R,3.200000X3.200000*%
%ADD43R,1.350000X0.400000*%
%ADD44O,1.900000X1.200000*%
%ADD45R,1.900000X1.200000*%
%ADD46R,1.900000X1.500000*%
G04 APERTURE END LIST*
D10*
X156500000Y-108480000D02*
X156320000Y-108480000D01*
X157920000Y-108080000D02*
X158010000Y-108080000D01*
X156810000Y-107280000D02*
X156721500Y-107280000D01*
X156410000Y-107680000D02*
X156490000Y-107680000D01*
X157610000Y-108480000D02*
X157700000Y-108480000D01*
X157912500Y-108480000D02*
X158010000Y-108480000D01*
X158010000Y-108080000D02*
X158100000Y-108080000D01*
X156410000Y-108880000D02*
X156413850Y-108925298D01*
X156410000Y-108080000D02*
X156320000Y-108080000D01*
X156410000Y-108480000D02*
X156500000Y-108480000D01*
X156810000Y-108880000D02*
X156810000Y-108790000D01*
X156490000Y-107680000D02*
X156320000Y-107680000D01*
X157920000Y-107280000D02*
X158100000Y-107280000D01*
X157610000Y-108790000D02*
X157610000Y-108976000D01*
X156720000Y-107280000D02*
X156900000Y-107280000D01*
X156410000Y-106880000D02*
X156340000Y-106810000D01*
X156500000Y-107280000D02*
X156410000Y-107280000D01*
X156410000Y-108080000D02*
X156500000Y-108080000D01*
X158009500Y-108791000D02*
X158009500Y-108969000D01*
X156810000Y-106880000D02*
X156810000Y-106780000D01*
X156810000Y-108790000D02*
X156810000Y-108970000D01*
X156810000Y-106880000D02*
X156810000Y-106970000D01*
X109220000Y-114935000D02*
X113665000Y-114935000D01*
X113665000Y-114935000D02*
X113665000Y-121920000D01*
X113665000Y-121920000D02*
X109220000Y-121920000D01*
X109220000Y-121920000D02*
X109220000Y-114935000D01*
G36*
X109220000Y-114935000D02*
G01*
X113665000Y-114935000D01*
X113665000Y-121920000D01*
X109220000Y-121920000D01*
X109220000Y-114935000D01*
G37*
X157210000Y-108880000D02*
X157210000Y-108790000D01*
X157210000Y-106790000D02*
X157210000Y-106880000D01*
X156810000Y-106780000D02*
X156810000Y-106880000D01*
X157610000Y-108080000D02*
X157700000Y-108080000D01*
X158010000Y-108480000D02*
X158100000Y-108480000D01*
D11*
X157610000Y-106850000D02*
X157662500Y-106800000D01*
D10*
X156410000Y-107280000D02*
X156500000Y-107280000D01*
X157700000Y-108080000D02*
X157520000Y-108080000D01*
X157610000Y-108880000D02*
X157610000Y-108790000D01*
X156410000Y-106880000D02*
X156410000Y-106970000D01*
X157210000Y-106880000D02*
X157210000Y-106790000D01*
X156410000Y-107280000D02*
X156340000Y-107210000D01*
X156403850Y-108935298D02*
X156373850Y-108965298D01*
X156320000Y-108080000D02*
X156410000Y-108080000D01*
X158010000Y-107280000D02*
X157920000Y-107280000D01*
X158010000Y-107680000D02*
X158100000Y-107680000D01*
X156410000Y-106970000D02*
X156410000Y-106880000D01*
X156410000Y-108880000D02*
X156500000Y-108880000D01*
X157920000Y-107680000D02*
X158010000Y-107680000D01*
X157210000Y-106880000D02*
X157210000Y-106970000D01*
X158010000Y-107680000D02*
X157920000Y-107680000D01*
X158010000Y-106880000D02*
X157920000Y-106880000D01*
X158010000Y-108080000D02*
X157920000Y-108080000D01*
X157210000Y-108790000D02*
X157210000Y-108970000D01*
X156900000Y-107680000D02*
X156720000Y-107680000D01*
X157610000Y-108480000D02*
X157520000Y-108480000D01*
X157700000Y-108480000D02*
X157610000Y-108480000D01*
X156500000Y-108880000D02*
X156410000Y-108880000D01*
X156810000Y-107680000D02*
X156900000Y-107680000D01*
X157610000Y-106860000D02*
X157610000Y-106970000D01*
X158010000Y-106880000D02*
X158071500Y-106819000D01*
D12*
X132875000Y-106500000D03*
X134525000Y-106500000D03*
X132875000Y-108000000D03*
X134525000Y-108000000D03*
D13*
X148630000Y-110280000D03*
X147610000Y-110280000D03*
X144130000Y-101180000D03*
X143110000Y-101180000D03*
D14*
X156813850Y-110345298D03*
X156813850Y-111365298D03*
X159763850Y-110345298D03*
X159763850Y-111365298D03*
D15*
X133800000Y-103220000D03*
X132840000Y-103220000D03*
D13*
X148630000Y-108280000D03*
X147610000Y-108280000D03*
D14*
X143020000Y-104470000D03*
X143020000Y-105490000D03*
D16*
X121120000Y-114390000D03*
X121120000Y-113370000D03*
D17*
X132810000Y-96280000D03*
X133830000Y-96280000D03*
D14*
X142110000Y-94080000D03*
X142110000Y-95100000D03*
D18*
X117570000Y-115880000D03*
X114870000Y-115880000D03*
D15*
X133800000Y-98280000D03*
X132840000Y-98280000D03*
D14*
X140110000Y-94080000D03*
X140110000Y-95100000D03*
D19*
X139810000Y-90990000D03*
X137610000Y-90990000D03*
X137610000Y-92590000D03*
X139810000Y-92590000D03*
D20*
X120420000Y-104930000D03*
X118120000Y-104930000D03*
D21*
X118120000Y-111230000D03*
D20*
X115820000Y-104930000D03*
D22*
X157078500Y-105920000D03*
X158038500Y-105920000D03*
D23*
X121920000Y-117717500D03*
X122570000Y-117717500D03*
X123220000Y-117717500D03*
X123870000Y-117717500D03*
X124520000Y-117717500D03*
D24*
X125720000Y-117717500D03*
X120720000Y-117717500D03*
D25*
X126120000Y-120417500D03*
D26*
X119720000Y-120417500D03*
X126720000Y-120417500D03*
D27*
X122220000Y-120417500D03*
D25*
X120320000Y-120417500D03*
D27*
X124220000Y-120417500D03*
D28*
X155451500Y-108202000D03*
X155451500Y-109162000D03*
D17*
X136410000Y-107280000D03*
X137430000Y-107280000D03*
D13*
X146030000Y-97680000D03*
X145010000Y-97680000D03*
D29*
X132820000Y-105100000D03*
X132820000Y-104140000D03*
D30*
X110670000Y-95980000D03*
X113970000Y-95980000D03*
D13*
X155930000Y-103910000D03*
X154910000Y-103910000D03*
D17*
X130910000Y-95780000D03*
X131930000Y-95780000D03*
D14*
X155863850Y-110345298D03*
X155863850Y-111365298D03*
D16*
X139120000Y-95090000D03*
X139120000Y-94070000D03*
D17*
X132810000Y-100280000D03*
X133830000Y-100280000D03*
X130910000Y-100780000D03*
X131930000Y-100780000D03*
D14*
X158763850Y-110345298D03*
X158763850Y-111365298D03*
D17*
X130910000Y-98780000D03*
X131930000Y-98780000D03*
D31*
X115307500Y-102480000D03*
X116257500Y-102480000D03*
X117207500Y-102480000D03*
X117207500Y-100205000D03*
X116257500Y-100205000D03*
X115307500Y-100205000D03*
D17*
X130910000Y-99780000D03*
X131930000Y-99780000D03*
D13*
X144130000Y-96180000D03*
X143110000Y-96180000D03*
D29*
X138120000Y-95060000D03*
X138120000Y-94100000D03*
D13*
X148630000Y-109280000D03*
X147610000Y-109280000D03*
D17*
X145010000Y-101680000D03*
X146030000Y-101680000D03*
D29*
X137120000Y-95060000D03*
X137120000Y-94100000D03*
D32*
X152400000Y-86380000D03*
D33*
X152400000Y-83840000D03*
D13*
X146030000Y-96680000D03*
X145010000Y-96680000D03*
D32*
X128720000Y-92880000D03*
D33*
X131260000Y-92880000D03*
X133800000Y-92880000D03*
D15*
X155900000Y-104880000D03*
X154940000Y-104880000D03*
D18*
X117570000Y-113680000D03*
X114870000Y-113680000D03*
D28*
X139020000Y-104300000D03*
X139020000Y-105260000D03*
D18*
X117570000Y-118080000D03*
X114870000Y-118080000D03*
D17*
X158953850Y-105185298D03*
X159973850Y-105185298D03*
D32*
X157480000Y-119380000D03*
D33*
X160020000Y-119380000D03*
X162560000Y-119380000D03*
X165100000Y-119380000D03*
X167640000Y-119380000D03*
X170180000Y-119380000D03*
X157480000Y-116840000D03*
X160020000Y-116840000D03*
X162560000Y-116840000D03*
X165100000Y-116840000D03*
X167640000Y-116840000D03*
X170180000Y-116840000D03*
D17*
X130910000Y-96780000D03*
X131930000Y-96780000D03*
D14*
X143110000Y-94080000D03*
X143110000Y-95100000D03*
D17*
X160853850Y-107185298D03*
X161873850Y-107185298D03*
D14*
X141110000Y-94080000D03*
X141110000Y-95100000D03*
D13*
X146030000Y-99680000D03*
X145010000Y-99680000D03*
D17*
X147610000Y-111280000D03*
X148630000Y-111280000D03*
X132810000Y-95280000D03*
X133830000Y-95280000D03*
X152210000Y-108480000D03*
X153230000Y-108480000D03*
D34*
X123020000Y-108130000D03*
X129220000Y-108130000D03*
X123020000Y-104430000D03*
X129220000Y-104430000D03*
D28*
X138020000Y-104300000D03*
X138020000Y-105260000D03*
D17*
X146900000Y-103180000D03*
X147920000Y-103180000D03*
X136410000Y-108280000D03*
X137430000Y-108280000D03*
X160853850Y-105185298D03*
X161873850Y-105185298D03*
X160853850Y-109185298D03*
X161873850Y-109185298D03*
D18*
X113370000Y-107280000D03*
X110670000Y-107280000D03*
D32*
X129540000Y-86360000D03*
D33*
X129540000Y-83820000D03*
D15*
X137400000Y-110780000D03*
X136440000Y-110780000D03*
D17*
X152210000Y-109480000D03*
X153230000Y-109480000D03*
D13*
X146030000Y-100680000D03*
X145010000Y-100680000D03*
D32*
X134620000Y-119380000D03*
D33*
X137160000Y-119380000D03*
X139700000Y-119380000D03*
X142240000Y-119380000D03*
X144780000Y-119380000D03*
X147320000Y-119380000D03*
X134620000Y-116840000D03*
X137160000Y-116840000D03*
X139700000Y-116840000D03*
X142240000Y-116840000D03*
X144780000Y-116840000D03*
X147320000Y-116840000D03*
D17*
X136410000Y-109580000D03*
X137430000Y-109580000D03*
D34*
X129220000Y-110230000D03*
X123020000Y-110230000D03*
X129220000Y-113930000D03*
X123020000Y-113930000D03*
D32*
X111760000Y-86365000D03*
D33*
X114300000Y-86365000D03*
X116840000Y-86365000D03*
X119380000Y-86365000D03*
X121920000Y-86365000D03*
X124460000Y-86365000D03*
X111760000Y-83825000D03*
X114300000Y-83825000D03*
X116840000Y-83825000D03*
X119380000Y-83825000D03*
X121920000Y-83825000D03*
X124460000Y-83825000D03*
D35*
X132925000Y-109800000D03*
X134500000Y-109800000D03*
D17*
X130910000Y-101780000D03*
X131930000Y-101780000D03*
D16*
X152763850Y-104295298D03*
X152763850Y-103275298D03*
D13*
X144130000Y-102180000D03*
X143110000Y-102180000D03*
D14*
X144020000Y-104470000D03*
X144020000Y-105490000D03*
D17*
X132810000Y-101280000D03*
X133830000Y-101280000D03*
X160853850Y-106185298D03*
X161873850Y-106185298D03*
D28*
X141310000Y-91310000D03*
X141310000Y-92270000D03*
D17*
X152210000Y-110480000D03*
X153230000Y-110480000D03*
D36*
X146120000Y-110785000D03*
X146120000Y-109515000D03*
X146120000Y-108245000D03*
X146120000Y-106975000D03*
X138920000Y-106975000D03*
X138920000Y-108245000D03*
X138920000Y-109515000D03*
X138920000Y-110785000D03*
D37*
X111760000Y-112395000D03*
D38*
X156410000Y-106880000D03*
X156810000Y-106880000D03*
X157210000Y-106880000D03*
X157610000Y-106880000D03*
X158010000Y-106880000D03*
X156410000Y-107280000D03*
X156810000Y-107280000D03*
D39*
X157210000Y-107280000D03*
X157610000Y-107280000D03*
D38*
X158010000Y-107280000D03*
X156410000Y-107680000D03*
X156810000Y-107680000D03*
D39*
X157210000Y-107680000D03*
X157610000Y-107680000D03*
D38*
X158010000Y-107680000D03*
X156410000Y-108080000D03*
D39*
X156810000Y-108080000D03*
X157210000Y-108080000D03*
D38*
X157610000Y-108080000D03*
X158010000Y-108080000D03*
X156410000Y-108480000D03*
D39*
X156810000Y-108480000D03*
X157210000Y-108480000D03*
D38*
X157610000Y-108480000D03*
X158010000Y-108480000D03*
X156410000Y-108880000D03*
X156810000Y-108880000D03*
X157210000Y-108880000D03*
X157610000Y-108880000D03*
X158010000Y-108880000D03*
D32*
X129540000Y-119375000D03*
D33*
X129540000Y-116835000D03*
D28*
X135620000Y-104300000D03*
X135620000Y-105260000D03*
D17*
X132810000Y-102280000D03*
X133830000Y-102280000D03*
D13*
X144130000Y-100180000D03*
X143110000Y-100180000D03*
X146020000Y-103180000D03*
X145000000Y-103180000D03*
D16*
X153263850Y-106195298D03*
X153263850Y-105175298D03*
D17*
X132810000Y-97280000D03*
X133830000Y-97280000D03*
X132810000Y-99280000D03*
X133830000Y-99280000D03*
D40*
X141957500Y-102280000D03*
X141957500Y-101880000D03*
X141957500Y-101480000D03*
X141957500Y-101080000D03*
X141957500Y-100680000D03*
X141957500Y-100280000D03*
X141957500Y-99880000D03*
X141957500Y-99480000D03*
X141957500Y-99080000D03*
X141957500Y-98680000D03*
X141957500Y-98280000D03*
X141957500Y-97880000D03*
X141957500Y-97480000D03*
X141957500Y-97080000D03*
D41*
X141120000Y-96242500D03*
X140720000Y-96242500D03*
X140320000Y-96242500D03*
X139920000Y-96242500D03*
X139520000Y-96242500D03*
X139120000Y-96242500D03*
X138720000Y-96242500D03*
X138320000Y-96242500D03*
X137920000Y-96242500D03*
X137520000Y-96242500D03*
X137120000Y-96242500D03*
X136720000Y-96242500D03*
X136320000Y-96242500D03*
X135920000Y-96242500D03*
D40*
X135082500Y-97080000D03*
X135082500Y-97480000D03*
X135082500Y-97880000D03*
X135082500Y-98280000D03*
X135082500Y-98680000D03*
X135082500Y-99080000D03*
X135082500Y-99480000D03*
X135082500Y-99880000D03*
X135082500Y-100280000D03*
X135082500Y-100680000D03*
X135082500Y-101080000D03*
X135082500Y-101480000D03*
X135082500Y-101880000D03*
X135082500Y-102280000D03*
D41*
X135920000Y-103117500D03*
X136320000Y-103117500D03*
X136720000Y-103117500D03*
X137120000Y-103117500D03*
X137520000Y-103117500D03*
X137920000Y-103117500D03*
X138320000Y-103117500D03*
X138720000Y-103117500D03*
X139120000Y-103117500D03*
X139520000Y-103117500D03*
X139920000Y-103117500D03*
X140320000Y-103117500D03*
X140720000Y-103117500D03*
X141120000Y-103117500D03*
D42*
X138520000Y-99680000D03*
D16*
X136120000Y-94600000D03*
X136120000Y-93580000D03*
D14*
X154863850Y-110345298D03*
X154863850Y-111365298D03*
D17*
X160853850Y-108185298D03*
X161873850Y-108185298D03*
D14*
X157763850Y-110345298D03*
X157763850Y-111365298D03*
D32*
X157480000Y-86365000D03*
D33*
X160020000Y-86365000D03*
X162560000Y-86365000D03*
X165100000Y-86365000D03*
X167640000Y-86365000D03*
X170180000Y-86365000D03*
X157480000Y-83825000D03*
X160020000Y-83825000D03*
X162560000Y-83825000D03*
X165100000Y-83825000D03*
X167640000Y-83825000D03*
X170180000Y-83825000D03*
D13*
X144130000Y-97180000D03*
X143110000Y-97180000D03*
D14*
X140020000Y-104470000D03*
X140020000Y-105490000D03*
X145020000Y-104470000D03*
X145020000Y-105490000D03*
D28*
X136110000Y-91310000D03*
X136110000Y-92270000D03*
D22*
X143140000Y-98180000D03*
X144100000Y-98180000D03*
D13*
X134222500Y-111100000D03*
X133202500Y-111100000D03*
D17*
X130910000Y-97780000D03*
X131930000Y-97780000D03*
D22*
X143140000Y-103180000D03*
X144100000Y-103180000D03*
D37*
X170180000Y-90805000D03*
D16*
X152263850Y-106195298D03*
X152263850Y-105175298D03*
D17*
X158953850Y-104185298D03*
X159973850Y-104185298D03*
D13*
X144130000Y-99180000D03*
X143110000Y-99180000D03*
X159953850Y-109185298D03*
X158933850Y-109185298D03*
D29*
X158970000Y-108180000D03*
X158970000Y-107220000D03*
D15*
X155350500Y-107304000D03*
X154390500Y-107304000D03*
D32*
X152400000Y-119375000D03*
D33*
X152400000Y-116835000D03*
D14*
X142020000Y-104470000D03*
X142020000Y-105490000D03*
D37*
X170180000Y-112395000D03*
D13*
X146030000Y-98680000D03*
X145010000Y-98680000D03*
D16*
X133820000Y-105130000D03*
X133820000Y-104110000D03*
D32*
X134620000Y-86365000D03*
D33*
X137160000Y-86365000D03*
X139700000Y-86365000D03*
X142240000Y-86365000D03*
X144780000Y-86365000D03*
X147320000Y-86365000D03*
X134620000Y-83825000D03*
X137160000Y-83825000D03*
X139700000Y-83825000D03*
X142240000Y-83825000D03*
X144780000Y-83825000D03*
X147320000Y-83825000D03*
D15*
X155920000Y-105830000D03*
X154960000Y-105830000D03*
D43*
X113320000Y-100372500D03*
X113320000Y-101022500D03*
X113320000Y-101672500D03*
X113320000Y-102322500D03*
X113320000Y-102972500D03*
D24*
X113320000Y-99172500D03*
D44*
X110620000Y-105172500D03*
X110620000Y-98172500D03*
D24*
X113320000Y-104172500D03*
D45*
X110620000Y-104572500D03*
D46*
X110620000Y-102672500D03*
X110620000Y-100672500D03*
D45*
X110620000Y-98772500D03*
D28*
X136620000Y-104300000D03*
X136620000Y-105260000D03*
D14*
X141020000Y-104470000D03*
X141020000Y-105490000D03*
D17*
X152210000Y-107480000D03*
X153230000Y-107480000D03*
D37*
X111760000Y-90805000D03*
M02*
