G04 #@! TF.GenerationSoftware,KiCad,Pcbnew,(6.0.7)*
G04 #@! TF.CreationDate,2022-09-05T12:55:51-07:00*
G04 #@! TF.ProjectId,ice2040,69636532-3034-4302-9e6b-696361645f70,1*
G04 #@! TF.SameCoordinates,Original*
G04 #@! TF.FileFunction,Legend,Bot*
G04 #@! TF.FilePolarity,Positive*
%FSLAX46Y46*%
G04 Gerber Fmt 4.6, Leading zero omitted, Abs format (unit mm)*
G04 Created by KiCad (PCBNEW (6.0.7)) date 2022-09-05 12:55:51*
%MOMM*%
%LPD*%
G01*
G04 APERTURE LIST*
%ADD10C,0.150000*%
%ADD11C,0.127000*%
%ADD12C,1.450000*%
%ADD13O,1.200000X1.900000*%
%ADD14R,1.700000X1.700000*%
%ADD15O,1.700000X1.700000*%
%ADD16C,2.200000*%
%ADD17O,1.900000X1.200000*%
G04 APERTURE END LIST*
D10*
X131981904Y-94380000D02*
X132077142Y-94332380D01*
X132220000Y-94332380D01*
X132362857Y-94380000D01*
X132458095Y-94475238D01*
X132505714Y-94570476D01*
X132553333Y-94760952D01*
X132553333Y-94903809D01*
X132505714Y-95094285D01*
X132458095Y-95189523D01*
X132362857Y-95284761D01*
X132220000Y-95332380D01*
X132124761Y-95332380D01*
X131981904Y-95284761D01*
X131934285Y-95237142D01*
X131934285Y-94903809D01*
X132124761Y-94903809D01*
X131505714Y-95332380D02*
X131505714Y-94332380D01*
X130934285Y-95332380D01*
X130934285Y-94332380D01*
X130458095Y-95332380D02*
X130458095Y-94332380D01*
X130220000Y-94332380D01*
X130077142Y-94380000D01*
X129981904Y-94475238D01*
X129934285Y-94570476D01*
X129886666Y-94760952D01*
X129886666Y-94903809D01*
X129934285Y-95094285D01*
X129981904Y-95189523D01*
X130077142Y-95284761D01*
X130220000Y-95332380D01*
X130458095Y-95332380D01*
X157660595Y-90232380D02*
X158232023Y-90232380D01*
X157946309Y-90232380D02*
X157946309Y-89232380D01*
X158041547Y-89375238D01*
X158136785Y-89470476D01*
X158232023Y-89518095D01*
X157327261Y-89232380D02*
X156708214Y-89232380D01*
X157041547Y-89613333D01*
X156898690Y-89613333D01*
X156803452Y-89660952D01*
X156755833Y-89708571D01*
X156708214Y-89803809D01*
X156708214Y-90041904D01*
X156755833Y-90137142D01*
X156803452Y-90184761D01*
X156898690Y-90232380D01*
X157184404Y-90232380D01*
X157279642Y-90184761D01*
X157327261Y-90137142D01*
X139760595Y-90332380D02*
X140332023Y-90332380D01*
X140046309Y-90332380D02*
X140046309Y-89332380D01*
X140141547Y-89475238D01*
X140236785Y-89570476D01*
X140332023Y-89618095D01*
X139427261Y-89332380D02*
X138760595Y-89332380D01*
X139189166Y-90332380D01*
X117532023Y-88127619D02*
X117484404Y-88080000D01*
X117389166Y-88032380D01*
X117151071Y-88032380D01*
X117055833Y-88080000D01*
X117008214Y-88127619D01*
X116960595Y-88222857D01*
X116960595Y-88318095D01*
X117008214Y-88460952D01*
X117579642Y-89032380D01*
X116960595Y-89032380D01*
X116103452Y-88365714D02*
X116103452Y-89032380D01*
X116341547Y-87984761D02*
X116579642Y-88699047D01*
X115960595Y-88699047D01*
X153181904Y-87980000D02*
X153277142Y-87932380D01*
X153420000Y-87932380D01*
X153562857Y-87980000D01*
X153658095Y-88075238D01*
X153705714Y-88170476D01*
X153753333Y-88360952D01*
X153753333Y-88503809D01*
X153705714Y-88694285D01*
X153658095Y-88789523D01*
X153562857Y-88884761D01*
X153420000Y-88932380D01*
X153324761Y-88932380D01*
X153181904Y-88884761D01*
X153134285Y-88837142D01*
X153134285Y-88503809D01*
X153324761Y-88503809D01*
X152705714Y-88932380D02*
X152705714Y-87932380D01*
X152134285Y-88932380D01*
X152134285Y-87932380D01*
X151658095Y-88932380D02*
X151658095Y-87932380D01*
X151420000Y-87932380D01*
X151277142Y-87980000D01*
X151181904Y-88075238D01*
X151134285Y-88170476D01*
X151086666Y-88360952D01*
X151086666Y-88503809D01*
X151134285Y-88694285D01*
X151181904Y-88789523D01*
X151277142Y-88884761D01*
X151420000Y-88932380D01*
X151658095Y-88932380D01*
X157660595Y-88932380D02*
X158232023Y-88932380D01*
X157946309Y-88932380D02*
X157946309Y-87932380D01*
X158041547Y-88075238D01*
X158136785Y-88170476D01*
X158232023Y-88218095D01*
X157279642Y-88027619D02*
X157232023Y-87980000D01*
X157136785Y-87932380D01*
X156898690Y-87932380D01*
X156803452Y-87980000D01*
X156755833Y-88027619D01*
X156708214Y-88122857D01*
X156708214Y-88218095D01*
X156755833Y-88360952D01*
X157327261Y-88932380D01*
X156708214Y-88932380D01*
X163879642Y-114132380D02*
X163260595Y-114132380D01*
X163593928Y-114513333D01*
X163451071Y-114513333D01*
X163355833Y-114560952D01*
X163308214Y-114608571D01*
X163260595Y-114703809D01*
X163260595Y-114941904D01*
X163308214Y-115037142D01*
X163355833Y-115084761D01*
X163451071Y-115132380D01*
X163736785Y-115132380D01*
X163832023Y-115084761D01*
X163879642Y-115037142D01*
X162403452Y-114132380D02*
X162593928Y-114132380D01*
X162689166Y-114180000D01*
X162736785Y-114227619D01*
X162832023Y-114370476D01*
X162879642Y-114560952D01*
X162879642Y-114941904D01*
X162832023Y-115037142D01*
X162784404Y-115084761D01*
X162689166Y-115132380D01*
X162498690Y-115132380D01*
X162403452Y-115084761D01*
X162355833Y-115037142D01*
X162308214Y-114941904D01*
X162308214Y-114703809D01*
X162355833Y-114608571D01*
X162403452Y-114560952D01*
X162498690Y-114513333D01*
X162689166Y-114513333D01*
X162784404Y-114560952D01*
X162832023Y-114608571D01*
X162879642Y-114703809D01*
X161546309Y-114608571D02*
X161403452Y-114656190D01*
X161355833Y-114703809D01*
X161308214Y-114799047D01*
X161308214Y-114941904D01*
X161355833Y-115037142D01*
X161403452Y-115084761D01*
X161498690Y-115132380D01*
X161879642Y-115132380D01*
X161879642Y-114132380D01*
X161546309Y-114132380D01*
X161451071Y-114180000D01*
X161403452Y-114227619D01*
X161355833Y-114322857D01*
X161355833Y-114418095D01*
X161403452Y-114513333D01*
X161451071Y-114560952D01*
X161546309Y-114608571D01*
X161879642Y-114608571D01*
X163879642Y-112732380D02*
X163260595Y-112732380D01*
X163593928Y-113113333D01*
X163451071Y-113113333D01*
X163355833Y-113160952D01*
X163308214Y-113208571D01*
X163260595Y-113303809D01*
X163260595Y-113541904D01*
X163308214Y-113637142D01*
X163355833Y-113684761D01*
X163451071Y-113732380D01*
X163736785Y-113732380D01*
X163832023Y-113684761D01*
X163879642Y-113637142D01*
X162927261Y-112732380D02*
X162260595Y-112732380D01*
X162689166Y-113732380D01*
X161927261Y-113446666D02*
X161451071Y-113446666D01*
X162022500Y-113732380D02*
X161689166Y-112732380D01*
X161355833Y-113732380D01*
X124867619Y-90618095D02*
X124867619Y-89999047D01*
X124486666Y-90332380D01*
X124486666Y-90189523D01*
X124439047Y-90094285D01*
X124391428Y-90046666D01*
X124296190Y-89999047D01*
X124058095Y-89999047D01*
X123962857Y-90046666D01*
X123915238Y-90094285D01*
X123867619Y-90189523D01*
X123867619Y-90475238D01*
X123915238Y-90570476D01*
X123962857Y-90618095D01*
X124867619Y-89713333D02*
X123867619Y-89380000D01*
X124867619Y-89046666D01*
X124867619Y-88808571D02*
X124867619Y-88189523D01*
X124486666Y-88522857D01*
X124486666Y-88380000D01*
X124439047Y-88284761D01*
X124391428Y-88237142D01*
X124296190Y-88189523D01*
X124058095Y-88189523D01*
X123962857Y-88237142D01*
X123915238Y-88284761D01*
X123867619Y-88380000D01*
X123867619Y-88665714D01*
X123915238Y-88760952D01*
X123962857Y-88808571D01*
X147767619Y-90618095D02*
X147767619Y-89999047D01*
X147386666Y-90332380D01*
X147386666Y-90189523D01*
X147339047Y-90094285D01*
X147291428Y-90046666D01*
X147196190Y-89999047D01*
X146958095Y-89999047D01*
X146862857Y-90046666D01*
X146815238Y-90094285D01*
X146767619Y-90189523D01*
X146767619Y-90475238D01*
X146815238Y-90570476D01*
X146862857Y-90618095D01*
X147767619Y-89713333D02*
X146767619Y-89380000D01*
X147767619Y-89046666D01*
X147767619Y-88808571D02*
X147767619Y-88189523D01*
X147386666Y-88522857D01*
X147386666Y-88380000D01*
X147339047Y-88284761D01*
X147291428Y-88237142D01*
X147196190Y-88189523D01*
X146958095Y-88189523D01*
X146862857Y-88237142D01*
X146815238Y-88284761D01*
X146767619Y-88380000D01*
X146767619Y-88665714D01*
X146815238Y-88760952D01*
X146862857Y-88808571D01*
X154253333Y-114132380D02*
X153920000Y-115132380D01*
X153586666Y-114132380D01*
X152920000Y-114608571D02*
X152777142Y-114656190D01*
X152729523Y-114703809D01*
X152681904Y-114799047D01*
X152681904Y-114941904D01*
X152729523Y-115037142D01*
X152777142Y-115084761D01*
X152872380Y-115132380D01*
X153253333Y-115132380D01*
X153253333Y-114132380D01*
X152920000Y-114132380D01*
X152824761Y-114180000D01*
X152777142Y-114227619D01*
X152729523Y-114322857D01*
X152729523Y-114418095D01*
X152777142Y-114513333D01*
X152824761Y-114560952D01*
X152920000Y-114608571D01*
X153253333Y-114608571D01*
X152253333Y-114132380D02*
X152253333Y-114941904D01*
X152205714Y-115037142D01*
X152158095Y-115084761D01*
X152062857Y-115132380D01*
X151872380Y-115132380D01*
X151777142Y-115084761D01*
X151729523Y-115037142D01*
X151681904Y-114941904D01*
X151681904Y-114132380D01*
X151253333Y-115084761D02*
X151110476Y-115132380D01*
X150872380Y-115132380D01*
X150777142Y-115084761D01*
X150729523Y-115037142D01*
X150681904Y-114941904D01*
X150681904Y-114846666D01*
X150729523Y-114751428D01*
X150777142Y-114703809D01*
X150872380Y-114656190D01*
X151062857Y-114608571D01*
X151158095Y-114560952D01*
X151205714Y-114513333D01*
X151253333Y-114418095D01*
X151253333Y-114322857D01*
X151205714Y-114227619D01*
X151158095Y-114180000D01*
X151062857Y-114132380D01*
X150824761Y-114132380D01*
X150681904Y-114180000D01*
X114932023Y-88127619D02*
X114884404Y-88080000D01*
X114789166Y-88032380D01*
X114551071Y-88032380D01*
X114455833Y-88080000D01*
X114408214Y-88127619D01*
X114360595Y-88222857D01*
X114360595Y-88318095D01*
X114408214Y-88460952D01*
X114979642Y-89032380D01*
X114360595Y-89032380D01*
X113503452Y-88032380D02*
X113693928Y-88032380D01*
X113789166Y-88080000D01*
X113836785Y-88127619D01*
X113932023Y-88270476D01*
X113979642Y-88460952D01*
X113979642Y-88841904D01*
X113932023Y-88937142D01*
X113884404Y-88984761D01*
X113789166Y-89032380D01*
X113598690Y-89032380D01*
X113503452Y-88984761D01*
X113455833Y-88937142D01*
X113408214Y-88841904D01*
X113408214Y-88603809D01*
X113455833Y-88508571D01*
X113503452Y-88460952D01*
X113598690Y-88413333D01*
X113789166Y-88413333D01*
X113884404Y-88460952D01*
X113932023Y-88508571D01*
X113979642Y-88603809D01*
X157112976Y-115132380D02*
X157446309Y-114656190D01*
X157684404Y-115132380D02*
X157684404Y-114132380D01*
X157303452Y-114132380D01*
X157208214Y-114180000D01*
X157160595Y-114227619D01*
X157112976Y-114322857D01*
X157112976Y-114465714D01*
X157160595Y-114560952D01*
X157208214Y-114608571D01*
X157303452Y-114656190D01*
X157684404Y-114656190D01*
X156493928Y-114132380D02*
X156398690Y-114132380D01*
X156303452Y-114180000D01*
X156255833Y-114227619D01*
X156208214Y-114322857D01*
X156160595Y-114513333D01*
X156160595Y-114751428D01*
X156208214Y-114941904D01*
X156255833Y-115037142D01*
X156303452Y-115084761D01*
X156398690Y-115132380D01*
X156493928Y-115132380D01*
X156589166Y-115084761D01*
X156636785Y-115037142D01*
X156684404Y-114941904D01*
X156732023Y-114751428D01*
X156732023Y-114513333D01*
X156684404Y-114322857D01*
X156636785Y-114227619D01*
X156589166Y-114180000D01*
X156493928Y-114132380D01*
X160260595Y-90232380D02*
X160832023Y-90232380D01*
X160546309Y-90232380D02*
X160546309Y-89232380D01*
X160641547Y-89375238D01*
X160736785Y-89470476D01*
X160832023Y-89518095D01*
X159308214Y-90232380D02*
X159879642Y-90232380D01*
X159593928Y-90232380D02*
X159593928Y-89232380D01*
X159689166Y-89375238D01*
X159784404Y-89470476D01*
X159879642Y-89518095D01*
X168420000Y-90041904D02*
X168467619Y-90137142D01*
X168467619Y-90280000D01*
X168420000Y-90422857D01*
X168324761Y-90518095D01*
X168229523Y-90565714D01*
X168039047Y-90613333D01*
X167896190Y-90613333D01*
X167705714Y-90565714D01*
X167610476Y-90518095D01*
X167515238Y-90422857D01*
X167467619Y-90280000D01*
X167467619Y-90184761D01*
X167515238Y-90041904D01*
X167562857Y-89994285D01*
X167896190Y-89994285D01*
X167896190Y-90184761D01*
X167467619Y-89565714D02*
X168467619Y-89565714D01*
X167467619Y-88994285D01*
X168467619Y-88994285D01*
X167467619Y-88518095D02*
X168467619Y-88518095D01*
X168467619Y-88280000D01*
X168420000Y-88137142D01*
X168324761Y-88041904D01*
X168229523Y-87994285D01*
X168039047Y-87946666D01*
X167896190Y-87946666D01*
X167705714Y-87994285D01*
X167610476Y-88041904D01*
X167515238Y-88137142D01*
X167467619Y-88280000D01*
X167467619Y-88518095D01*
X142312976Y-115132380D02*
X142646309Y-114656190D01*
X142884404Y-115132380D02*
X142884404Y-114132380D01*
X142503452Y-114132380D01*
X142408214Y-114180000D01*
X142360595Y-114227619D01*
X142312976Y-114322857D01*
X142312976Y-114465714D01*
X142360595Y-114560952D01*
X142408214Y-114608571D01*
X142503452Y-114656190D01*
X142884404Y-114656190D01*
X141932023Y-114227619D02*
X141884404Y-114180000D01*
X141789166Y-114132380D01*
X141551071Y-114132380D01*
X141455833Y-114180000D01*
X141408214Y-114227619D01*
X141360595Y-114322857D01*
X141360595Y-114418095D01*
X141408214Y-114560952D01*
X141979642Y-115132380D01*
X141360595Y-115132380D01*
X132067619Y-121613333D02*
X131067619Y-121280000D01*
X132067619Y-120946666D01*
X131591428Y-120280000D02*
X131543809Y-120137142D01*
X131496190Y-120089523D01*
X131400952Y-120041904D01*
X131258095Y-120041904D01*
X131162857Y-120089523D01*
X131115238Y-120137142D01*
X131067619Y-120232380D01*
X131067619Y-120613333D01*
X132067619Y-120613333D01*
X132067619Y-120280000D01*
X132020000Y-120184761D01*
X131972380Y-120137142D01*
X131877142Y-120089523D01*
X131781904Y-120089523D01*
X131686666Y-120137142D01*
X131639047Y-120184761D01*
X131591428Y-120280000D01*
X131591428Y-120613333D01*
X132067619Y-119613333D02*
X131258095Y-119613333D01*
X131162857Y-119565714D01*
X131115238Y-119518095D01*
X131067619Y-119422857D01*
X131067619Y-119232380D01*
X131115238Y-119137142D01*
X131162857Y-119089523D01*
X131258095Y-119041904D01*
X132067619Y-119041904D01*
X131115238Y-118613333D02*
X131067619Y-118470476D01*
X131067619Y-118232380D01*
X131115238Y-118137142D01*
X131162857Y-118089523D01*
X131258095Y-118041904D01*
X131353333Y-118041904D01*
X131448571Y-118089523D01*
X131496190Y-118137142D01*
X131543809Y-118232380D01*
X131591428Y-118422857D01*
X131639047Y-118518095D01*
X131686666Y-118565714D01*
X131781904Y-118613333D01*
X131877142Y-118613333D01*
X131972380Y-118565714D01*
X132020000Y-118518095D01*
X132067619Y-118422857D01*
X132067619Y-118184761D01*
X132020000Y-118041904D01*
X122320000Y-90141904D02*
X122367619Y-90237142D01*
X122367619Y-90380000D01*
X122320000Y-90522857D01*
X122224761Y-90618095D01*
X122129523Y-90665714D01*
X121939047Y-90713333D01*
X121796190Y-90713333D01*
X121605714Y-90665714D01*
X121510476Y-90618095D01*
X121415238Y-90522857D01*
X121367619Y-90380000D01*
X121367619Y-90284761D01*
X121415238Y-90141904D01*
X121462857Y-90094285D01*
X121796190Y-90094285D01*
X121796190Y-90284761D01*
X121367619Y-89665714D02*
X122367619Y-89665714D01*
X121367619Y-89094285D01*
X122367619Y-89094285D01*
X121367619Y-88618095D02*
X122367619Y-88618095D01*
X122367619Y-88380000D01*
X122320000Y-88237142D01*
X122224761Y-88141904D01*
X122129523Y-88094285D01*
X121939047Y-88046666D01*
X121796190Y-88046666D01*
X121605714Y-88094285D01*
X121510476Y-88141904D01*
X121415238Y-88237142D01*
X121367619Y-88380000D01*
X121367619Y-88618095D01*
X135705714Y-95284761D02*
X135562857Y-95332380D01*
X135324761Y-95332380D01*
X135229523Y-95284761D01*
X135181904Y-95237142D01*
X135134285Y-95141904D01*
X135134285Y-95046666D01*
X135181904Y-94951428D01*
X135229523Y-94903809D01*
X135324761Y-94856190D01*
X135515238Y-94808571D01*
X135610476Y-94760952D01*
X135658095Y-94713333D01*
X135705714Y-94618095D01*
X135705714Y-94522857D01*
X135658095Y-94427619D01*
X135610476Y-94380000D01*
X135515238Y-94332380D01*
X135277142Y-94332380D01*
X135134285Y-94380000D01*
X134705714Y-95332380D02*
X134705714Y-94332380D01*
X134467619Y-94332380D01*
X134324761Y-94380000D01*
X134229523Y-94475238D01*
X134181904Y-94570476D01*
X134134285Y-94760952D01*
X134134285Y-94903809D01*
X134181904Y-95094285D01*
X134229523Y-95189523D01*
X134324761Y-95284761D01*
X134467619Y-95332380D01*
X134705714Y-95332380D01*
X127058095Y-93332380D02*
X127058095Y-92332380D01*
X126820000Y-92332380D01*
X126677142Y-92380000D01*
X126581904Y-92475238D01*
X126534285Y-92570476D01*
X126486666Y-92760952D01*
X126486666Y-92903809D01*
X126534285Y-93094285D01*
X126581904Y-93189523D01*
X126677142Y-93284761D01*
X126820000Y-93332380D01*
X127058095Y-93332380D01*
X126058095Y-92808571D02*
X125724761Y-92808571D01*
X125581904Y-93332380D02*
X126058095Y-93332380D01*
X126058095Y-92332380D01*
X125581904Y-92332380D01*
X124820000Y-92808571D02*
X124677142Y-92856190D01*
X124629523Y-92903809D01*
X124581904Y-92999047D01*
X124581904Y-93141904D01*
X124629523Y-93237142D01*
X124677142Y-93284761D01*
X124772380Y-93332380D01*
X125153333Y-93332380D01*
X125153333Y-92332380D01*
X124820000Y-92332380D01*
X124724761Y-92380000D01*
X124677142Y-92427619D01*
X124629523Y-92522857D01*
X124629523Y-92618095D01*
X124677142Y-92713333D01*
X124724761Y-92760952D01*
X124820000Y-92808571D01*
X125153333Y-92808571D01*
X124153333Y-92332380D02*
X124153333Y-93141904D01*
X124105714Y-93237142D01*
X124058095Y-93284761D01*
X123962857Y-93332380D01*
X123772380Y-93332380D01*
X123677142Y-93284761D01*
X123629523Y-93237142D01*
X123581904Y-93141904D01*
X123581904Y-92332380D01*
X122581904Y-92380000D02*
X122677142Y-92332380D01*
X122820000Y-92332380D01*
X122962857Y-92380000D01*
X123058095Y-92475238D01*
X123105714Y-92570476D01*
X123153333Y-92760952D01*
X123153333Y-92903809D01*
X123105714Y-93094285D01*
X123058095Y-93189523D01*
X122962857Y-93284761D01*
X122820000Y-93332380D01*
X122724761Y-93332380D01*
X122581904Y-93284761D01*
X122534285Y-93237142D01*
X122534285Y-92903809D01*
X122724761Y-92903809D01*
X137360595Y-90332380D02*
X137932023Y-90332380D01*
X137646309Y-90332380D02*
X137646309Y-89332380D01*
X137741547Y-89475238D01*
X137836785Y-89570476D01*
X137932023Y-89618095D01*
X136884404Y-90332380D02*
X136693928Y-90332380D01*
X136598690Y-90284761D01*
X136551071Y-90237142D01*
X136455833Y-90094285D01*
X136408214Y-89903809D01*
X136408214Y-89522857D01*
X136455833Y-89427619D01*
X136503452Y-89380000D01*
X136598690Y-89332380D01*
X136789166Y-89332380D01*
X136884404Y-89380000D01*
X136932023Y-89427619D01*
X136979642Y-89522857D01*
X136979642Y-89760952D01*
X136932023Y-89856190D01*
X136884404Y-89903809D01*
X136789166Y-89951428D01*
X136598690Y-89951428D01*
X136503452Y-89903809D01*
X136455833Y-89856190D01*
X136408214Y-89760952D01*
X165693928Y-89232380D02*
X165598690Y-89232380D01*
X165503452Y-89280000D01*
X165455833Y-89327619D01*
X165408214Y-89422857D01*
X165360595Y-89613333D01*
X165360595Y-89851428D01*
X165408214Y-90041904D01*
X165455833Y-90137142D01*
X165503452Y-90184761D01*
X165598690Y-90232380D01*
X165693928Y-90232380D01*
X165789166Y-90184761D01*
X165836785Y-90137142D01*
X165884404Y-90041904D01*
X165932023Y-89851428D01*
X165932023Y-89613333D01*
X165884404Y-89422857D01*
X165836785Y-89327619D01*
X165789166Y-89280000D01*
X165693928Y-89232380D01*
X165027261Y-89232380D02*
X164360595Y-89232380D01*
X164789166Y-90232380D01*
X117532023Y-89427619D02*
X117484404Y-89380000D01*
X117389166Y-89332380D01*
X117151071Y-89332380D01*
X117055833Y-89380000D01*
X117008214Y-89427619D01*
X116960595Y-89522857D01*
X116960595Y-89618095D01*
X117008214Y-89760952D01*
X117579642Y-90332380D01*
X116960595Y-90332380D01*
X116055833Y-89332380D02*
X116532023Y-89332380D01*
X116579642Y-89808571D01*
X116532023Y-89760952D01*
X116436785Y-89713333D01*
X116198690Y-89713333D01*
X116103452Y-89760952D01*
X116055833Y-89808571D01*
X116008214Y-89903809D01*
X116008214Y-90141904D01*
X116055833Y-90237142D01*
X116103452Y-90284761D01*
X116198690Y-90332380D01*
X116436785Y-90332380D01*
X116532023Y-90284761D01*
X116579642Y-90237142D01*
X110932023Y-87927619D02*
X110884404Y-87880000D01*
X110789166Y-87832380D01*
X110551071Y-87832380D01*
X110455833Y-87880000D01*
X110408214Y-87927619D01*
X110360595Y-88022857D01*
X110360595Y-88118095D01*
X110408214Y-88260952D01*
X110979642Y-88832380D01*
X110360595Y-88832380D01*
X109789166Y-88260952D02*
X109884404Y-88213333D01*
X109932023Y-88165714D01*
X109979642Y-88070476D01*
X109979642Y-88022857D01*
X109932023Y-87927619D01*
X109884404Y-87880000D01*
X109789166Y-87832380D01*
X109598690Y-87832380D01*
X109503452Y-87880000D01*
X109455833Y-87927619D01*
X109408214Y-88022857D01*
X109408214Y-88070476D01*
X109455833Y-88165714D01*
X109503452Y-88213333D01*
X109598690Y-88260952D01*
X109789166Y-88260952D01*
X109884404Y-88308571D01*
X109932023Y-88356190D01*
X109979642Y-88451428D01*
X109979642Y-88641904D01*
X109932023Y-88737142D01*
X109884404Y-88784761D01*
X109789166Y-88832380D01*
X109598690Y-88832380D01*
X109503452Y-88784761D01*
X109455833Y-88737142D01*
X109408214Y-88641904D01*
X109408214Y-88451428D01*
X109455833Y-88356190D01*
X109503452Y-88308571D01*
X109598690Y-88260952D01*
X145220000Y-90141904D02*
X145267619Y-90237142D01*
X145267619Y-90380000D01*
X145220000Y-90522857D01*
X145124761Y-90618095D01*
X145029523Y-90665714D01*
X144839047Y-90713333D01*
X144696190Y-90713333D01*
X144505714Y-90665714D01*
X144410476Y-90618095D01*
X144315238Y-90522857D01*
X144267619Y-90380000D01*
X144267619Y-90284761D01*
X144315238Y-90141904D01*
X144362857Y-90094285D01*
X144696190Y-90094285D01*
X144696190Y-90284761D01*
X144267619Y-89665714D02*
X145267619Y-89665714D01*
X144267619Y-89094285D01*
X145267619Y-89094285D01*
X144267619Y-88618095D02*
X145267619Y-88618095D01*
X145267619Y-88380000D01*
X145220000Y-88237142D01*
X145124761Y-88141904D01*
X145029523Y-88094285D01*
X144839047Y-88046666D01*
X144696190Y-88046666D01*
X144505714Y-88094285D01*
X144410476Y-88141904D01*
X144315238Y-88237142D01*
X144267619Y-88380000D01*
X144267619Y-88618095D01*
X110932023Y-89127619D02*
X110884404Y-89080000D01*
X110789166Y-89032380D01*
X110551071Y-89032380D01*
X110455833Y-89080000D01*
X110408214Y-89127619D01*
X110360595Y-89222857D01*
X110360595Y-89318095D01*
X110408214Y-89460952D01*
X110979642Y-90032380D01*
X110360595Y-90032380D01*
X109884404Y-90032380D02*
X109693928Y-90032380D01*
X109598690Y-89984761D01*
X109551071Y-89937142D01*
X109455833Y-89794285D01*
X109408214Y-89603809D01*
X109408214Y-89222857D01*
X109455833Y-89127619D01*
X109503452Y-89080000D01*
X109598690Y-89032380D01*
X109789166Y-89032380D01*
X109884404Y-89080000D01*
X109932023Y-89127619D01*
X109979642Y-89222857D01*
X109979642Y-89460952D01*
X109932023Y-89556190D01*
X109884404Y-89603809D01*
X109789166Y-89651428D01*
X109598690Y-89651428D01*
X109503452Y-89603809D01*
X109455833Y-89556190D01*
X109408214Y-89460952D01*
X132020000Y-116841904D02*
X132067619Y-116937142D01*
X132067619Y-117080000D01*
X132020000Y-117222857D01*
X131924761Y-117318095D01*
X131829523Y-117365714D01*
X131639047Y-117413333D01*
X131496190Y-117413333D01*
X131305714Y-117365714D01*
X131210476Y-117318095D01*
X131115238Y-117222857D01*
X131067619Y-117080000D01*
X131067619Y-116984761D01*
X131115238Y-116841904D01*
X131162857Y-116794285D01*
X131496190Y-116794285D01*
X131496190Y-116984761D01*
X131067619Y-116365714D02*
X132067619Y-116365714D01*
X131067619Y-115794285D01*
X132067619Y-115794285D01*
X131067619Y-115318095D02*
X132067619Y-115318095D01*
X132067619Y-115080000D01*
X132020000Y-114937142D01*
X131924761Y-114841904D01*
X131829523Y-114794285D01*
X131639047Y-114746666D01*
X131496190Y-114746666D01*
X131305714Y-114794285D01*
X131210476Y-114841904D01*
X131115238Y-114937142D01*
X131067619Y-115080000D01*
X131067619Y-115318095D01*
X160255833Y-113065714D02*
X160255833Y-113732380D01*
X160493928Y-112684761D02*
X160732023Y-113399047D01*
X160112976Y-113399047D01*
X159827261Y-112732380D02*
X159160595Y-112732380D01*
X159589166Y-113732380D01*
X158827261Y-113446666D02*
X158351071Y-113446666D01*
X158922500Y-113732380D02*
X158589166Y-112732380D01*
X158255833Y-113732380D01*
X137360595Y-89032380D02*
X137932023Y-89032380D01*
X137646309Y-89032380D02*
X137646309Y-88032380D01*
X137741547Y-88175238D01*
X137836785Y-88270476D01*
X137932023Y-88318095D01*
X136789166Y-88460952D02*
X136884404Y-88413333D01*
X136932023Y-88365714D01*
X136979642Y-88270476D01*
X136979642Y-88222857D01*
X136932023Y-88127619D01*
X136884404Y-88080000D01*
X136789166Y-88032380D01*
X136598690Y-88032380D01*
X136503452Y-88080000D01*
X136455833Y-88127619D01*
X136408214Y-88222857D01*
X136408214Y-88270476D01*
X136455833Y-88365714D01*
X136503452Y-88413333D01*
X136598690Y-88460952D01*
X136789166Y-88460952D01*
X136884404Y-88508571D01*
X136932023Y-88556190D01*
X136979642Y-88651428D01*
X136979642Y-88841904D01*
X136932023Y-88937142D01*
X136884404Y-88984761D01*
X136789166Y-89032380D01*
X136598690Y-89032380D01*
X136503452Y-88984761D01*
X136455833Y-88937142D01*
X136408214Y-88841904D01*
X136408214Y-88651428D01*
X136455833Y-88556190D01*
X136503452Y-88508571D01*
X136598690Y-88460952D01*
X154253333Y-89332380D02*
X153920000Y-90332380D01*
X153586666Y-89332380D01*
X152920000Y-89808571D02*
X152777142Y-89856190D01*
X152729523Y-89903809D01*
X152681904Y-89999047D01*
X152681904Y-90141904D01*
X152729523Y-90237142D01*
X152777142Y-90284761D01*
X152872380Y-90332380D01*
X153253333Y-90332380D01*
X153253333Y-89332380D01*
X152920000Y-89332380D01*
X152824761Y-89380000D01*
X152777142Y-89427619D01*
X152729523Y-89522857D01*
X152729523Y-89618095D01*
X152777142Y-89713333D01*
X152824761Y-89760952D01*
X152920000Y-89808571D01*
X153253333Y-89808571D01*
X152253333Y-89332380D02*
X152253333Y-90141904D01*
X152205714Y-90237142D01*
X152158095Y-90284761D01*
X152062857Y-90332380D01*
X151872380Y-90332380D01*
X151777142Y-90284761D01*
X151729523Y-90237142D01*
X151681904Y-90141904D01*
X151681904Y-89332380D01*
X151253333Y-90284761D02*
X151110476Y-90332380D01*
X150872380Y-90332380D01*
X150777142Y-90284761D01*
X150729523Y-90237142D01*
X150681904Y-90141904D01*
X150681904Y-90046666D01*
X150729523Y-89951428D01*
X150777142Y-89903809D01*
X150872380Y-89856190D01*
X151062857Y-89808571D01*
X151158095Y-89760952D01*
X151205714Y-89713333D01*
X151253333Y-89618095D01*
X151253333Y-89522857D01*
X151205714Y-89427619D01*
X151158095Y-89380000D01*
X151062857Y-89332380D01*
X150824761Y-89332380D01*
X150681904Y-89380000D01*
X139760595Y-89032380D02*
X140332023Y-89032380D01*
X140046309Y-89032380D02*
X140046309Y-88032380D01*
X140141547Y-88175238D01*
X140236785Y-88270476D01*
X140332023Y-88318095D01*
X138903452Y-88032380D02*
X139093928Y-88032380D01*
X139189166Y-88080000D01*
X139236785Y-88127619D01*
X139332023Y-88270476D01*
X139379642Y-88460952D01*
X139379642Y-88841904D01*
X139332023Y-88937142D01*
X139284404Y-88984761D01*
X139189166Y-89032380D01*
X138998690Y-89032380D01*
X138903452Y-88984761D01*
X138855833Y-88937142D01*
X138808214Y-88841904D01*
X138808214Y-88603809D01*
X138855833Y-88508571D01*
X138903452Y-88460952D01*
X138998690Y-88413333D01*
X139189166Y-88413333D01*
X139284404Y-88460952D01*
X139332023Y-88508571D01*
X139379642Y-88603809D01*
X160260595Y-88932380D02*
X160832023Y-88932380D01*
X160546309Y-88932380D02*
X160546309Y-87932380D01*
X160641547Y-88075238D01*
X160736785Y-88170476D01*
X160832023Y-88218095D01*
X159641547Y-87932380D02*
X159546309Y-87932380D01*
X159451071Y-87980000D01*
X159403452Y-88027619D01*
X159355833Y-88122857D01*
X159308214Y-88313333D01*
X159308214Y-88551428D01*
X159355833Y-88741904D01*
X159403452Y-88837142D01*
X159451071Y-88884761D01*
X159546309Y-88932380D01*
X159641547Y-88932380D01*
X159736785Y-88884761D01*
X159784404Y-88837142D01*
X159832023Y-88741904D01*
X159879642Y-88551428D01*
X159879642Y-88313333D01*
X159832023Y-88122857D01*
X159784404Y-88027619D01*
X159736785Y-87980000D01*
X159641547Y-87932380D01*
X142460595Y-89032380D02*
X143032023Y-89032380D01*
X142746309Y-89032380D02*
X142746309Y-88032380D01*
X142841547Y-88175238D01*
X142936785Y-88270476D01*
X143032023Y-88318095D01*
X141603452Y-88365714D02*
X141603452Y-89032380D01*
X141841547Y-87984761D02*
X142079642Y-88699047D01*
X141460595Y-88699047D01*
X163093928Y-87932380D02*
X162998690Y-87932380D01*
X162903452Y-87980000D01*
X162855833Y-88027619D01*
X162808214Y-88122857D01*
X162760595Y-88313333D01*
X162760595Y-88551428D01*
X162808214Y-88741904D01*
X162855833Y-88837142D01*
X162903452Y-88884761D01*
X162998690Y-88932380D01*
X163093928Y-88932380D01*
X163189166Y-88884761D01*
X163236785Y-88837142D01*
X163284404Y-88741904D01*
X163332023Y-88551428D01*
X163332023Y-88313333D01*
X163284404Y-88122857D01*
X163236785Y-88027619D01*
X163189166Y-87980000D01*
X163093928Y-87932380D01*
X162189166Y-88360952D02*
X162284404Y-88313333D01*
X162332023Y-88265714D01*
X162379642Y-88170476D01*
X162379642Y-88122857D01*
X162332023Y-88027619D01*
X162284404Y-87980000D01*
X162189166Y-87932380D01*
X161998690Y-87932380D01*
X161903452Y-87980000D01*
X161855833Y-88027619D01*
X161808214Y-88122857D01*
X161808214Y-88170476D01*
X161855833Y-88265714D01*
X161903452Y-88313333D01*
X161998690Y-88360952D01*
X162189166Y-88360952D01*
X162284404Y-88408571D01*
X162332023Y-88456190D01*
X162379642Y-88551428D01*
X162379642Y-88741904D01*
X162332023Y-88837142D01*
X162284404Y-88884761D01*
X162189166Y-88932380D01*
X161998690Y-88932380D01*
X161903452Y-88884761D01*
X161855833Y-88837142D01*
X161808214Y-88741904D01*
X161808214Y-88551428D01*
X161855833Y-88456190D01*
X161903452Y-88408571D01*
X161998690Y-88360952D01*
X153181904Y-112780000D02*
X153277142Y-112732380D01*
X153420000Y-112732380D01*
X153562857Y-112780000D01*
X153658095Y-112875238D01*
X153705714Y-112970476D01*
X153753333Y-113160952D01*
X153753333Y-113303809D01*
X153705714Y-113494285D01*
X153658095Y-113589523D01*
X153562857Y-113684761D01*
X153420000Y-113732380D01*
X153324761Y-113732380D01*
X153181904Y-113684761D01*
X153134285Y-113637142D01*
X153134285Y-113303809D01*
X153324761Y-113303809D01*
X152705714Y-113732380D02*
X152705714Y-112732380D01*
X152134285Y-113732380D01*
X152134285Y-112732380D01*
X151658095Y-113732380D02*
X151658095Y-112732380D01*
X151420000Y-112732380D01*
X151277142Y-112780000D01*
X151181904Y-112875238D01*
X151134285Y-112970476D01*
X151086666Y-113160952D01*
X151086666Y-113303809D01*
X151134285Y-113494285D01*
X151181904Y-113589523D01*
X151277142Y-113684761D01*
X151420000Y-113732380D01*
X151658095Y-113732380D01*
X120132023Y-88127619D02*
X120084404Y-88080000D01*
X119989166Y-88032380D01*
X119751071Y-88032380D01*
X119655833Y-88080000D01*
X119608214Y-88127619D01*
X119560595Y-88222857D01*
X119560595Y-88318095D01*
X119608214Y-88460952D01*
X120179642Y-89032380D01*
X119560595Y-89032380D01*
X119179642Y-88127619D02*
X119132023Y-88080000D01*
X119036785Y-88032380D01*
X118798690Y-88032380D01*
X118703452Y-88080000D01*
X118655833Y-88127619D01*
X118608214Y-88222857D01*
X118608214Y-88318095D01*
X118655833Y-88460952D01*
X119227261Y-89032380D01*
X118608214Y-89032380D01*
X142460595Y-90332380D02*
X143032023Y-90332380D01*
X142746309Y-90332380D02*
X142746309Y-89332380D01*
X142841547Y-89475238D01*
X142936785Y-89570476D01*
X143032023Y-89618095D01*
X141555833Y-89332380D02*
X142032023Y-89332380D01*
X142079642Y-89808571D01*
X142032023Y-89760952D01*
X141936785Y-89713333D01*
X141698690Y-89713333D01*
X141603452Y-89760952D01*
X141555833Y-89808571D01*
X141508214Y-89903809D01*
X141508214Y-90141904D01*
X141555833Y-90237142D01*
X141603452Y-90284761D01*
X141698690Y-90332380D01*
X141936785Y-90332380D01*
X142032023Y-90284761D01*
X142079642Y-90237142D01*
X135232023Y-88127619D02*
X135184404Y-88080000D01*
X135089166Y-88032380D01*
X134851071Y-88032380D01*
X134755833Y-88080000D01*
X134708214Y-88127619D01*
X134660595Y-88222857D01*
X134660595Y-88318095D01*
X134708214Y-88460952D01*
X135279642Y-89032380D01*
X134660595Y-89032380D01*
X134041547Y-88032380D02*
X133946309Y-88032380D01*
X133851071Y-88080000D01*
X133803452Y-88127619D01*
X133755833Y-88222857D01*
X133708214Y-88413333D01*
X133708214Y-88651428D01*
X133755833Y-88841904D01*
X133803452Y-88937142D01*
X133851071Y-88984761D01*
X133946309Y-89032380D01*
X134041547Y-89032380D01*
X134136785Y-88984761D01*
X134184404Y-88937142D01*
X134232023Y-88841904D01*
X134279642Y-88651428D01*
X134279642Y-88413333D01*
X134232023Y-88222857D01*
X134184404Y-88127619D01*
X134136785Y-88080000D01*
X134041547Y-88032380D01*
X128110476Y-95237142D02*
X128158095Y-95284761D01*
X128300952Y-95332380D01*
X128396190Y-95332380D01*
X128539047Y-95284761D01*
X128634285Y-95189523D01*
X128681904Y-95094285D01*
X128729523Y-94903809D01*
X128729523Y-94760952D01*
X128681904Y-94570476D01*
X128634285Y-94475238D01*
X128539047Y-94380000D01*
X128396190Y-94332380D01*
X128300952Y-94332380D01*
X128158095Y-94380000D01*
X128110476Y-94427619D01*
X127681904Y-95332380D02*
X127681904Y-94332380D01*
X127110476Y-95332380D02*
X127539047Y-94760952D01*
X127110476Y-94332380D02*
X127681904Y-94903809D01*
X163093928Y-89232380D02*
X162998690Y-89232380D01*
X162903452Y-89280000D01*
X162855833Y-89327619D01*
X162808214Y-89422857D01*
X162760595Y-89613333D01*
X162760595Y-89851428D01*
X162808214Y-90041904D01*
X162855833Y-90137142D01*
X162903452Y-90184761D01*
X162998690Y-90232380D01*
X163093928Y-90232380D01*
X163189166Y-90184761D01*
X163236785Y-90137142D01*
X163284404Y-90041904D01*
X163332023Y-89851428D01*
X163332023Y-89613333D01*
X163284404Y-89422857D01*
X163236785Y-89327619D01*
X163189166Y-89280000D01*
X163093928Y-89232380D01*
X162284404Y-90232380D02*
X162093928Y-90232380D01*
X161998690Y-90184761D01*
X161951071Y-90137142D01*
X161855833Y-89994285D01*
X161808214Y-89803809D01*
X161808214Y-89422857D01*
X161855833Y-89327619D01*
X161903452Y-89280000D01*
X161998690Y-89232380D01*
X162189166Y-89232380D01*
X162284404Y-89280000D01*
X162332023Y-89327619D01*
X162379642Y-89422857D01*
X162379642Y-89660952D01*
X162332023Y-89756190D01*
X162284404Y-89803809D01*
X162189166Y-89851428D01*
X161998690Y-89851428D01*
X161903452Y-89803809D01*
X161855833Y-89756190D01*
X161808214Y-89660952D01*
X142932023Y-112827619D02*
X142884404Y-112780000D01*
X142789166Y-112732380D01*
X142551071Y-112732380D01*
X142455833Y-112780000D01*
X142408214Y-112827619D01*
X142360595Y-112922857D01*
X142360595Y-113018095D01*
X142408214Y-113160952D01*
X142979642Y-113732380D01*
X142360595Y-113732380D01*
X141979642Y-113446666D02*
X141503452Y-113446666D01*
X142074880Y-113732380D02*
X141741547Y-112732380D01*
X141408214Y-113732380D01*
X171458095Y-113932380D02*
X170839047Y-113932380D01*
X171172380Y-114313333D01*
X171029523Y-114313333D01*
X170934285Y-114360952D01*
X170886666Y-114408571D01*
X170839047Y-114503809D01*
X170839047Y-114741904D01*
X170886666Y-114837142D01*
X170934285Y-114884761D01*
X171029523Y-114932380D01*
X171315238Y-114932380D01*
X171410476Y-114884761D01*
X171458095Y-114837142D01*
X170553333Y-113932380D02*
X170220000Y-114932380D01*
X169886666Y-113932380D01*
X169648571Y-113932380D02*
X169029523Y-113932380D01*
X169362857Y-114313333D01*
X169220000Y-114313333D01*
X169124761Y-114360952D01*
X169077142Y-114408571D01*
X169029523Y-114503809D01*
X169029523Y-114741904D01*
X169077142Y-114837142D01*
X169124761Y-114884761D01*
X169220000Y-114932380D01*
X169505714Y-114932380D01*
X169600952Y-114884761D01*
X169648571Y-114837142D01*
X147767619Y-115118095D02*
X147767619Y-114499047D01*
X147386666Y-114832380D01*
X147386666Y-114689523D01*
X147339047Y-114594285D01*
X147291428Y-114546666D01*
X147196190Y-114499047D01*
X146958095Y-114499047D01*
X146862857Y-114546666D01*
X146815238Y-114594285D01*
X146767619Y-114689523D01*
X146767619Y-114975238D01*
X146815238Y-115070476D01*
X146862857Y-115118095D01*
X147767619Y-114213333D02*
X146767619Y-113880000D01*
X147767619Y-113546666D01*
X147767619Y-113308571D02*
X147767619Y-112689523D01*
X147386666Y-113022857D01*
X147386666Y-112880000D01*
X147339047Y-112784761D01*
X147291428Y-112737142D01*
X147196190Y-112689523D01*
X146958095Y-112689523D01*
X146862857Y-112737142D01*
X146815238Y-112784761D01*
X146767619Y-112880000D01*
X146767619Y-113165714D01*
X146815238Y-113260952D01*
X146862857Y-113308571D01*
X166932023Y-112827619D02*
X166884404Y-112780000D01*
X166789166Y-112732380D01*
X166551071Y-112732380D01*
X166455833Y-112780000D01*
X166408214Y-112827619D01*
X166360595Y-112922857D01*
X166360595Y-113018095D01*
X166408214Y-113160952D01*
X166979642Y-113732380D01*
X166360595Y-113732380D01*
X165503452Y-113065714D02*
X165503452Y-113732380D01*
X165741547Y-112684761D02*
X165979642Y-113399047D01*
X165360595Y-113399047D01*
X165027261Y-113446666D02*
X164551071Y-113446666D01*
X165122500Y-113732380D02*
X164789166Y-112732380D01*
X164455833Y-113732380D01*
X137760595Y-113732380D02*
X138332023Y-113732380D01*
X138046309Y-113732380D02*
X138046309Y-112732380D01*
X138141547Y-112875238D01*
X138236785Y-112970476D01*
X138332023Y-113018095D01*
X136808214Y-113732380D02*
X137379642Y-113732380D01*
X137093928Y-113732380D02*
X137093928Y-112732380D01*
X137189166Y-112875238D01*
X137284404Y-112970476D01*
X137379642Y-113018095D01*
X136046309Y-113208571D02*
X135903452Y-113256190D01*
X135855833Y-113303809D01*
X135808214Y-113399047D01*
X135808214Y-113541904D01*
X135855833Y-113637142D01*
X135903452Y-113684761D01*
X135998690Y-113732380D01*
X136379642Y-113732380D01*
X136379642Y-112732380D01*
X136046309Y-112732380D01*
X135951071Y-112780000D01*
X135903452Y-112827619D01*
X135855833Y-112922857D01*
X135855833Y-113018095D01*
X135903452Y-113113333D01*
X135951071Y-113160952D01*
X136046309Y-113208571D01*
X136379642Y-113208571D01*
X114932023Y-89427619D02*
X114884404Y-89380000D01*
X114789166Y-89332380D01*
X114551071Y-89332380D01*
X114455833Y-89380000D01*
X114408214Y-89427619D01*
X114360595Y-89522857D01*
X114360595Y-89618095D01*
X114408214Y-89760952D01*
X114979642Y-90332380D01*
X114360595Y-90332380D01*
X114027261Y-89332380D02*
X113360595Y-89332380D01*
X113789166Y-90332380D01*
X157112976Y-113732380D02*
X157446309Y-113256190D01*
X157684404Y-113732380D02*
X157684404Y-112732380D01*
X157303452Y-112732380D01*
X157208214Y-112780000D01*
X157160595Y-112827619D01*
X157112976Y-112922857D01*
X157112976Y-113065714D01*
X157160595Y-113160952D01*
X157208214Y-113208571D01*
X157303452Y-113256190D01*
X157684404Y-113256190D01*
X156160595Y-113732380D02*
X156732023Y-113732380D01*
X156446309Y-113732380D02*
X156446309Y-112732380D01*
X156541547Y-112875238D01*
X156636785Y-112970476D01*
X156732023Y-113018095D01*
X137736785Y-115132380D02*
X137546309Y-115132380D01*
X137451071Y-115084761D01*
X137403452Y-115037142D01*
X137308214Y-114894285D01*
X137260595Y-114703809D01*
X137260595Y-114322857D01*
X137308214Y-114227619D01*
X137355833Y-114180000D01*
X137451071Y-114132380D01*
X137641547Y-114132380D01*
X137736785Y-114180000D01*
X137784404Y-114227619D01*
X137832023Y-114322857D01*
X137832023Y-114560952D01*
X137784404Y-114656190D01*
X137736785Y-114703809D01*
X137641547Y-114751428D01*
X137451071Y-114751428D01*
X137355833Y-114703809D01*
X137308214Y-114656190D01*
X137260595Y-114560952D01*
X136498690Y-114608571D02*
X136355833Y-114656190D01*
X136308214Y-114703809D01*
X136260595Y-114799047D01*
X136260595Y-114941904D01*
X136308214Y-115037142D01*
X136355833Y-115084761D01*
X136451071Y-115132380D01*
X136832023Y-115132380D01*
X136832023Y-114132380D01*
X136498690Y-114132380D01*
X136403452Y-114180000D01*
X136355833Y-114227619D01*
X136308214Y-114322857D01*
X136308214Y-114418095D01*
X136355833Y-114513333D01*
X136403452Y-114560952D01*
X136498690Y-114608571D01*
X136832023Y-114608571D01*
X140479642Y-112732380D02*
X139860595Y-112732380D01*
X140193928Y-113113333D01*
X140051071Y-113113333D01*
X139955833Y-113160952D01*
X139908214Y-113208571D01*
X139860595Y-113303809D01*
X139860595Y-113541904D01*
X139908214Y-113637142D01*
X139955833Y-113684761D01*
X140051071Y-113732380D01*
X140336785Y-113732380D01*
X140432023Y-113684761D01*
X140479642Y-113637142D01*
X139098690Y-113208571D02*
X138955833Y-113256190D01*
X138908214Y-113303809D01*
X138860595Y-113399047D01*
X138860595Y-113541904D01*
X138908214Y-113637142D01*
X138955833Y-113684761D01*
X139051071Y-113732380D01*
X139432023Y-113732380D01*
X139432023Y-112732380D01*
X139098690Y-112732380D01*
X139003452Y-112780000D01*
X138955833Y-112827619D01*
X138908214Y-112922857D01*
X138908214Y-113018095D01*
X138955833Y-113113333D01*
X139003452Y-113160952D01*
X139098690Y-113208571D01*
X139432023Y-113208571D01*
X160255833Y-114465714D02*
X160255833Y-115132380D01*
X160493928Y-114084761D02*
X160732023Y-114799047D01*
X160112976Y-114799047D01*
X159303452Y-114132380D02*
X159493928Y-114132380D01*
X159589166Y-114180000D01*
X159636785Y-114227619D01*
X159732023Y-114370476D01*
X159779642Y-114560952D01*
X159779642Y-114941904D01*
X159732023Y-115037142D01*
X159684404Y-115084761D01*
X159589166Y-115132380D01*
X159398690Y-115132380D01*
X159303452Y-115084761D01*
X159255833Y-115037142D01*
X159208214Y-114941904D01*
X159208214Y-114703809D01*
X159255833Y-114608571D01*
X159303452Y-114560952D01*
X159398690Y-114513333D01*
X159589166Y-114513333D01*
X159684404Y-114560952D01*
X159732023Y-114608571D01*
X159779642Y-114703809D01*
X158446309Y-114608571D02*
X158303452Y-114656190D01*
X158255833Y-114703809D01*
X158208214Y-114799047D01*
X158208214Y-114941904D01*
X158255833Y-115037142D01*
X158303452Y-115084761D01*
X158398690Y-115132380D01*
X158779642Y-115132380D01*
X158779642Y-114132380D01*
X158446309Y-114132380D01*
X158351071Y-114180000D01*
X158303452Y-114227619D01*
X158255833Y-114322857D01*
X158255833Y-114418095D01*
X158303452Y-114513333D01*
X158351071Y-114560952D01*
X158446309Y-114608571D01*
X158779642Y-114608571D01*
X140193928Y-114132380D02*
X140098690Y-114132380D01*
X140003452Y-114180000D01*
X139955833Y-114227619D01*
X139908214Y-114322857D01*
X139860595Y-114513333D01*
X139860595Y-114751428D01*
X139908214Y-114941904D01*
X139955833Y-115037142D01*
X140003452Y-115084761D01*
X140098690Y-115132380D01*
X140193928Y-115132380D01*
X140289166Y-115084761D01*
X140336785Y-115037142D01*
X140384404Y-114941904D01*
X140432023Y-114751428D01*
X140432023Y-114513333D01*
X140384404Y-114322857D01*
X140336785Y-114227619D01*
X140289166Y-114180000D01*
X140193928Y-114132380D01*
X139479642Y-114846666D02*
X139003452Y-114846666D01*
X139574880Y-115132380D02*
X139241547Y-114132380D01*
X138908214Y-115132380D01*
X166360595Y-115032380D02*
X166932023Y-115032380D01*
X166646309Y-115032380D02*
X166646309Y-114032380D01*
X166741547Y-114175238D01*
X166836785Y-114270476D01*
X166932023Y-114318095D01*
X165741547Y-114032380D02*
X165646309Y-114032380D01*
X165551071Y-114080000D01*
X165503452Y-114127619D01*
X165455833Y-114222857D01*
X165408214Y-114413333D01*
X165408214Y-114651428D01*
X165455833Y-114841904D01*
X165503452Y-114937142D01*
X165551071Y-114984761D01*
X165646309Y-115032380D01*
X165741547Y-115032380D01*
X165836785Y-114984761D01*
X165884404Y-114937142D01*
X165932023Y-114841904D01*
X165979642Y-114651428D01*
X165979642Y-114413333D01*
X165932023Y-114222857D01*
X165884404Y-114127619D01*
X165836785Y-114080000D01*
X165741547Y-114032380D01*
X165027261Y-114746666D02*
X164551071Y-114746666D01*
X165122500Y-115032380D02*
X164789166Y-114032380D01*
X164455833Y-115032380D01*
X135332023Y-112827619D02*
X135284404Y-112780000D01*
X135189166Y-112732380D01*
X134951071Y-112732380D01*
X134855833Y-112780000D01*
X134808214Y-112827619D01*
X134760595Y-112922857D01*
X134760595Y-113018095D01*
X134808214Y-113160952D01*
X135379642Y-113732380D01*
X134760595Y-113732380D01*
X133855833Y-112732380D02*
X134332023Y-112732380D01*
X134379642Y-113208571D01*
X134332023Y-113160952D01*
X134236785Y-113113333D01*
X133998690Y-113113333D01*
X133903452Y-113160952D01*
X133855833Y-113208571D01*
X133808214Y-113303809D01*
X133808214Y-113541904D01*
X133855833Y-113637142D01*
X133903452Y-113684761D01*
X133998690Y-113732380D01*
X134236785Y-113732380D01*
X134332023Y-113684761D01*
X134379642Y-113637142D01*
X133046309Y-113208571D02*
X132903452Y-113256190D01*
X132855833Y-113303809D01*
X132808214Y-113399047D01*
X132808214Y-113541904D01*
X132855833Y-113637142D01*
X132903452Y-113684761D01*
X132998690Y-113732380D01*
X133379642Y-113732380D01*
X133379642Y-112732380D01*
X133046309Y-112732380D01*
X132951071Y-112780000D01*
X132903452Y-112827619D01*
X132855833Y-112922857D01*
X132855833Y-113018095D01*
X132903452Y-113113333D01*
X132951071Y-113160952D01*
X133046309Y-113208571D01*
X133379642Y-113208571D01*
X145220000Y-114641904D02*
X145267619Y-114737142D01*
X145267619Y-114880000D01*
X145220000Y-115022857D01*
X145124761Y-115118095D01*
X145029523Y-115165714D01*
X144839047Y-115213333D01*
X144696190Y-115213333D01*
X144505714Y-115165714D01*
X144410476Y-115118095D01*
X144315238Y-115022857D01*
X144267619Y-114880000D01*
X144267619Y-114784761D01*
X144315238Y-114641904D01*
X144362857Y-114594285D01*
X144696190Y-114594285D01*
X144696190Y-114784761D01*
X144267619Y-114165714D02*
X145267619Y-114165714D01*
X144267619Y-113594285D01*
X145267619Y-113594285D01*
X144267619Y-113118095D02*
X145267619Y-113118095D01*
X145267619Y-112880000D01*
X145220000Y-112737142D01*
X145124761Y-112641904D01*
X145029523Y-112594285D01*
X144839047Y-112546666D01*
X144696190Y-112546666D01*
X144505714Y-112594285D01*
X144410476Y-112641904D01*
X144315238Y-112737142D01*
X144267619Y-112880000D01*
X144267619Y-113118095D01*
X135232023Y-89427619D02*
X135184404Y-89380000D01*
X135089166Y-89332380D01*
X134851071Y-89332380D01*
X134755833Y-89380000D01*
X134708214Y-89427619D01*
X134660595Y-89522857D01*
X134660595Y-89618095D01*
X134708214Y-89760952D01*
X135279642Y-90332380D01*
X134660595Y-90332380D01*
X133708214Y-90332380D02*
X134279642Y-90332380D01*
X133993928Y-90332380D02*
X133993928Y-89332380D01*
X134089166Y-89475238D01*
X134184404Y-89570476D01*
X134279642Y-89618095D01*
X165693928Y-87932380D02*
X165598690Y-87932380D01*
X165503452Y-87980000D01*
X165455833Y-88027619D01*
X165408214Y-88122857D01*
X165360595Y-88313333D01*
X165360595Y-88551428D01*
X165408214Y-88741904D01*
X165455833Y-88837142D01*
X165503452Y-88884761D01*
X165598690Y-88932380D01*
X165693928Y-88932380D01*
X165789166Y-88884761D01*
X165836785Y-88837142D01*
X165884404Y-88741904D01*
X165932023Y-88551428D01*
X165932023Y-88313333D01*
X165884404Y-88122857D01*
X165836785Y-88027619D01*
X165789166Y-87980000D01*
X165693928Y-87932380D01*
X164503452Y-87932380D02*
X164693928Y-87932380D01*
X164789166Y-87980000D01*
X164836785Y-88027619D01*
X164932023Y-88170476D01*
X164979642Y-88360952D01*
X164979642Y-88741904D01*
X164932023Y-88837142D01*
X164884404Y-88884761D01*
X164789166Y-88932380D01*
X164598690Y-88932380D01*
X164503452Y-88884761D01*
X164455833Y-88837142D01*
X164408214Y-88741904D01*
X164408214Y-88503809D01*
X164455833Y-88408571D01*
X164503452Y-88360952D01*
X164598690Y-88313333D01*
X164789166Y-88313333D01*
X164884404Y-88360952D01*
X164932023Y-88408571D01*
X164979642Y-88503809D01*
X130281904Y-87980000D02*
X130377142Y-87932380D01*
X130520000Y-87932380D01*
X130662857Y-87980000D01*
X130758095Y-88075238D01*
X130805714Y-88170476D01*
X130853333Y-88360952D01*
X130853333Y-88503809D01*
X130805714Y-88694285D01*
X130758095Y-88789523D01*
X130662857Y-88884761D01*
X130520000Y-88932380D01*
X130424761Y-88932380D01*
X130281904Y-88884761D01*
X130234285Y-88837142D01*
X130234285Y-88503809D01*
X130424761Y-88503809D01*
X129805714Y-88932380D02*
X129805714Y-87932380D01*
X129234285Y-88932380D01*
X129234285Y-87932380D01*
X128758095Y-88932380D02*
X128758095Y-87932380D01*
X128520000Y-87932380D01*
X128377142Y-87980000D01*
X128281904Y-88075238D01*
X128234285Y-88170476D01*
X128186666Y-88360952D01*
X128186666Y-88503809D01*
X128234285Y-88694285D01*
X128281904Y-88789523D01*
X128377142Y-88884761D01*
X128520000Y-88932380D01*
X128758095Y-88932380D01*
X168420000Y-114441904D02*
X168467619Y-114537142D01*
X168467619Y-114680000D01*
X168420000Y-114822857D01*
X168324761Y-114918095D01*
X168229523Y-114965714D01*
X168039047Y-115013333D01*
X167896190Y-115013333D01*
X167705714Y-114965714D01*
X167610476Y-114918095D01*
X167515238Y-114822857D01*
X167467619Y-114680000D01*
X167467619Y-114584761D01*
X167515238Y-114441904D01*
X167562857Y-114394285D01*
X167896190Y-114394285D01*
X167896190Y-114584761D01*
X167467619Y-113965714D02*
X168467619Y-113965714D01*
X167467619Y-113394285D01*
X168467619Y-113394285D01*
X167467619Y-112918095D02*
X168467619Y-112918095D01*
X168467619Y-112680000D01*
X168420000Y-112537142D01*
X168324761Y-112441904D01*
X168229523Y-112394285D01*
X168039047Y-112346666D01*
X167896190Y-112346666D01*
X167705714Y-112394285D01*
X167610476Y-112441904D01*
X167515238Y-112537142D01*
X167467619Y-112680000D01*
X167467619Y-112918095D01*
X134760595Y-115132380D02*
X135332023Y-115132380D01*
X135046309Y-115132380D02*
X135046309Y-114132380D01*
X135141547Y-114275238D01*
X135236785Y-114370476D01*
X135332023Y-114418095D01*
X134427261Y-114132380D02*
X133808214Y-114132380D01*
X134141547Y-114513333D01*
X133998690Y-114513333D01*
X133903452Y-114560952D01*
X133855833Y-114608571D01*
X133808214Y-114703809D01*
X133808214Y-114941904D01*
X133855833Y-115037142D01*
X133903452Y-115084761D01*
X133998690Y-115132380D01*
X134284404Y-115132380D01*
X134379642Y-115084761D01*
X134427261Y-115037142D01*
X133046309Y-114608571D02*
X132903452Y-114656190D01*
X132855833Y-114703809D01*
X132808214Y-114799047D01*
X132808214Y-114941904D01*
X132855833Y-115037142D01*
X132903452Y-115084761D01*
X132998690Y-115132380D01*
X133379642Y-115132380D01*
X133379642Y-114132380D01*
X133046309Y-114132380D01*
X132951071Y-114180000D01*
X132903452Y-114227619D01*
X132855833Y-114322857D01*
X132855833Y-114418095D01*
X132903452Y-114513333D01*
X132951071Y-114560952D01*
X133046309Y-114608571D01*
X133379642Y-114608571D01*
X116950952Y-120150000D02*
X117046190Y-120102380D01*
X117189047Y-120102380D01*
X117331904Y-120150000D01*
X117427142Y-120245238D01*
X117474761Y-120340476D01*
X117522380Y-120530952D01*
X117522380Y-120673809D01*
X117474761Y-120864285D01*
X117427142Y-120959523D01*
X117331904Y-121054761D01*
X117189047Y-121102380D01*
X117093809Y-121102380D01*
X116950952Y-121054761D01*
X116903333Y-121007142D01*
X116903333Y-120673809D01*
X117093809Y-120673809D01*
X116474761Y-121102380D02*
X116474761Y-120102380D01*
X115903333Y-121102380D01*
X115903333Y-120102380D01*
X115427142Y-121102380D02*
X115427142Y-120102380D01*
X115189047Y-120102380D01*
X115046190Y-120150000D01*
X114950952Y-120245238D01*
X114903333Y-120340476D01*
X114855714Y-120530952D01*
X114855714Y-120673809D01*
X114903333Y-120864285D01*
X114950952Y-120959523D01*
X115046190Y-121054761D01*
X115189047Y-121102380D01*
X115427142Y-121102380D01*
X114427142Y-120435714D02*
X113665238Y-120721428D01*
X114427142Y-121007142D01*
X120132023Y-89427619D02*
X120084404Y-89380000D01*
X119989166Y-89332380D01*
X119751071Y-89332380D01*
X119655833Y-89380000D01*
X119608214Y-89427619D01*
X119560595Y-89522857D01*
X119560595Y-89618095D01*
X119608214Y-89760952D01*
X120179642Y-90332380D01*
X119560595Y-90332380D01*
X119227261Y-89332380D02*
X118608214Y-89332380D01*
X118941547Y-89713333D01*
X118798690Y-89713333D01*
X118703452Y-89760952D01*
X118655833Y-89808571D01*
X118608214Y-89903809D01*
X118608214Y-90141904D01*
X118655833Y-90237142D01*
X118703452Y-90284761D01*
X118798690Y-90332380D01*
X119084404Y-90332380D01*
X119179642Y-90284761D01*
X119227261Y-90237142D01*
X131353333Y-89332380D02*
X131020000Y-90332380D01*
X130686666Y-89332380D01*
X130020000Y-89808571D02*
X129877142Y-89856190D01*
X129829523Y-89903809D01*
X129781904Y-89999047D01*
X129781904Y-90141904D01*
X129829523Y-90237142D01*
X129877142Y-90284761D01*
X129972380Y-90332380D01*
X130353333Y-90332380D01*
X130353333Y-89332380D01*
X130020000Y-89332380D01*
X129924761Y-89380000D01*
X129877142Y-89427619D01*
X129829523Y-89522857D01*
X129829523Y-89618095D01*
X129877142Y-89713333D01*
X129924761Y-89760952D01*
X130020000Y-89808571D01*
X130353333Y-89808571D01*
X129353333Y-89332380D02*
X129353333Y-90141904D01*
X129305714Y-90237142D01*
X129258095Y-90284761D01*
X129162857Y-90332380D01*
X128972380Y-90332380D01*
X128877142Y-90284761D01*
X128829523Y-90237142D01*
X128781904Y-90141904D01*
X128781904Y-89332380D01*
X128353333Y-90284761D02*
X128210476Y-90332380D01*
X127972380Y-90332380D01*
X127877142Y-90284761D01*
X127829523Y-90237142D01*
X127781904Y-90141904D01*
X127781904Y-90046666D01*
X127829523Y-89951428D01*
X127877142Y-89903809D01*
X127972380Y-89856190D01*
X128162857Y-89808571D01*
X128258095Y-89760952D01*
X128305714Y-89713333D01*
X128353333Y-89618095D01*
X128353333Y-89522857D01*
X128305714Y-89427619D01*
X128258095Y-89380000D01*
X128162857Y-89332380D01*
X127924761Y-89332380D01*
X127781904Y-89380000D01*
X171458095Y-88032380D02*
X170839047Y-88032380D01*
X171172380Y-88413333D01*
X171029523Y-88413333D01*
X170934285Y-88460952D01*
X170886666Y-88508571D01*
X170839047Y-88603809D01*
X170839047Y-88841904D01*
X170886666Y-88937142D01*
X170934285Y-88984761D01*
X171029523Y-89032380D01*
X171315238Y-89032380D01*
X171410476Y-88984761D01*
X171458095Y-88937142D01*
X170553333Y-88032380D02*
X170220000Y-89032380D01*
X169886666Y-88032380D01*
X169648571Y-88032380D02*
X169029523Y-88032380D01*
X169362857Y-88413333D01*
X169220000Y-88413333D01*
X169124761Y-88460952D01*
X169077142Y-88508571D01*
X169029523Y-88603809D01*
X169029523Y-88841904D01*
X169077142Y-88937142D01*
X169124761Y-88984761D01*
X169220000Y-89032380D01*
X169505714Y-89032380D01*
X169600952Y-88984761D01*
X169648571Y-88937142D01*
%LPC*%
D11*
X109220000Y-114935000D02*
X113665000Y-114935000D01*
X113665000Y-114935000D02*
X113665000Y-121920000D01*
X113665000Y-121920000D02*
X109220000Y-121920000D01*
X109220000Y-121920000D02*
X109220000Y-114935000D01*
G36*
X109220000Y-114935000D02*
G01*
X113665000Y-114935000D01*
X113665000Y-121920000D01*
X109220000Y-121920000D01*
X109220000Y-114935000D01*
G37*
D12*
X125720000Y-117717500D03*
X120720000Y-117717500D03*
D13*
X119720000Y-120417500D03*
X126720000Y-120417500D03*
D14*
X152400000Y-86380000D03*
D15*
X152400000Y-83840000D03*
D14*
X128720000Y-92880000D03*
D15*
X131260000Y-92880000D03*
X133800000Y-92880000D03*
D14*
X157480000Y-119380000D03*
D15*
X160020000Y-119380000D03*
X162560000Y-119380000D03*
X165100000Y-119380000D03*
X167640000Y-119380000D03*
X170180000Y-119380000D03*
X157480000Y-116840000D03*
X160020000Y-116840000D03*
X162560000Y-116840000D03*
X165100000Y-116840000D03*
X167640000Y-116840000D03*
X170180000Y-116840000D03*
D14*
X129540000Y-86360000D03*
D15*
X129540000Y-83820000D03*
D14*
X134620000Y-119380000D03*
D15*
X137160000Y-119380000D03*
X139700000Y-119380000D03*
X142240000Y-119380000D03*
X144780000Y-119380000D03*
X147320000Y-119380000D03*
X134620000Y-116840000D03*
X137160000Y-116840000D03*
X139700000Y-116840000D03*
X142240000Y-116840000D03*
X144780000Y-116840000D03*
X147320000Y-116840000D03*
D14*
X111760000Y-86365000D03*
D15*
X114300000Y-86365000D03*
X116840000Y-86365000D03*
X119380000Y-86365000D03*
X121920000Y-86365000D03*
X124460000Y-86365000D03*
X111760000Y-83825000D03*
X114300000Y-83825000D03*
X116840000Y-83825000D03*
X119380000Y-83825000D03*
X121920000Y-83825000D03*
X124460000Y-83825000D03*
D16*
X111760000Y-112395000D03*
D14*
X129540000Y-119375000D03*
D15*
X129540000Y-116835000D03*
D14*
X157480000Y-86365000D03*
D15*
X160020000Y-86365000D03*
X162560000Y-86365000D03*
X165100000Y-86365000D03*
X167640000Y-86365000D03*
X170180000Y-86365000D03*
X157480000Y-83825000D03*
X160020000Y-83825000D03*
X162560000Y-83825000D03*
X165100000Y-83825000D03*
X167640000Y-83825000D03*
X170180000Y-83825000D03*
D16*
X170180000Y-90805000D03*
D14*
X152400000Y-119375000D03*
D15*
X152400000Y-116835000D03*
D16*
X170180000Y-112395000D03*
D14*
X134620000Y-86365000D03*
D15*
X137160000Y-86365000D03*
X139700000Y-86365000D03*
X142240000Y-86365000D03*
X144780000Y-86365000D03*
X147320000Y-86365000D03*
X134620000Y-83825000D03*
X137160000Y-83825000D03*
X139700000Y-83825000D03*
X142240000Y-83825000D03*
X144780000Y-83825000D03*
X147320000Y-83825000D03*
D12*
X113320000Y-99172500D03*
D17*
X110620000Y-105172500D03*
X110620000Y-98172500D03*
D12*
X113320000Y-104172500D03*
D16*
X111760000Y-90805000D03*
M02*
