%TF.GenerationSoftware,KiCad,Pcbnew,(6.0.7)*%
%TF.CreationDate,2022-09-05T12:57:27-07:00*%
%TF.ProjectId,ice2040,69636532-3034-4302-9e6b-696361645f70,1*%
%TF.SameCoordinates,Original*%
%TF.FileFunction,Drillmap*%
%TF.FilePolarity,Positive*%
%FSLAX45Y45*%
G04 Gerber Fmt 4.5, Leading zero omitted, Abs format (unit mm)*
G04 Created by KiCad (PCBNEW (6.0.7)) date 2022-09-05 12:57:27*
%MOMM*%
%LPD*%
G01*
G04 APERTURE LIST*
%ADD10C,0.100000*%
%ADD11C,0.200000*%
%ADD12C,0.220000*%
G04 APERTURE END LIST*
D10*
X10922000Y-8128000D02*
X17272000Y-8128000D01*
X17272000Y-8128000D02*
X17272000Y-12192000D01*
X17272000Y-12192000D02*
X10922000Y-12192000D01*
X10922000Y-12192000D02*
X10922000Y-8128000D01*
D11*
D12*
X11066000Y-8970500D02*
X11286000Y-9190500D01*
X11286000Y-8970500D02*
X11066000Y-9190500D01*
X11066000Y-11129500D02*
X11286000Y-11349500D01*
X11286000Y-11129500D02*
X11066000Y-11349500D01*
X16908000Y-8970500D02*
X17128000Y-9190500D01*
X17128000Y-8970500D02*
X16908000Y-9190500D01*
X16908000Y-11129500D02*
X17128000Y-11349500D01*
X17128000Y-11129500D02*
X16908000Y-11349500D01*
D11*
X11174619Y-12507476D02*
X11174619Y-12307476D01*
X11222238Y-12307476D01*
X11250809Y-12317000D01*
X11269857Y-12336048D01*
X11279381Y-12355095D01*
X11288905Y-12393190D01*
X11288905Y-12421762D01*
X11279381Y-12459857D01*
X11269857Y-12478905D01*
X11250809Y-12497952D01*
X11222238Y-12507476D01*
X11174619Y-12507476D01*
X11374619Y-12507476D02*
X11374619Y-12374143D01*
X11374619Y-12412238D02*
X11384143Y-12393190D01*
X11393667Y-12383667D01*
X11412714Y-12374143D01*
X11431762Y-12374143D01*
X11498428Y-12507476D02*
X11498428Y-12374143D01*
X11498428Y-12307476D02*
X11488905Y-12317000D01*
X11498428Y-12326524D01*
X11507952Y-12317000D01*
X11498428Y-12307476D01*
X11498428Y-12326524D01*
X11622238Y-12507476D02*
X11603190Y-12497952D01*
X11593667Y-12478905D01*
X11593667Y-12307476D01*
X11727000Y-12507476D02*
X11707952Y-12497952D01*
X11698428Y-12478905D01*
X11698428Y-12307476D01*
X11955571Y-12507476D02*
X11955571Y-12307476D01*
X12022238Y-12450333D01*
X12088905Y-12307476D01*
X12088905Y-12507476D01*
X12269857Y-12507476D02*
X12269857Y-12402714D01*
X12260333Y-12383667D01*
X12241286Y-12374143D01*
X12203190Y-12374143D01*
X12184143Y-12383667D01*
X12269857Y-12497952D02*
X12250809Y-12507476D01*
X12203190Y-12507476D01*
X12184143Y-12497952D01*
X12174619Y-12478905D01*
X12174619Y-12459857D01*
X12184143Y-12440809D01*
X12203190Y-12431286D01*
X12250809Y-12431286D01*
X12269857Y-12421762D01*
X12365095Y-12374143D02*
X12365095Y-12574143D01*
X12365095Y-12383667D02*
X12384143Y-12374143D01*
X12422238Y-12374143D01*
X12441286Y-12383667D01*
X12450809Y-12393190D01*
X12460333Y-12412238D01*
X12460333Y-12469381D01*
X12450809Y-12488428D01*
X12441286Y-12497952D01*
X12422238Y-12507476D01*
X12384143Y-12507476D01*
X12365095Y-12497952D01*
X12546048Y-12488428D02*
X12555571Y-12497952D01*
X12546048Y-12507476D01*
X12536524Y-12497952D01*
X12546048Y-12488428D01*
X12546048Y-12507476D01*
X12546048Y-12383667D02*
X12555571Y-12393190D01*
X12546048Y-12402714D01*
X12536524Y-12393190D01*
X12546048Y-12383667D01*
X12546048Y-12402714D01*
X10717000Y-12737000D02*
X10917000Y-12937000D01*
X10917000Y-12737000D02*
X10717000Y-12937000D01*
X11165095Y-12746524D02*
X11174619Y-12737000D01*
X11193667Y-12727476D01*
X11241286Y-12727476D01*
X11260333Y-12737000D01*
X11269857Y-12746524D01*
X11279381Y-12765571D01*
X11279381Y-12784619D01*
X11269857Y-12813190D01*
X11155571Y-12927476D01*
X11279381Y-12927476D01*
X11365095Y-12908428D02*
X11374619Y-12917952D01*
X11365095Y-12927476D01*
X11355571Y-12917952D01*
X11365095Y-12908428D01*
X11365095Y-12927476D01*
X11450809Y-12746524D02*
X11460333Y-12737000D01*
X11479381Y-12727476D01*
X11527000Y-12727476D01*
X11546048Y-12737000D01*
X11555571Y-12746524D01*
X11565095Y-12765571D01*
X11565095Y-12784619D01*
X11555571Y-12813190D01*
X11441286Y-12927476D01*
X11565095Y-12927476D01*
X11688905Y-12727476D02*
X11707952Y-12727476D01*
X11727000Y-12737000D01*
X11736524Y-12746524D01*
X11746048Y-12765571D01*
X11755571Y-12803667D01*
X11755571Y-12851286D01*
X11746048Y-12889381D01*
X11736524Y-12908428D01*
X11727000Y-12917952D01*
X11707952Y-12927476D01*
X11688905Y-12927476D01*
X11669857Y-12917952D01*
X11660333Y-12908428D01*
X11650809Y-12889381D01*
X11641286Y-12851286D01*
X11641286Y-12803667D01*
X11650809Y-12765571D01*
X11660333Y-12746524D01*
X11669857Y-12737000D01*
X11688905Y-12727476D01*
X11879381Y-12727476D02*
X11898428Y-12727476D01*
X11917476Y-12737000D01*
X11927000Y-12746524D01*
X11936524Y-12765571D01*
X11946048Y-12803667D01*
X11946048Y-12851286D01*
X11936524Y-12889381D01*
X11927000Y-12908428D01*
X11917476Y-12917952D01*
X11898428Y-12927476D01*
X11879381Y-12927476D01*
X11860333Y-12917952D01*
X11850809Y-12908428D01*
X11841286Y-12889381D01*
X11831762Y-12851286D01*
X11831762Y-12803667D01*
X11841286Y-12765571D01*
X11850809Y-12746524D01*
X11860333Y-12737000D01*
X11879381Y-12727476D01*
X12031762Y-12927476D02*
X12031762Y-12794143D01*
X12031762Y-12813190D02*
X12041286Y-12803667D01*
X12060333Y-12794143D01*
X12088905Y-12794143D01*
X12107952Y-12803667D01*
X12117476Y-12822714D01*
X12117476Y-12927476D01*
X12117476Y-12822714D02*
X12127000Y-12803667D01*
X12146048Y-12794143D01*
X12174619Y-12794143D01*
X12193667Y-12803667D01*
X12203190Y-12822714D01*
X12203190Y-12927476D01*
X12298428Y-12927476D02*
X12298428Y-12794143D01*
X12298428Y-12813190D02*
X12307952Y-12803667D01*
X12327000Y-12794143D01*
X12355571Y-12794143D01*
X12374619Y-12803667D01*
X12384143Y-12822714D01*
X12384143Y-12927476D01*
X12384143Y-12822714D02*
X12393667Y-12803667D01*
X12412714Y-12794143D01*
X12441286Y-12794143D01*
X12460333Y-12803667D01*
X12469857Y-12822714D01*
X12469857Y-12927476D01*
X12860333Y-12717952D02*
X12688905Y-12975095D01*
X13117476Y-12727476D02*
X13136524Y-12727476D01*
X13155571Y-12737000D01*
X13165095Y-12746524D01*
X13174619Y-12765571D01*
X13184143Y-12803667D01*
X13184143Y-12851286D01*
X13174619Y-12889381D01*
X13165095Y-12908428D01*
X13155571Y-12917952D01*
X13136524Y-12927476D01*
X13117476Y-12927476D01*
X13098428Y-12917952D01*
X13088905Y-12908428D01*
X13079381Y-12889381D01*
X13069857Y-12851286D01*
X13069857Y-12803667D01*
X13079381Y-12765571D01*
X13088905Y-12746524D01*
X13098428Y-12737000D01*
X13117476Y-12727476D01*
X13269857Y-12908428D02*
X13279381Y-12917952D01*
X13269857Y-12927476D01*
X13260333Y-12917952D01*
X13269857Y-12908428D01*
X13269857Y-12927476D01*
X13403190Y-12727476D02*
X13422238Y-12727476D01*
X13441286Y-12737000D01*
X13450809Y-12746524D01*
X13460333Y-12765571D01*
X13469857Y-12803667D01*
X13469857Y-12851286D01*
X13460333Y-12889381D01*
X13450809Y-12908428D01*
X13441286Y-12917952D01*
X13422238Y-12927476D01*
X13403190Y-12927476D01*
X13384143Y-12917952D01*
X13374619Y-12908428D01*
X13365095Y-12889381D01*
X13355571Y-12851286D01*
X13355571Y-12803667D01*
X13365095Y-12765571D01*
X13374619Y-12746524D01*
X13384143Y-12737000D01*
X13403190Y-12727476D01*
X13584143Y-12813190D02*
X13565095Y-12803667D01*
X13555571Y-12794143D01*
X13546048Y-12775095D01*
X13546048Y-12765571D01*
X13555571Y-12746524D01*
X13565095Y-12737000D01*
X13584143Y-12727476D01*
X13622238Y-12727476D01*
X13641286Y-12737000D01*
X13650809Y-12746524D01*
X13660333Y-12765571D01*
X13660333Y-12775095D01*
X13650809Y-12794143D01*
X13641286Y-12803667D01*
X13622238Y-12813190D01*
X13584143Y-12813190D01*
X13565095Y-12822714D01*
X13555571Y-12832238D01*
X13546048Y-12851286D01*
X13546048Y-12889381D01*
X13555571Y-12908428D01*
X13565095Y-12917952D01*
X13584143Y-12927476D01*
X13622238Y-12927476D01*
X13641286Y-12917952D01*
X13650809Y-12908428D01*
X13660333Y-12889381D01*
X13660333Y-12851286D01*
X13650809Y-12832238D01*
X13641286Y-12822714D01*
X13622238Y-12813190D01*
X13831762Y-12727476D02*
X13793667Y-12727476D01*
X13774619Y-12737000D01*
X13765095Y-12746524D01*
X13746048Y-12775095D01*
X13736524Y-12813190D01*
X13736524Y-12889381D01*
X13746048Y-12908428D01*
X13755571Y-12917952D01*
X13774619Y-12927476D01*
X13812714Y-12927476D01*
X13831762Y-12917952D01*
X13841286Y-12908428D01*
X13850809Y-12889381D01*
X13850809Y-12841762D01*
X13841286Y-12822714D01*
X13831762Y-12813190D01*
X13812714Y-12803667D01*
X13774619Y-12803667D01*
X13755571Y-12813190D01*
X13746048Y-12822714D01*
X13736524Y-12841762D01*
X14022238Y-12727476D02*
X13984143Y-12727476D01*
X13965095Y-12737000D01*
X13955571Y-12746524D01*
X13936524Y-12775095D01*
X13927000Y-12813190D01*
X13927000Y-12889381D01*
X13936524Y-12908428D01*
X13946048Y-12917952D01*
X13965095Y-12927476D01*
X14003190Y-12927476D01*
X14022238Y-12917952D01*
X14031762Y-12908428D01*
X14041286Y-12889381D01*
X14041286Y-12841762D01*
X14031762Y-12822714D01*
X14022238Y-12813190D01*
X14003190Y-12803667D01*
X13965095Y-12803667D01*
X13946048Y-12813190D01*
X13936524Y-12822714D01*
X13927000Y-12841762D01*
X14117476Y-12727476D02*
X14117476Y-12765571D01*
X14193667Y-12727476D02*
X14193667Y-12765571D01*
X14488905Y-13003667D02*
X14479381Y-12994143D01*
X14460333Y-12965571D01*
X14450809Y-12946524D01*
X14441286Y-12917952D01*
X14431762Y-12870333D01*
X14431762Y-12832238D01*
X14441286Y-12784619D01*
X14450809Y-12756048D01*
X14460333Y-12737000D01*
X14479381Y-12708428D01*
X14488905Y-12698905D01*
X14650809Y-12794143D02*
X14650809Y-12927476D01*
X14603190Y-12717952D02*
X14555571Y-12860809D01*
X14679381Y-12860809D01*
X14907952Y-12927476D02*
X14907952Y-12727476D01*
X14993667Y-12927476D02*
X14993667Y-12822714D01*
X14984143Y-12803667D01*
X14965095Y-12794143D01*
X14936524Y-12794143D01*
X14917476Y-12803667D01*
X14907952Y-12813190D01*
X15117476Y-12927476D02*
X15098428Y-12917952D01*
X15088905Y-12908428D01*
X15079381Y-12889381D01*
X15079381Y-12832238D01*
X15088905Y-12813190D01*
X15098428Y-12803667D01*
X15117476Y-12794143D01*
X15146048Y-12794143D01*
X15165095Y-12803667D01*
X15174619Y-12813190D01*
X15184143Y-12832238D01*
X15184143Y-12889381D01*
X15174619Y-12908428D01*
X15165095Y-12917952D01*
X15146048Y-12927476D01*
X15117476Y-12927476D01*
X15298428Y-12927476D02*
X15279381Y-12917952D01*
X15269857Y-12898905D01*
X15269857Y-12727476D01*
X15450809Y-12917952D02*
X15431762Y-12927476D01*
X15393667Y-12927476D01*
X15374619Y-12917952D01*
X15365095Y-12898905D01*
X15365095Y-12822714D01*
X15374619Y-12803667D01*
X15393667Y-12794143D01*
X15431762Y-12794143D01*
X15450809Y-12803667D01*
X15460333Y-12822714D01*
X15460333Y-12841762D01*
X15365095Y-12860809D01*
X15536524Y-12917952D02*
X15555571Y-12927476D01*
X15593667Y-12927476D01*
X15612714Y-12917952D01*
X15622238Y-12898905D01*
X15622238Y-12889381D01*
X15612714Y-12870333D01*
X15593667Y-12860809D01*
X15565095Y-12860809D01*
X15546048Y-12851286D01*
X15536524Y-12832238D01*
X15536524Y-12822714D01*
X15546048Y-12803667D01*
X15565095Y-12794143D01*
X15593667Y-12794143D01*
X15612714Y-12803667D01*
X15688905Y-13003667D02*
X15698428Y-12994143D01*
X15717476Y-12965571D01*
X15727000Y-12946524D01*
X15736524Y-12917952D01*
X15746048Y-12870333D01*
X15746048Y-12832238D01*
X15736524Y-12784619D01*
X15727000Y-12756048D01*
X15717476Y-12737000D01*
X15698428Y-12708428D01*
X15688905Y-12698905D01*
X16050809Y-13003667D02*
X16041286Y-12994143D01*
X16022238Y-12965571D01*
X16012714Y-12946524D01*
X16003190Y-12917952D01*
X15993667Y-12870333D01*
X15993667Y-12832238D01*
X16003190Y-12784619D01*
X16012714Y-12756048D01*
X16022238Y-12737000D01*
X16041286Y-12708428D01*
X16050809Y-12698905D01*
X16127000Y-12794143D02*
X16127000Y-12927476D01*
X16127000Y-12813190D02*
X16136524Y-12803667D01*
X16155571Y-12794143D01*
X16184143Y-12794143D01*
X16203190Y-12803667D01*
X16212714Y-12822714D01*
X16212714Y-12927476D01*
X16336524Y-12927476D02*
X16317476Y-12917952D01*
X16307952Y-12908428D01*
X16298428Y-12889381D01*
X16298428Y-12832238D01*
X16307952Y-12813190D01*
X16317476Y-12803667D01*
X16336524Y-12794143D01*
X16365095Y-12794143D01*
X16384143Y-12803667D01*
X16393667Y-12813190D01*
X16403190Y-12832238D01*
X16403190Y-12889381D01*
X16393667Y-12908428D01*
X16384143Y-12917952D01*
X16365095Y-12927476D01*
X16336524Y-12927476D01*
X16460333Y-12794143D02*
X16536524Y-12794143D01*
X16488905Y-12727476D02*
X16488905Y-12898905D01*
X16498428Y-12917952D01*
X16517476Y-12927476D01*
X16536524Y-12927476D01*
X16755571Y-12794143D02*
X16755571Y-12994143D01*
X16755571Y-12803667D02*
X16774619Y-12794143D01*
X16812714Y-12794143D01*
X16831762Y-12803667D01*
X16841286Y-12813190D01*
X16850810Y-12832238D01*
X16850810Y-12889381D01*
X16841286Y-12908428D01*
X16831762Y-12917952D01*
X16812714Y-12927476D01*
X16774619Y-12927476D01*
X16755571Y-12917952D01*
X16965095Y-12927476D02*
X16946048Y-12917952D01*
X16936524Y-12898905D01*
X16936524Y-12727476D01*
X17127000Y-12927476D02*
X17127000Y-12822714D01*
X17117476Y-12803667D01*
X17098429Y-12794143D01*
X17060333Y-12794143D01*
X17041286Y-12803667D01*
X17127000Y-12917952D02*
X17107952Y-12927476D01*
X17060333Y-12927476D01*
X17041286Y-12917952D01*
X17031762Y-12898905D01*
X17031762Y-12879857D01*
X17041286Y-12860809D01*
X17060333Y-12851286D01*
X17107952Y-12851286D01*
X17127000Y-12841762D01*
X17193667Y-12794143D02*
X17269857Y-12794143D01*
X17222238Y-12727476D02*
X17222238Y-12898905D01*
X17231762Y-12917952D01*
X17250810Y-12927476D01*
X17269857Y-12927476D01*
X17412714Y-12917952D02*
X17393667Y-12927476D01*
X17355571Y-12927476D01*
X17336524Y-12917952D01*
X17327000Y-12898905D01*
X17327000Y-12822714D01*
X17336524Y-12803667D01*
X17355571Y-12794143D01*
X17393667Y-12794143D01*
X17412714Y-12803667D01*
X17422238Y-12822714D01*
X17422238Y-12841762D01*
X17327000Y-12860809D01*
X17593667Y-12927476D02*
X17593667Y-12727476D01*
X17593667Y-12917952D02*
X17574619Y-12927476D01*
X17536524Y-12927476D01*
X17517476Y-12917952D01*
X17507952Y-12908428D01*
X17498429Y-12889381D01*
X17498429Y-12832238D01*
X17507952Y-12813190D01*
X17517476Y-12803667D01*
X17536524Y-12794143D01*
X17574619Y-12794143D01*
X17593667Y-12803667D01*
X17669857Y-13003667D02*
X17679381Y-12994143D01*
X17698429Y-12965571D01*
X17707952Y-12946524D01*
X17717476Y-12917952D01*
X17727000Y-12870333D01*
X17727000Y-12832238D01*
X17717476Y-12784619D01*
X17707952Y-12756048D01*
X17698429Y-12737000D01*
X17679381Y-12708428D01*
X17669857Y-12698905D01*
M02*
