G04 #@! TF.GenerationSoftware,KiCad,Pcbnew,(6.0.7)*
G04 #@! TF.CreationDate,2022-09-05T12:55:51-07:00*
G04 #@! TF.ProjectId,ice2040,69636532-3034-4302-9e6b-696361645f70,1*
G04 #@! TF.SameCoordinates,Original*
G04 #@! TF.FileFunction,Soldermask,Bot*
G04 #@! TF.FilePolarity,Negative*
%FSLAX46Y46*%
G04 Gerber Fmt 4.6, Leading zero omitted, Abs format (unit mm)*
G04 Created by KiCad (PCBNEW (6.0.7)) date 2022-09-05 12:55:51*
%MOMM*%
%LPD*%
G01*
G04 APERTURE LIST*
%ADD10C,0.127000*%
%ADD11C,1.450000*%
%ADD12O,1.200000X1.900000*%
%ADD13R,1.700000X1.700000*%
%ADD14O,1.700000X1.700000*%
%ADD15C,2.200000*%
%ADD16O,1.900000X1.200000*%
G04 APERTURE END LIST*
D10*
X109220000Y-114935000D02*
X113665000Y-114935000D01*
X113665000Y-114935000D02*
X113665000Y-121920000D01*
X113665000Y-121920000D02*
X109220000Y-121920000D01*
X109220000Y-121920000D02*
X109220000Y-114935000D01*
G36*
X109220000Y-114935000D02*
G01*
X113665000Y-114935000D01*
X113665000Y-121920000D01*
X109220000Y-121920000D01*
X109220000Y-114935000D01*
G37*
D11*
X125720000Y-117717500D03*
X120720000Y-117717500D03*
D12*
X119720000Y-120417500D03*
X126720000Y-120417500D03*
D13*
X152400000Y-86380000D03*
D14*
X152400000Y-83840000D03*
D13*
X128720000Y-92880000D03*
D14*
X131260000Y-92880000D03*
X133800000Y-92880000D03*
D13*
X157480000Y-119380000D03*
D14*
X160020000Y-119380000D03*
X162560000Y-119380000D03*
X165100000Y-119380000D03*
X167640000Y-119380000D03*
X170180000Y-119380000D03*
X157480000Y-116840000D03*
X160020000Y-116840000D03*
X162560000Y-116840000D03*
X165100000Y-116840000D03*
X167640000Y-116840000D03*
X170180000Y-116840000D03*
D13*
X129540000Y-86360000D03*
D14*
X129540000Y-83820000D03*
D13*
X134620000Y-119380000D03*
D14*
X137160000Y-119380000D03*
X139700000Y-119380000D03*
X142240000Y-119380000D03*
X144780000Y-119380000D03*
X147320000Y-119380000D03*
X134620000Y-116840000D03*
X137160000Y-116840000D03*
X139700000Y-116840000D03*
X142240000Y-116840000D03*
X144780000Y-116840000D03*
X147320000Y-116840000D03*
D13*
X111760000Y-86365000D03*
D14*
X114300000Y-86365000D03*
X116840000Y-86365000D03*
X119380000Y-86365000D03*
X121920000Y-86365000D03*
X124460000Y-86365000D03*
X111760000Y-83825000D03*
X114300000Y-83825000D03*
X116840000Y-83825000D03*
X119380000Y-83825000D03*
X121920000Y-83825000D03*
X124460000Y-83825000D03*
D15*
X111760000Y-112395000D03*
D13*
X129540000Y-119375000D03*
D14*
X129540000Y-116835000D03*
D13*
X157480000Y-86365000D03*
D14*
X160020000Y-86365000D03*
X162560000Y-86365000D03*
X165100000Y-86365000D03*
X167640000Y-86365000D03*
X170180000Y-86365000D03*
X157480000Y-83825000D03*
X160020000Y-83825000D03*
X162560000Y-83825000D03*
X165100000Y-83825000D03*
X167640000Y-83825000D03*
X170180000Y-83825000D03*
D15*
X170180000Y-90805000D03*
D13*
X152400000Y-119375000D03*
D14*
X152400000Y-116835000D03*
D15*
X170180000Y-112395000D03*
D13*
X134620000Y-86365000D03*
D14*
X137160000Y-86365000D03*
X139700000Y-86365000D03*
X142240000Y-86365000D03*
X144780000Y-86365000D03*
X147320000Y-86365000D03*
X134620000Y-83825000D03*
X137160000Y-83825000D03*
X139700000Y-83825000D03*
X142240000Y-83825000D03*
X144780000Y-83825000D03*
X147320000Y-83825000D03*
D11*
X113320000Y-99172500D03*
D16*
X110620000Y-105172500D03*
X110620000Y-98172500D03*
D11*
X113320000Y-104172500D03*
D15*
X111760000Y-90805000D03*
M02*
