M48
; DRILL file {KiCad (6.0.7)} date Mon Sep  5 12:56:55 2022
; FORMAT={-:-/ absolute / metric / decimal}
; #@! TF.CreationDate,2022-09-05T12:56:55-07:00
; #@! TF.GenerationSoftware,Kicad,Pcbnew,(6.0.7)
; #@! TF.FileFunction,Plated,1,4,PTH
FMAT,2
METRIC
; #@! TA.AperFunction,Plated,PTH,ViaDrill
T1C0.200
; #@! TA.AperFunction,Plated,PTH,ComponentDrill
T2C0.200
; #@! TA.AperFunction,Plated,PTH,ViaDrill
T3C0.300
; #@! TA.AperFunction,Plated,PTH,ComponentDrill
T4C0.600
; #@! TA.AperFunction,Plated,PTH,ComponentDrill
T5C0.850
; #@! TA.AperFunction,Plated,PTH,ComponentDrill
T6C1.000
%
G90
G05
T1
X115.816Y-103.492
X116.12Y-96.98
X116.625Y-103.487
X117.52Y-92.18
X118.72Y-99.98
X121.52Y-90.78
X123.92Y-95.98
X127.92Y-98.28
X132.384Y-98.28
X134.36Y-104.08
X135.21Y-104.86
X135.92Y-97.58
X136.1Y-90.76
X136.215Y-104.828
X136.72Y-96.928
X136.78Y-93.67
X137.45Y-93.67
X137.72Y-94.5
X138.11Y-93.57
X138.41Y-104.84
X138.51Y-94.64
X139.4Y-104.87
X141.88Y-92.24
X143.92Y-103.648
X144.55Y-98.18
X145.02Y-102.28
X146.49Y-101.67
X148.17Y-108.74
X149.13Y-111.28
X149.22Y-101.28
X150.02Y-94.98
X150.42Y-100.08
X150.42Y-111.08
X153.82Y-95.68
X153.92Y-107.28
X154.12Y-110.58
X154.484Y-105.835
X154.514Y-104.875
X154.92Y-108.322
X154.92Y-109.18
X156.005Y-108.852
X156.847Y-109.346
X157.12Y-105.38
X157.32Y-91.68
X157.552Y-106.434
X158.02Y-105.38
X158.47Y-107.348
X159.52Y-107.28
X159.52Y-108.18
X163.52Y-92.88
X167.12Y-108.58
X171.62Y-108.48
T2
X137.17Y-98.33
X137.17Y-99.68
X137.17Y-101.03
X138.52Y-98.33
X138.52Y-99.68
X138.52Y-101.03
X139.87Y-98.33
X139.87Y-99.68
X139.87Y-101.03
T3
X110.49Y-116.205
X110.49Y-120.65
X110.67Y-108.24
X111.65Y-107.26
X111.82Y-93.88
X112.395Y-116.205
X112.395Y-120.65
X113.89Y-115.88
X113.89Y-118.08
X113.9Y-113.69
X114.32Y-109.88
X114.33Y-102.95
X114.84Y-114.92
X114.84Y-117.12
X114.86Y-112.71
X114.86Y-119.04
X115.93Y-111.23
X116.22Y-108.08
X116.32Y-98.98
X116.59Y-113.69
X116.59Y-115.88
X116.59Y-118.06
X117.09Y-104.94
X117.58Y-119.06
X118.11Y-103.64
X118.11Y-106.25
X118.11Y-112.52
X118.12Y-109.96
X118.54Y-115.88
X118.55Y-113.67
X118.55Y-118.04
X119.324Y-104.899
X119.52Y-108.08
X120.3Y-111.23
X120.397Y-103.529
X120.43Y-106.366
X120.43Y-113.36
X121.569Y-104.927
X121.82Y-115.78
X123.0Y-109.22
X123.22Y-90.48
X124.52Y-88.48
X124.52Y-116.67
X124.54Y-118.76
X126.12Y-106.48
X126.12Y-109.18
X126.12Y-111.88
X127.02Y-82.88
X127.02Y-86.28
X129.21Y-109.22
X130.52Y-113.88
X131.72Y-112.08
X132.02Y-86.18
X132.112Y-109.8
X132.12Y-118.38
X132.19Y-104.17
X132.22Y-82.58
X132.24Y-103.27
X132.612Y-111.1
X132.72Y-113.58
X132.92Y-115.48
X133.7Y-107.22
X134.42Y-102.96
X135.41Y-103.61
X135.432Y-102.654
X135.6Y-105.83
X135.81Y-98.68
X135.81Y-108.44
X135.9Y-107.7
X135.96Y-110.34
X136.302Y-102.25
X136.536Y-105.801
X136.97Y-110.21
X137.14Y-101.99
X138.02Y-105.83
X138.094Y-102.486
X138.46Y-97.04
X139.03Y-105.84
X139.52Y-96.97
X140.04Y-110.77
X141.11Y-101.97
X141.12Y-107.58
X141.12Y-109.78
X141.21Y-98.69
X142.52Y-102.807
X143.22Y-107.58
X143.22Y-109.78
X145.96Y-106.3
X147.07Y-107.46
X148.21Y-102.47
X149.02Y-119.58
X149.83Y-115.86
X150.72Y-118.78
X151.72Y-92.98
X154.135Y-107.99
X154.32Y-103.98
X155.12Y-85.98
X155.32Y-119.68
X155.82Y-116.28
X160.22Y-91.58
X161.12Y-110.18
X161.22Y-117.98
X163.72Y-99.48
X165.02Y-101.88
X165.22Y-92.38
X166.12Y-90.48
X166.32Y-99.48
X168.02Y-111.08
X168.02Y-114.68
X168.72Y-99.48
X169.22Y-96.08
T5
X113.32Y-99.172
X113.32Y-104.172
X120.72Y-117.718
X125.72Y-117.718
T6
X111.76Y-83.825
X111.76Y-86.365
X114.3Y-83.825
X114.3Y-86.365
X116.84Y-83.825
X116.84Y-86.365
X119.38Y-83.825
X119.38Y-86.365
X121.92Y-83.825
X121.92Y-86.365
X124.46Y-83.825
X124.46Y-86.365
X128.72Y-92.88
X129.54Y-83.82
X129.54Y-86.36
X129.54Y-116.835
X129.54Y-119.375
X131.26Y-92.88
X133.8Y-92.88
X134.62Y-83.825
X134.62Y-86.365
X134.62Y-116.84
X134.62Y-119.38
X137.16Y-83.825
X137.16Y-86.365
X137.16Y-116.84
X137.16Y-119.38
X139.7Y-83.825
X139.7Y-86.365
X139.7Y-116.84
X139.7Y-119.38
X142.24Y-83.825
X142.24Y-86.365
X142.24Y-116.84
X142.24Y-119.38
X144.78Y-83.825
X144.78Y-86.365
X144.78Y-116.84
X144.78Y-119.38
X147.32Y-83.825
X147.32Y-86.365
X147.32Y-116.84
X147.32Y-119.38
X152.4Y-83.84
X152.4Y-86.38
X152.4Y-116.835
X152.4Y-119.375
X157.48Y-83.825
X157.48Y-86.365
X157.48Y-116.84
X157.48Y-119.38
X160.02Y-83.825
X160.02Y-86.365
X160.02Y-116.84
X160.02Y-119.38
X162.56Y-83.825
X162.56Y-86.365
X162.56Y-116.84
X162.56Y-119.38
X165.1Y-83.825
X165.1Y-86.365
X165.1Y-116.84
X165.1Y-119.38
X167.64Y-83.825
X167.64Y-86.365
X167.64Y-116.84
X167.64Y-119.38
X170.18Y-83.825
X170.18Y-86.365
X170.18Y-116.84
X170.18Y-119.38
T4
X110.27Y-98.172G85X110.97Y-98.172
G05
X110.97Y-105.172G85X110.27Y-105.172
G05
X119.72Y-120.767G85X119.72Y-120.067
G05
X126.72Y-120.067G85X126.72Y-120.767
G05
T0
M30
